/* XPM */
static char * black_1_xpm[] = {
"50 50 236 2",
"  	c #FFC07A",
". 	c #F2B776",
"+ 	c #D7A36D",
"@ 	c #C19360",
"# 	c #AB8051",
"$ 	c #9C7751",
"% 	c #926D44",
"& 	c #DEA86E",
"* 	c #AB8154",
"= 	c #5F4933",
"- 	c #060606",
"; 	c #535353",
"> 	c #757575",
", 	c #878787",
"' 	c #929292",
") 	c #959595",
"! 	c #989898",
"~ 	c #8B8B8B",
"{ 	c #7F7F7F",
"] 	c #6C6C6C",
"^ 	c #484848",
"/ 	c #604A34",
"( 	c #F9BD7A",
"_ 	c #C29463",
": 	c #5F4830",
"< 	c #393939",
"[ 	c #7B7B7B",
"} 	c #A1A1A1",
"| 	c #B6B6B6",
"1 	c #B9B9B9",
"2 	c #B7B7B7",
"3 	c #B5B5B5",
"4 	c #B3B3B3",
"5 	c #B1B1B1",
"6 	c #AEAEAE",
"7 	c #ACACAC",
"8 	c #AAAAAA",
"9 	c #A8A8A8",
"0 	c #A6A6A6",
"a 	c #A4A4A4",
"b 	c #9C9C9C",
"c 	c #818181",
"d 	c #565656",
"e 	c #604931",
"f 	c #FEBF79",
"g 	c #C69664",
"h 	c #4A3827",
"i 	c #5F5F5F",
"j 	c #BABABA",
"k 	c #B8B8B8",
"l 	c #AFAFAF",
"m 	c #ADADAD",
"n 	c #ABABAB",
"o 	c #A9A9A9",
"p 	c #A2A2A2",
"q 	c #A0A0A0",
"r 	c #9E9E9E",
"s 	c #9A9A9A",
"t 	c #5C5C5C",
"u 	c #4B3A29",
"v 	c #E6AF75",
"w 	c #73583D",
"x 	c #5A5A5A",
"y 	c #A3A3A3",
"z 	c #B4B4B4",
"A 	c #B2B2B2",
"B 	c #A7A7A7",
"C 	c #A5A5A5",
"D 	c #969696",
"E 	c #949494",
"F 	c #8F8F8F",
"G 	c #8D8D8D",
"H 	c #7D7D7D",
"I 	c #3A3A3A",
"J 	c #C39566",
"K 	c #3D3B39",
"L 	c #939393",
"M 	c #B0B0B0",
"N 	c #9F9F9F",
"O 	c #9D9D9D",
"P 	c #9B9B9B",
"Q 	c #909090",
"R 	c #8E8E8E",
"S 	c #8C8C8C",
"T 	c #898989",
"U 	c #858585",
"V 	c #515151",
"W 	c #231F1C",
"X 	c #FCBE7A",
"Y 	c #A37E59",
"Z 	c #5D5D5D",
"` 	c #999999",
" .	c #979797",
"..	c #8A8A8A",
"+.	c #888888",
"@.	c #868686",
"#.	c #848484",
"$.	c #525252",
"%.	c #000000",
"&.	c #FBBE79",
"*.	c #906D47",
"=.	c #919191",
"-.	c #828282",
";.	c #808080",
">.	c #7E7E7E",
",.	c #7C7C7C",
"'.	c #7A7A7A",
").	c #777777",
"!.	c #737373",
"~.	c #464646",
"{.	c #FEBF7A",
"].	c #967452",
"^.	c #787878",
"/.	c #767676",
"(.	c #747474",
"_.	c #717171",
":.	c #6F6F6F",
"<.	c #6D6D6D",
"[.	c #696969",
"}.	c #2B2B2B",
"|.	c #AF875D",
"1.	c #838383",
"2.	c #727272",
"3.	c #707070",
"4.	c #6E6E6E",
"5.	c #6B6B6B",
"6.	c #676767",
"7.	c #656565",
"8.	c #585858",
"9.	c #010101",
"0.	c #D3A068",
"a.	c #646464",
"b.	c #797979",
"c.	c #6A6A6A",
"d.	c #686868",
"e.	c #636363",
"f.	c #616161",
"g.	c #323232",
"h.	c #F2B879",
"i.	c #5A5149",
"j.	c #666666",
"k.	c #626262",
"l.	c #606060",
"m.	c #5B5B5B",
"n.	c #595959",
"o.	c #575757",
"p.	c #494949",
"q.	c #413122",
"r.	c #9B764F",
"s.	c #5E5E5E",
"t.	c #555555",
"u.	c #4F4F4F",
"v.	c #101010",
"w.	c #E2AC71",
"x.	c #545454",
"y.	c #4D4D4D",
"z.	c #4B4B4B",
"A.	c #262626",
"B.	c #886846",
"C.	c #505050",
"D.	c #4E4E4E",
"E.	c #4C4C4C",
"F.	c #474747",
"G.	c #454545",
"H.	c #434343",
"I.	c #2C2C2C",
"J.	c #876746",
"K.	c #E7B075",
"L.	c #4A4A4A",
"M.	c #414141",
"N.	c #3F3F3F",
"O.	c #3D3D3D",
"P.	c #2D2D2D",
"Q.	c #AA8257",
"R.	c #444444",
"S.	c #424242",
"T.	c #404040",
"U.	c #3E3E3E",
"V.	c #3C3C3C",
"W.	c #373737",
"X.	c #292929",
"Y.	c #FDBF7B",
"Z.	c #4E3A24",
"`.	c #383838",
" +	c #363636",
".+	c #333333",
"++	c #313131",
"@+	c #232323",
"#+	c #4E3923",
"$+	c #E0AB72",
"%+	c #343434",
"&+	c #303030",
"*+	c #2E2E2E",
"=+	c #1A1A1A",
"-+	c #BC8E5C",
";+	c #3B3B3B",
">+	c #2A2A2A",
",+	c #282828",
"'+	c #252525",
")+	c #0F0F0F",
"!+	c #936F4A",
"~+	c #353535",
"{+	c #242424",
"]+	c #222222",
"^+	c #1F1F1F",
"/+	c #020202",
"(+	c #66513D",
"_+	c #2F2F2F",
":+	c #202020",
"<+	c #1E1E1E",
"[+	c #1C1C1C",
"}+	c #141414",
"|+	c #0E0B08",
"1+	c #272727",
"2+	c #181818",
"3+	c #161616",
"4+	c #070707",
"5+	c #212121",
"6+	c #1D1D1D",
"7+	c #121212",
"8+	c #0E0E0E",
"9+	c #1B1B1B",
"0+	c #191919",
"a+	c #171717",
"b+	c #0C0C0C",
"c+	c #030303",
"d+	c #151515",
"e+	c #131313",
"f+	c #111111",
"g+	c #0A0A0A",
"h+	c #080808",
"i+	c #050505",
"j+	c #0D0D0D",
"k+	c #0B0B0B",
"l+	c #040404",
"m+	c #090909",
"                                      . + @ # $ % % $ # @ + .                                       ",
"                                & * = - ; > , ' ) ! ' ~ { ] ^ / * &                                 ",
"                          ( _ : < [ } | 1 2 3 4 5 6 7 8 9 0 a b c d e _ (                           ",
"                      f g h i b j j k 3 4 5 l m n o 0 a p q r b s ! ~ t u g f                       ",
"                    v w x y j k | z A l m n o B C y q r b s ! D E ' F G H I w v                     ",
"                  J K L k | z A M 6 7 o B C y } N O P ! D E ' Q R S T , U c V W J                   ",
"              X Y Z m 3 A M 6 7 8 9 0 y } N O P `  .) ' Q R S ..+.@.#.c { H [ $.%.Y X               ",
"            &.*.> 5 5 l 7 8 9 0 a p q r P `  .) L =.F G ..+.@.#.-.;.>.,.'.).> !.~.%.*.&.            ",
"          {.].>.l m n o B a p q r b s ! ) L =.F G ~ T , #.-.;.>.,.'.^./.(._.:.<.[.}.%.].{.          ",
"          |.).n o B C y } r b s ! D E ' F G ~ T , U 1.c { ,.'.^./.(.2.3.4.5.[.6.7.8.9.%.|.          ",
"        0.a.B C y } N O P ! D E ' Q R S .., U 1.c { H [ b.).(.2.3.4.] c.d.7.e.f.i Z g.%.%.0.        ",
"      h.i.q } N O P `  .) L Q R S ..+.@.#.c { H [ b.).> !._.4.] c.d.j.a.k.l.Z m.n.o.p.%.%.q.h.      ",
"      r.S r b `  .) L =.F G ..+.@.#.-.;.>.,.'.).> !._.:.<.5.[.j.a.k.l.s.t x o.t.; V u.v.%.%.r.      ",
"    w.s.s ! D L =.F G ~ T , #.-.;.>.,.'.^./.(._.:.<.5.[.6.7.e.l.s.t x 8.d x.$.u.y.z.p.A.%.%.9.w.    ",
"    B.~ E ' Q G ~ T , U 1.c { H '.^./.(.2.3.4.] [.6.7.e.f.i Z x 8.d x.$.C.D.E.p.F.G.H.I.%.%.%.J.    ",
"  K.C.Q R S ..+.U 1.c { H [ b.).(.2.3.4.] c.d.j.e.f.i Z m.n.o.x.$.C.D.E.L.^ ~.H.M.N.O.P.%.%.%.%.K.  ",
"  Q.!...+.@.#.-.{ H [ b.).> !._.:.] c.d.j.a.k.l.Z m.n.o.t.; V u.E.L.^ ~.R.S.T.U.V.< W.X.%.%.%.%.Q.  ",
"Y.Z.-.#.-.;.>.,.'.).> !._.:.<.5.[.j.a.k.l.s.t x 8.t.; V u.y.z.p.~.R.S.T.U.V.I `. +.+++@+%.%.%.%.#+Y.",
"$+W.;.>.,.'.^./.(.2.:.<.5.[.6.7.e.l.s.t x 8.d x.$.u.y.z.p.F.G.H.M.N.V.I `. +%+g.&+*+}.=+%.%.%.%.%.$+",
"-+p.[ ^./.(.2.3.4.] [.6.7.e.f.i Z m.8.d x.$.C.D.E.L.F.G.H.M.N.O.;+< W.%+g.&+*+I.>+,+'+)+%.%.%.%.%.-+",
"!+E.> 2.3.4.] c.d.j.a.f.i Z m.n.o.t.$.C.D.E.L.^ ~.R.M.N.O.;+< W.~+.+++*+I.>+,+A.{+]+^+/+%.%.%.%.%.!+",
"(+^ :.] c.d.j.a.k.l.s.m.n.o.t.; V u.y.L.^ ~.R.S.T.U.V.I W.~+.+++_+P.}.,+A.{+]+:+<+[+}+%.%.%.%.%.%.(+",
"|+R.[.6.a.k.l.s.t x 8.t.; V u.y.z.p.F.R.S.T.U.V.I `. +%+++_+P.}.X.1+'+@+:+<+[+=+2+3+4+%.%.%.%.%.%.|+",
"%.++e.f.s.t x 8.d x.$.C.y.z.p.F.G.H.M.N.V.I `. +%+g.&+*+}.X.1+'+@+5+^+6+=+2+3+}+7+8+%.%.%.%.%.%.%.%.",
"%.}+Z m.8.d x.$.C.D.E.L.F.G.H.M.N.O.;+< W.%+g.&+*+I.>+,+A.@+5+^+6+9+0+a+}+7+v.8+b+c+%.%.%.%.%.%.%.%.",
"%.%.E.t.; C.D.E.L.^ ~.R.M.N.O.;+< W.~+.+++*+I.>+,+A.{+]+:+6+9+0+a+d+e+f+)+b+g+h+i+%.%.%.%.%.%.%.%.%.",
"%.%..+u.y.L.^ ~.R.S.T.U.V.I W.~+.+++_+P.}.X.A.{+]+:+<+[+=+2+d+e+f+)+j+k+h+- l+/+%.%.%.%.%.%.%.%.%.%.",
"|+%.h+G.F.G.S.T.U.V.I `. +%+g._+P.}.X.1+'+@+:+<+[+=+2+3+}+7+)+j+k+m+4+i+c+9.%.%.%.%.%.%.%.%.%.%.%.|+",
"(+%.%.1+M.N.O.I `. +%+g.&+*+I.X.1+'+@+5+^+6+9+2+3+}+7+v.8+b+m+4+i+c+9.%.%.%.%.%.%.%.%.%.%.%.%.%.%.(+",
"!+%.%.%.&+< W.~+g.&+*+I.>+,+A.@+5+^+6+9+0+a+d+7+v.8+b+g+h+- c+/+%.%.%.%.%.%.%.%.%.%.%.%.%.%.%.%.%.!+",
"-+%.%.%.- P.++_+I.>+,+A.{+]+:+<+9+0+a+d+e+f+)+b+g+h+- l+/+9.%.%.%.%.%.%.%.%.%.%.%.%.%.%.%.%.%.%.%.-+",
"$+%.%.%.%.4+A.X.A.{+]+:+<+[+=+2+d+e+f+)+j+k+m+- l+/+9.%.%.%.%.%.%.%.%.%.%.%.%.%.%.%.%.%.%.%.%.%.%.$+",
"Y.#+%.%.%.%.c+9+5+<+[+=+2+3+}+7+)+j+k+m+4+i+c+9.%.%.%.%.%.%.%.%.%.%.%.%.%.%.%.%.%.%.%.%.%.%.%.%.#+Y.",
"  Q.%.%.%.%.%.%.k+3+3+}+7+v.8+b+g+4+i+c+9.%.%.%.%.%.%.%.%.%.%.%.%.%.%.%.%.%.%.%.%.%.%.%.%.%.%.%.Q.  ",
"  K.%.%.%.%.%.%.%.9.h+b+b+g+h+- l+/+%.%.%.%.%.%.%.%.%.%.%.%.%.%.%.%.%.%.%.%.%.%.%.%.%.%.%.%.%.%.K.  ",
"    J.%.%.%.%.%.%.%.%.%.9.c+/+9.%.%.%.%.%.%.%.%.%.%.%.%.%.%.%.%.%.%.%.%.%.%.%.%.%.%.%.%.%.%.%.J.    ",
"    w.9.%.%.%.%.%.%.%.%.%.%.%.%.%.%.%.%.%.%.%.%.%.%.%.%.%.%.%.%.%.%.%.%.%.%.%.%.%.%.%.%.%.%.9.w.    ",
"      r.%.%.%.%.%.%.%.%.%.%.%.%.%.%.%.%.%.%.%.%.%.%.%.%.%.%.%.%.%.%.%.%.%.%.%.%.%.%.%.%.%.%.r.      ",
"      h.q.%.%.%.%.%.%.%.%.%.%.%.%.%.%.%.%.%.%.%.%.%.%.%.%.%.%.%.%.%.%.%.%.%.%.%.%.%.%.%.%.q.h.      ",
"        0.%.%.%.%.%.%.%.%.%.%.%.%.%.%.%.%.%.%.%.%.%.%.%.%.%.%.%.%.%.%.%.%.%.%.%.%.%.%.%.%.0.        ",
"          |.%.%.%.%.%.%.%.%.%.%.%.%.%.%.%.%.%.%.%.%.%.%.%.%.%.%.%.%.%.%.%.%.%.%.%.%.%.%.|.          ",
"          {.].%.%.%.%.%.%.%.%.%.%.%.%.%.%.%.%.%.%.%.%.%.%.%.%.%.%.%.%.%.%.%.%.%.%.%.%.].{.          ",
"            &.*.%.%.%.%.%.%.%.%.%.%.%.%.%.%.%.%.%.%.%.%.%.%.%.%.%.%.%.%.%.%.%.%.%.%.*.&.            ",
"              X Y %.%.%.%.%.%.%.%.%.%.%.%.%.%.%.%.%.%.%.%.%.%.%.%.%.%.%.%.%.%.%.%.Y X               ",
"                  J W %.%.%.%.%.%.%.%.%.%.%.%.%.%.%.%.%.%.%.%.%.%.%.%.%.%.%.%.W J                   ",
"                    v w %.%.%.%.%.%.%.%.%.%.%.%.%.%.%.%.%.%.%.%.%.%.%.%.%.%.w v                     ",
"                      f g h %.%.%.%.%.%.%.%.%.%.%.%.%.%.%.%.%.%.%.%.%.%.h g f                       ",
"                          ( _ : %.%.%.%.%.%.%.%.%.%.%.%.%.%.%.%.%.%.: _ (                           ",
"                                & * = %.%.%.%.%.%.%.%.%.%.%.%.= * &                                 ",
"                                      . + @ # $ % % $ # @ + .                                       "};
