/* XPM */
static char * blanc_xpm[] = {
"50 50 268 2",
"  	c #FFC07A",
". 	c #FFC07B",
"+ 	c #FEC17E",
"@ 	c #FCC182",
"# 	c #FBC185",
"$ 	c #FAC288",
"% 	c #F5C28F",
"& 	c #F0C195",
"* 	c #EFC195",
"= 	c #EEC094",
"- 	c #EEBF92",
"; 	c #F3C08C",
"> 	c #F8C085",
", 	c #F9BF82",
"' 	c #FBC080",
") 	c #FDC07D",
"! 	c #FEC17F",
"~ 	c #FDC386",
"{ 	c #F9C490",
"] 	c #F1C7A1",
"^ 	c #E5CAB3",
"/ 	c #DBCCC0",
"( 	c #D4CEC9",
"_ 	c #D1CECD",
": 	c #CDCBC9",
"< 	c #C8C6C4",
"[ 	c #C7C5C3",
"} 	c #C6C4C2",
"| 	c #C6BFBA",
"1 	c #CDBCAF",
"2 	c #DABDA5",
"3 	c #E8BE96",
"4 	c #F5BF88",
"5 	c #FABF81",
"6 	c #FDC07C",
"7 	c #FCC58C",
"8 	c #F7CCA5",
"9 	c #ECD5C4",
"0 	c #DFD8D3",
"a 	c #DCDAD9",
"b 	c #DBDAD9",
"c 	c #DADAD9",
"d 	c #DADADA",
"e 	c #D4D4D4",
"f 	c #CECECE",
"g 	c #CFCFCF",
"h 	c #CACACA",
"i 	c #C6C5C5",
"j 	c #C5C4C3",
"k 	c #C0BEBD",
"l 	c #C3BBB6",
"m 	c #D5BCA8",
"n 	c #EBBE92",
"o 	c #F8BF84",
"p 	c #FFC17D",
"q 	c #FDC68D",
"r 	c #F8CFAB",
"s 	c #EEDDD0",
"t 	c #E7E5E3",
"u 	c #E6E6E5",
"v 	c #E6E6E6",
"w 	c #E1E1E1",
"x 	c #DCDCDC",
"y 	c #DDDDDD",
"z 	c #D6D6D6",
"A 	c #C8C8C8",
"B 	c #C4C4C4",
"C 	c #BFBEBD",
"D 	c #BEBBB9",
"E 	c #CFBCAC",
"F 	c #EABE94",
"G 	c #F8BF83",
"H 	c #FEC07C",
"I 	c #FEC282",
"J 	c #FCCCA0",
"K 	c #F6E1D1",
"L 	c #F3F0EF",
"M 	c #F2F2F1",
"N 	c #F1F1F1",
"O 	c #F2F2F2",
"P 	c #F0F0F0",
"Q 	c #EFEFEF",
"R 	c #EBEBEB",
"S 	c #E3E3E3",
"T 	c #D8D8D8",
"U 	c #D2D2D2",
"V 	c #C5C5C5",
"W 	c #BFBEBE",
"X 	c #D4BCA9",
"Y 	c #EFBE8D",
"Z 	c #FCC07E",
"` 	c #FFC17C",
" .	c #FEC68C",
"..	c #FBD7B8",
"+.	c #F4EBE5",
"@.	c #F4F4F3",
"#.	c #FAFAFA",
"$.	c #FBFBFB",
"%.	c #F6F6F6",
"&.	c #F5F5F5",
"*.	c #F8F8F8",
"=.	c #F3F3F3",
"-.	c #C3BAB3",
";.	c #E5BD99",
">.	c #FECA95",
",.	c #FCE0C9",
"'.	c #FAF7F5",
").	c #FCFCFC",
"!.	c #FFFFFF",
"~.	c #FEFEFE",
"{.	c #EEEEEE",
"].	c #DBDBDB",
"^.	c #D1D1D1",
"/.	c #BEBEBE",
"(.	c #DCBDA1",
"_.	c #F6BF86",
":.	c #FEC07B",
"<.	c #FECB9A",
"[.	c #FDE7D5",
"}.	c #FBFAF9",
"|.	c #FDFDFD",
"1.	c #E5E5E5",
"2.	c #C3C3C3",
"3.	c #BEBDBD",
"4.	c #D7BCA6",
"5.	c #FFCA95",
"6.	c #FEE8D6",
"7.	c #FFFFFE",
"8.	c #E8E8E8",
"9.	c #F6C088",
"0.	c #FFC78E",
"a.	c #FFE4CE",
"b.	c #FFFDFC",
"c.	c #D9D9D9",
"d.	c #C7C7C7",
"e.	c #DCBEA5",
"f.	c #F8C084",
"g.	c #FFC484",
"h.	c #FFDDC0",
"i.	c #FFFDFB",
"j.	c #D7D7D7",
"k.	c #CDCDCD",
"l.	c #C1BEBC",
"m.	c #E3BD9B",
"n.	c #FCC07F",
"o.	c #FFC17E",
"p.	c #FFD2A9",
"q.	c #FFF8F3",
"r.	c #C6BEB8",
"s.	c #EEBE90",
"t.	c #FFC992",
"u.	c #FFECDE",
"v.	c #D3D3D3",
"w.	c #D6BFAD",
"x.	c #FFC281",
"y.	c #FFD8B6",
"z.	c #EAEAEA",
"A.	c #DFDFDF",
"B.	c #C6C3C1",
"C.	c #EAC09A",
"D.	c #FDC07E",
"E.	c #FFF0E4",
"F.	c #C9C8C8",
"G.	c #D3C3B7",
"H.	c #F8C087",
"I.	c #FFC280",
"J.	c #FFD6B2",
"K.	c #C7C5C4",
"L.	c #ECC199",
"M.	c #FFC68C",
"N.	c #FFEBDB",
"O.	c #FFFEFE",
"P.	c #C9C8C7",
"Q.	c #D9C3B1",
"R.	c #FBC082",
"S.	c #FFCC9A",
"T.	c #FFF9F5",
"U.	c #CAC4BF",
"V.	c #F5C18C",
"W.	c #FFFEFD",
"X.	c #CAC9C8",
"Y.	c #EAC29D",
"Z.	c #FFC589",
"`.	c #FFE6D3",
" +	c #D0CFCE",
".+	c #DEC3AD",
"++	c #FFC78D",
"@+	c #FFF0E5",
"#+	c #D5C7BC",
"$+	c #FFF9F4",
"%+	c #D3CDC9",
"&+	c #FFCA97",
"*+	c #D1CECC",
"=+	c #FFD0A5",
"-+	c #D0CECC",
";+	c #FFD5AF",
">+	c #D6D3D2",
",+	c #E0E0E0",
"'+	c #DBD9D8",
")+	c #FFD0A4",
"!+	c #DCDAD8",
"~+	c #FFCB97",
"{+	c #DDDAD8",
"]+	c #DED9D5",
"^+	c #E3D6CC",
"/+	c #E6E5E5",
"(+	c #EAD1BD",
"_+	c #E7E5E4",
":+	c #F2CCAA",
"<+	c #FFFAF6",
"[+	c #E8E3E0",
"}+	c #FAC795",
"|+	c #FFECDD",
"1+	c #F1F0F0",
"2+	c #EFDCCD",
"3+	c #FDC488",
"4+	c #FFD7B3",
"5+	c #F2F0EF",
"6+	c #F8D1AE",
"7+	c #FEC280",
"8+	c #FFC993",
"9+	c #FAFAF9",
"0+	c #F5E7DD",
"a+	c #FDC893",
"b+	c #FFD9B7",
"c+	c #FAF8F7",
"d+	c #FBD6B6",
"e+	c #FEC281",
"f+	c #FFEDDF",
"g+	c #FBFBFA",
"h+	c #FCEADC",
"i+	c #FEC892",
"j+	c #FBF6F1",
"k+	c #FED2AB",
"l+	c #FFC485",
"m+	c #FFDEC2",
"n+	c #FEDDC3",
"o+	c #FFC486",
"p+	c #FFC78F",
"q+	c #FFE8D5",
"r+	c #FFC891",
"s+	c #FFE9D9",
"t+	c #FFEADA",
"u+	c #FFCC9C",
"v+	c #FFCD9C",
"w+	c #FFFCFA",
"x+	c #FFE6D1",
"y+	c #FFCB99",
"z+	c #FFDCBF",
"A+	c #FFF7F1",
"B+	c #FFDFC4",
"C+	c #FFD2AA",
"D+	c #FFC27E",
"E+	c #FFEBDC",
"F+	c #FFD7B4",
"G+	c #FFDABA",
"H+	c #FFE8D6",
"I+	c #FFF3E9",
"J+	c #FFFAF7",
"K+	c #FFE8D7",
"L+	c #FFDBBB",
"M+	c #FFCD9D",
"N+	c #FFC382",
"O+	c #FFCFA2",
"P+	c #FFD5B0",
"Q+	c #FFD6B1",
"R+	c #FFCFA3",
"S+	c #FFC994",
"                                  . + @ # $ % & * = - - ; > , ' )                                   ",
"                              ! ~ { ] ^ / ( _ : < [ } } [ | 1 2 3 4 5 6                             ",
"                          ! 7 8 9 0 a b c d d d d e f f g h i j k l m n o )                         ",
"                      p q r s t u v v v v v v v v w x y y y z g A B C D E F G H                     ",
"                  . I J K L M N N O O O O O O O O P Q Q Q P R S T U h V W D X Y Z                   ",
"                `  ...+.@.#.#.$.#.#.#.#.#.#.#.#.#.%.O O O O &.*.=.R S z A V W -.;., .               ",
"              p >.,.'.#.#.$.).!.~.$.$.$.$.$.$.$.$.$.#.#.#.#.&.O O %.*.{.].^.A /.D (._.:.            ",
"            p <.[.}.$.$.).!.!.!.!.!.!.!.!.!.!.!.!.!.|.$.$.$.#.#.#.&.O %.O 1.e A 2.3.4.4 :.          ",
"          ` 5.6.7.!.!.!.!.!.!.!.!.!.!.!.!.!.!.!.!.!.!.!.!.!.|.$.#.#.#.&.N &.8.z A V W 4.9.:.        ",
"        . 0.a.b.!.!.!.!.!.!.!.!.!.!.!.!.!.!.!.!.!.!.!.!.!.!.!.!.|.$.#.#.&.N &.{.c.f d.W e.f.        ",
"        g.h.i.!.!.!.!.!.!.!.!.!.!.!.!.!.!.!.!.!.!.!.!.!.!.!.!.!.!.!.|.$.#.&.=.%.{.j.k.d.l.m.n.      ",
"      o.p.q.!.!.!.!.!.!.!.!.!.!.!.!.!.!.!.!.!.!.!.!.!.!.!.!.!.!.!.!.!.!.|.#.#.&.%.v e k.d.r.s.H     ",
"      t.u.7.!.!.!.!.!.!.!.!.!.!.!.!.!.!.!.!.!.!.!.!.!.!.!.!.!.!.!.!.!.!.!.|.#.#.&.N w v.k.i w.>     ",
"    x.y.i.!.!.!.!.!.!.!.!.!.!.!.!.!.!.!.!.!.!.!.!.!.!.!.!.!.!.!.!.!.!.!.!.!.|.#.#.O z.A.v.A B.C.D.  ",
"    t.E.7.!.!.!.!.!.!.!.!.!.!.!.!.!.!.!.!.!.!.!.!.!.!.!.!.!.!.!.!.!.!.!.!.!.!.|.#.&.N v ].U F.G.H.  ",
"  I.J.i.!.!.!.!.!.!.!.!.!.!.!.!.!.!.!.!.!.!.!.!.!.!.!.!.!.!.!.!.!.!.!.!.!.!.!.!.|.#.&.z.A.c.g K.L.) ",
"  M.N.O.!.!.!.!.!.!.!.!.!.!.!.!.!.!.!.!.!.!.!.!.!.!.!.!.!.!.!.!.!.!.!.!.!.!.!.!.!.|.#.O z.A.v.P.Q.R.",
". S.T.!.!.!.!.!.!.!.!.!.!.!.!.!.!.!.!.!.!.!.!.!.!.!.!.!.!.!.!.!.!.!.!.!.!.!.!.!.!.!.$.&.N v ].g U.V.",
"x.y.W.!.!.!.!.!.!.!.!.!.!.!.!.!.!.!.!.!.!.!.!.!.!.!.!.!.!.!.!.!.!.!.!.!.!.!.!.!.!.!.|.#.O z.A.v.X.Y.",
"Z.`.W.!.!.!.!.!.!.!.!.!.!.!.!.!.!.!.!.!.!.!.!.!.!.!.!.!.!.!.!.!.!.!.!.!.!.!.!.!.!.!.!.$.&.N v ]. +.+",
"++@+O.!.!.!.!.!.!.!.!.!.!.!.!.!.!.!.!.!.!.!.!.!.!.!.!.!.!.!.!.!.!.!.!.!.!.!.!.!.!.!.!.|.#.O v d f #+",
"t.$+!.!.!.!.!.!.!.!.!.!.!.!.!.!.!.!.!.!.!.!.!.!.!.!.!.!.!.!.!.!.!.!.!.!.!.!.!.!.!.!.!.!.$.O z.A.e %+",
"&+i.!.!.!.!.!.!.!.!.!.!.!.!.!.!.!.!.!.!.!.!.!.!.!.!.!.!.!.!.!.!.!.!.!.!.!.!.!.!.!.!.!.!.$.%.N v d *+",
"=+i.!.!.!.!.!.!.!.!.!.!.!.!.!.!.!.!.!.!.!.!.!.!.!.!.!.!.!.!.!.!.!.!.!.!.!.!.!.!.!.!.!.!.$.#.O v d -+",
";+b.!.!.!.!.!.!.!.!.!.!.!.!.!.!.!.!.!.!.!.!.!.!.!.!.!.!.!.!.!.!.!.!.!.!.!.!.!.!.!.!.!.!.|.#.N 1.d >+",
";+b.!.!.!.!.!.!.!.!.!.!.!.!.!.!.!.!.!.!.!.!.!.!.!.!.!.!.!.!.!.!.!.!.!.!.!.!.!.!.!.!.!.!.!.$.N R ,+'+",
")+i.!.!.!.!.!.!.!.!.!.!.!.!.!.!.!.!.!.!.!.!.!.!.!.!.!.!.!.!.!.!.!.!.!.!.!.!.!.!.!.!.!.!.!.$.%.N v !+",
"~+i.!.!.!.!.!.!.!.!.!.!.!.!.!.!.!.!.!.!.!.!.!.!.!.!.!.!.!.!.!.!.!.!.!.!.!.!.!.!.!.!.!.!.!.$.#.N 1.{+",
"t.$+!.!.!.!.!.!.!.!.!.!.!.!.!.!.!.!.!.!.!.!.!.!.!.!.!.!.!.!.!.!.!.!.!.!.!.!.!.!.!.!.!.!.!.$.#.N 1.]+",
"0.@+O.!.!.!.!.!.!.!.!.!.!.!.!.!.!.!.!.!.!.!.!.!.!.!.!.!.!.!.!.!.!.!.!.!.!.!.!.!.!.!.!.!.!.$.#.N u ^+",
"Z.`.W.!.!.!.!.!.!.!.!.!.!.!.!.!.!.!.!.!.!.!.!.!.!.!.!.!.!.!.!.!.!.!.!.!.!.!.!.!.!.!.!.!.!.|.#.N /+(+",
"x.y.W.!.!.!.!.!.!.!.!.!.!.!.!.!.!.!.!.!.!.!.!.!.!.!.!.!.!.!.!.!.!.!.!.!.!.!.!.!.!.!.!.!.!.!.$.N _+:+",
". S.<+!.!.!.!.!.!.!.!.!.!.!.!.!.!.!.!.!.!.!.!.!.!.!.!.!.!.!.!.!.!.!.!.!.!.!.!.!.!.!.!.!.!.).#.N [+}+",
"  M.|+O.!.!.!.!.!.!.!.!.!.!.!.!.!.!.!.!.!.!.!.!.!.!.!.!.!.!.!.!.!.!.!.!.!.!.!.!.!.!.!.!.!.|.#.1+2+3+",
"  I.4+i.!.!.!.!.!.!.!.!.!.!.!.!.!.!.!.!.!.!.!.!.!.!.!.!.!.!.!.!.!.!.!.!.!.!.!.!.!.!.!.!.!.).#.5+6+7+",
"    8+E.7.!.!.!.!.!.!.!.!.!.!.!.!.!.!.!.!.!.!.!.!.!.!.!.!.!.!.!.!.!.!.!.!.!.!.!.!.!.!.!.!.$.9+0+a+. ",
"    x.b+i.!.!.!.!.!.!.!.!.!.!.!.!.!.!.!.!.!.!.!.!.!.!.!.!.!.!.!.!.!.!.!.!.!.!.!.!.!.!.!.!.$.c+d+e+  ",
"    . t.f+7.!.!.!.!.!.!.!.!.!.!.!.!.!.!.!.!.!.!.!.!.!.!.!.!.!.!.!.!.!.!.!.!.!.!.!.!.!.!.!.g+h+i+.   ",
"      o.p.q.!.!.!.!.!.!.!.!.!.!.!.!.!.!.!.!.!.!.!.!.!.!.!.!.!.!.!.!.!.!.!.!.!.!.!.!.!.!.!.j+k+o.    ",
"        l+m+b.!.!.!.!.!.!.!.!.!.!.!.!.!.!.!.!.!.!.!.!.!.!.!.!.!.!.!.!.!.!.!.!.!.!.!.!.!.b.n+o+      ",
"        . p+a.W.!.!.!.!.!.!.!.!.!.!.!.!.!.!.!.!.!.!.!.!.!.!.!.!.!.!.!.!.!.!.!.!.!.!.!.7.q+r+.       ",
"          ` &+s+7.!.!.!.!.!.!.!.!.!.!.!.!.!.!.!.!.!.!.!.!.!.!.!.!.!.!.!.!.!.!.!.!.!.7.t+S.p         ",
"            p u+s+W.!.!.!.!.!.!.!.!.!.!.!.!.!.!.!.!.!.!.!.!.!.!.!.!.!.!.!.!.!.!.!.7.t+v+p           ",
"              p &+a.w+!.!.!.!.!.!.!.!.!.!.!.!.!.!.!.!.!.!.!.!.!.!.!.!.!.!.!.!.!.b.x+y+p             ",
"                ` 0.z+A+7.!.!.!.!.!.!.!.!.!.!.!.!.!.!.!.!.!.!.!.!.!.!.!.!.!.7.$+B+r+`               ",
"                  . l+C+|+i.7.!.!.!.!.!.!.!.!.!.!.!.!.!.!.!.!.!.!.!.!.!.7.i.f+C+o+.                 ",
"                      D+r+y.E.i.O.!.!.!.!.!.!.!.!.!.!.!.!.!.!.!.!.!.O.i.@+b+t.o.                    ",
"                          x.8+J.E+T.W.O.7.!.!.!.!.!.!.!.!.!.7.O.W.<+u.F+8+x.                        ",
"                              I.M.v+G+H+I+J+b.b.b.b.b.b.b.J+I+K+L+M+M.I.                            ",
"                                  . N+Z.p+8+O+P+P+Q+Q+P+R+S+p+Z.N+`                                 "};
