/* XPM */
static char * 1_xpm[] = {
"50 50 258 2",
"  	c #0E6459",
". 	c #107365",
"+ 	c #117567",
"@ 	c #0E6F61",
"# 	c #137365",
"$ 	c #127567",
"% 	c #12786A",
"& 	c #0E7062",
"* 	c #107567",
"= 	c #107163",
"- 	c #15675B",
"; 	c #194E49",
"> 	c #0A8270",
", 	c #0E8B77",
"' 	c #0E8C78",
") 	c #0C8B78",
"! 	c #0B8A77",
"~ 	c #0C8C78",
"{ 	c #0E8E7A",
"] 	c #0C907B",
"^ 	c #0B907C",
"/ 	c #0C907C",
"( 	c #0D907C",
"_ 	c #0D917C",
": 	c #0D8F7B",
"< 	c #0D8876",
"[ 	c #0D8D79",
"} 	c #0D8775",
"| 	c #0F6B5E",
"1 	c #0D8875",
"2 	c #0A8F7B",
"3 	c #209882",
"4 	c #349E86",
"5 	c #2B9B84",
"6 	c #199680",
"7 	c #0F8F7B",
"8 	c #12947F",
"9 	c #1E9D86",
"0 	c #2DA189",
"a 	c #1A9A84",
"b 	c #0F9883",
"c 	c #089883",
"d 	c #089983",
"e 	c #089A84",
"f 	c #089984",
"g 	c #089882",
"h 	c #099580",
"i 	c #137063",
"j 	c #0B8D7A",
"k 	c #38A088",
"l 	c #5EB496",
"m 	c #75BE9D",
"n 	c #74BD9C",
"o 	c #54AF93",
"p 	c #18947F",
"q 	c #209D86",
"r 	c #5CB396",
"s 	c #74BD9D",
"t 	c #5FB396",
"u 	c #29A088",
"v 	c #089580",
"w 	c #099882",
"x 	c #0C917D",
"y 	c #0E8D7A",
"z 	c #137062",
"A 	c #1F9882",
"B 	c #5FB496",
"C 	c #7EC2A0",
"D 	c #82C4A1",
"E 	c #72BD9D",
"F 	c #3AA68C",
"G 	c #2EA189",
"H 	c #68B899",
"I 	c #6ABA9A",
"J 	c #259E87",
"K 	c #079983",
"L 	c #0B927D",
"M 	c #0C8775",
"N 	c #1F9983",
"O 	c #73BC9C",
"P 	c #7FC3A0",
"Q 	c #53B094",
"R 	c #1CA088",
"S 	c #4AAC91",
"T 	c #53B093",
"U 	c #32A48B",
"V 	c #149F87",
"W 	c #1C9882",
"X 	c #6CB99A",
"Y 	c #7BC19F",
"Z 	c #69B99A",
"` 	c #46AB90",
" .	c #099A84",
"..	c #069D86",
"+.	c #169C86",
"@.	c #0A9A84",
"#.	c #069C85",
"$.	c #0A9580",
"%.	c #0E937E",
"&.	c #42A78D",
"*.	c #5BB496",
"=.	c #75BF9D",
"-.	c #46AC91",
";.	c #259F88",
">.	c #079C85",
",.	c #01A38A",
"'.	c #02A28A",
").	c #03A189",
"!.	c #059E87",
"~.	c #099680",
"{.	c #0A9680",
"].	c #0B947F",
"^.	c #12937E",
"/.	c #25A189",
"(.	c #35A289",
"_.	c #2EA289",
":.	c #1F9E87",
"<.	c #0D9B85",
"[.	c #01A48B",
"}.	c #00A58C",
"|.	c #00A48C",
"1.	c #049E87",
"2.	c #099983",
"3.	c #0D907B",
"4.	c #0C917C",
"5.	c #0A9781",
"6.	c #01A38B",
"7.	c #069C86",
"8.	c #099782",
"9.	c #127568",
"0.	c #00A48B",
"a.	c #049F87",
"b.	c #099681",
"c.	c #079B85",
"d.	c #03A088",
"e.	c #099781",
"f.	c #049F88",
"g.	c #099883",
"h.	c #059D86",
"i.	c #0A947F",
"j.	c #02A189",
"k.	c #069B85",
"l.	c #0C8E79",
"m.	c #08957F",
"n.	c #088B77",
"o.	c #047564",
"p.	c #078673",
"q.	c #03A089",
"r.	c #039F88",
"s.	c #02A38A",
"t.	c #047C6A",
"u.	c #037463",
"v.	c #067F6D",
"w.	c #049B84",
"x.	c #0A927D",
"y.	c #057867",
"z.	c #047765",
"A.	c #088C78",
"B.	c #09937E",
"C.	c #077C6B",
"D.	c #098270",
"E.	c #09927E",
"F.	c #079883",
"G.	c #039F87",
"H.	c #079580",
"I.	c #098D79",
"J.	c #0A8673",
"K.	c #067968",
"L.	c #057766",
"M.	c #057665",
"N.	c #067867",
"O.	c #098E7A",
"P.	c #08947F",
"Q.	c #0A8370",
"R.	c #067E6C",
"S.	c #0A917C",
"T.	c #059E86",
"U.	c #0A8D79",
"V.	c #037362",
"W.	c #068B77",
"X.	c #0B8C79",
"Y.	c #037564",
"Z.	c #078571",
"`.	c #04A089",
" +	c #047665",
".+	c #078976",
"++	c #079B84",
"@+	c #077B6A",
"#+	c #059D87",
"$+	c #09927D",
"%+	c #077A69",
"&+	c #09806E",
"*+	c #069A84",
"=+	c #058E79",
"-+	c #047766",
";+	c #047A69",
">+	c #0B8976",
",+	c #0A8472",
"'+	c #01A28A",
")+	c #09816F",
"!+	c #049A83",
"~+	c #07907C",
"{+	c #07806E",
"]+	c #06806E",
"^+	c #04927D",
"/+	c #069A83",
"(+	c #01A48C",
"_+	c #0A8B77",
":+	c #0A9681",
"<+	c #0B957F",
"[+	c #0B937F",
"}+	c #04A088",
"|+	c #059F87",
"1+	c #0B937E",
"2+	c #0E8F7B",
"3+	c #089B84",
"4+	c #0A957F",
"5+	c #0A937E",
"6+	c #0D8674",
"7+	c #0E8D79",
"8+	c #136E61",
"9+	c #0C7163",
"0+	c #0E8170",
"a+	c #097868",
"b+	c #0E806F",
"c+	c #0A8271",
"d+	c #0E8270",
"e+	c #0B8271",
"f+	c #0C8270",
"g+	c #0F8170",
"h+	c #0F806F",
"i+	c #0A7969",
"j+	c #0B7465",
"k+	c #125D54",
"l+	c #095B51",
"m+	c #0D6055",
"n+	c #085F54",
"o+	c #0E5D53",
"p+	c #035E53",
"q+	c #045F54",
"r+	c #0D5E53",
"s+	c #055E53",
"t+	c #066055",
"u+	c #095E53",
"v+	c #0C5C52",
"w+	c #115E54",
"x+	c #0D5A51",
"y+	c #095E54",
"z+	c #0E5E54",
"A+	c #06514A",
"B+	c #064E47",
"C+	c #03534B",
"D+	c #02524A",
"E+	c #03524A",
"F+	c #03534A",
"G+	c #05554C",
"H+	c #04544C",
"I+	c #084943",
"  . + @ # $ % % % % % % % % % % % % % % % % % % % % % % % % % % % % % % % % % % % % % % % & * = - ; ",
"> , ' ) ! ~ { { { ] ^ / ( ( ( ( ( ( _ ( _ ( ( ( ( ( ( ( ( ( ( ( ( ( ( ( ( ( ( : { { { { { < [ ) } | ",
"1 { 2 3 4 5 6 7 8 9 0 a b c c c c d e c e f g c c c c c c c c c c c c c c c c h / : { { { { { { { i ",
"1 j k l m n o p q r s t u v d e e e e e e e e e e e e e e e e e e e e e e e e d w x { { { { { { y z ",
"} A B C D D E F G H C I J K e e e e e e e e e e e e e e e e e e e e e e e e e e e w L : { { { { y z ",
"M N O D D D P Q R S T U V e e e e e e e e e e e e e e e e e e e e e e e e e e e e e w x : { { { y z ",
"} W X Y D P Z `  ...+.@.#.e e e e e e e e e e e e e e e e e e e e e e e e e e e e e w $.L : { { y z ",
"1 %.&.*.=.I -.;.>.,.'.).).).).).).).).).).).).).).).).).).).).).).).).).).).).!.e e e e ~.{.{ { y z ",
") ].^./.(._.:.<.[.}.}.}.}.}.}.}.}.}.}.}.}.}.}.}.}.}.}.}.}.}.}.}.}.}.}.}.}.}.}.|.1.e e e e 2./ 3.4.i ",
") ].5. . . . .[.}.}.}.}.}.}.}.}.}.}.}.}.}.}.}.}.}.}.}.}.}.}.}.}.}.}.}.}.}.}.}.}.}.6.7.e e e 8.( L 9.",
") ].5.e e e ..[.}.}.}.}.}.}.}.}.}.}.}.}.}.}.}.}.}.}.}.}.}.}.}.}.}.}.}.}.}.}.}.}.}.0.a.e e e d b.2.9.",
") ].5.e e c.,.}.}.}.}.}.}.}.}.}.}.}.}.}.}.}.}.}.}.}.}.}.}.}.}.}.}.}.}.}.}.}.}.}.}.0.d.c.e e w e.8.9.",
") ].5.e e #.f.|.}.}.}.}.}.}.}.}.}.}.}.}.}.}.}.}.}.}.}.}.}.}.}.}.}.}.}.}.}.}.}.}.}.}.'.c.e e f 8.g.9.",
") ].5.e e e h.0.}.}.}.}.}.}.}.}.}.}.}.}.}.}.}.}.}.}.}.}.}.}.}.}.}.}.}.}.}.}.}.}.}.}.'.c.e e 8.$.g.9.",
") ].5.e e #.1.0.}.}.}.}.}.}.}.}.}.}.}.}.}.}.}.}.}.}.}.}.}.}.}.}.}.}.}.}.}.}.}.}.}.}.'.c.e e w b.b.9.",
") ].5.e e c.h.0.}.}.}.}.}.}.}.}.}.}.}.}.}.}.}.}.}.}.}.}.}.}.}.}.}.}.}.}.}.}.}.}.}.}.'.c.e e e.i.8.9.",
") ].5.e e e ).}.}.}.}.}.}.}.}.}.}.}.}.}.}.}.}.}.d.j.}.}.}.}.}.}.}.}.}.}.}.}.}.}.}.}.'.c.e e d w d 9.",
") ].5.e e !.[.}.}.}.}.}.}.}.}.}.}.}.}.}.}.}.}.k.l.m.'.}.}.}.}.}.}.}.}.}.}.}.}.}.}.0.'.c.e f h $.b.9.",
") ].5.e e e 1.|.}.}.}.}.}.}.}.}.}.}.}.}.}.}.[.n.o.p.'.}.}.}.}.}.}.}.}.}.}.}.}.}.}.q.r.c.e e e w d 9.",
") ].5.e e c.s.}.}.}.}.}.}.}.}.}.}.}.}.}.}.}...t.u.v.w.|.}.}.}.}.}.}.}.}.}.}.}.}.}.}.,.c.e e w $.d 9.",
") ].5.e e #.6.}.}.}.}.}.}.}.}.}.}.}.}.}.}.s.x.y.u.z.A.'.}.}.}.}.}.}.}.}.}.}.}.}.}.[.r.c.e e g.b.b.9.",
") ].5.e e e !.|.}.}.}.}.}.}.}.}.}.[.[.1.K B.C.u.u.o.D.E.F.G.[.[.}.}.}.}.}.}.}.}.}.}.'.c.e e 8.$.c 9.",
") ].5.e e e '.}.}.}.}.}.}.}.}.}.r.H.I.J.K.L.u.u.u.u.M.N.K.p.O.P.d.}.}.}.}.}.}.}.}.}.j.c.e e d e.w 9.",
") ].5.e e #.q.}.}.}.}.}.}.}.}.0.: Q.M.u.u.u.u.u.u.u.u.u.u.u.M.R.S.'.}.}.}.}.}.}.}.|.q.c.e e 2.8.8.9.",
") ].5.e e e ).}.}.}.}.}.}.}.}.}.T.U.K.u.u.u.u.u.u.u.u.u.u.u.V.W.G.[.}.}.}.}.}.}.}.[.r.c.e e d $.g.9.",
") ].5.e e #.,.}.}.}.}.}.}.}.}.}.}.f.X.y.u.u.u.u.u.u.u.u.u.Y.Z.r.}.}.}.}.}.}.}.}.}.}.'.c.e f $.e.d 9.",
") ].5.e e c.'.}.}.}.}.}.}.}.}.}.}.}.`.j  +u.u.u.u.u.u.u. +.+).}.}.}.}.}.}.}.}.}.}.}.'.c.e e d e.b.9.",
") ].5.e e e f.}.}.}.}.}.}.}.}.}.}.}.}.++@+u.u.u.u.u.u.u.D.#+}.}.}.}.}.}.}.}.}.}.}.}.'.c.e e w $.d 9.",
") ].5.e e c.,.}.}.}.}.}.}.}.}.}.}.}.}.$+%+u.u.u.u.u.u.u.&+*+}.}.}.}.}.}.}.}.}.}.}.}.'.c.e e d b.b.9.",
") ].5.e e #.a.|.}.}.}.}.}.}.}.}.}.}.}.=+ +u.u.u.o.Y.u.u.-+$+}.}.}.}.}.}.}.}.}.}.}.}.'.c.e e d w b.9.",
") ].5.e e e !.|.}.}.}.}.}.}.}.}.}.}.}.=+Y.o.y.;+>+,+ +u. +U.j.}.}.}.}.}.}.}.}.}.}.}.'+c.e e g.i.g.9.",
") ].5.e e 7.6.}.}.}.}.}.}.}.}.}.}.}.}.=+o.)+E.!+).k.~+{+L.]+!.}.}.}.}.}.}.}.}.}.}.|.q.c.e e g.8.b.9.",
") ].5.e e >.d.|.}.}.}.}.}.}.}.}.}.}.}.!+^+/+6.}.}.}.(+*+_+_+f.}.}.}.}.}.}.}.}.}.}.}.j.c.e e b.8.e.9.",
") ].5.e e e ).}.}.}.}.}.}.}.}.}.}.}.}.0.[.|.}.}.}.}.}.0.'.1.|.}.}.}.}.}.}.}.}.}.}.[.f.c.e e w i.g.9.",
") ].5.e e #.6.}.}.}.}.}.}.}.}.}.}.}.}.}.}.}.}.}.}.}.}.}.}.}.}.}.}.}.}.}.}.}.}.}.}.}.'.c.e e g.w d 9.",
") ].5.e e c.).}.}.}.}.}.}.}.}.}.}.}.}.}.}.}.}.}.}.}.}.}.}.}.}.}.}.}.}.}.}.}.}.}.}.}.'.c.e e w ~.e.9.",
") ].5.e e c.#+0.}.}.}.}.}.}.}.}.}.}.}.}.}.}.}.}.}.}.}.}.}.}.}.}.}.}.}.}.}.}.}.}.}.}.'+c.e e w ~.d 9.",
") ].5.e e #.1.0.}.}.}.}.}.}.}.}.}.}.}.}.}.}.}.}.}.}.}.}.}.}.}.}.}.}.}.}.}.}.}.}.}.[.1.++e e e.L w 9.",
") ].:+e e e e 6.0.}.}.}.}.}.}.}.}.}.}.}.}.}.}.}.}.}.}.}.}.}.}.}.}.}.}.}.}.}.}.}.}.6.7.e e e $.3.i.i ",
") <+3.e.e e e 7.!.[.}.}.}.}.}.}.}.}.}.}.}.}.}.}.}.}.}.}.}.}.}.}.}.}.}.}.}.}.}.}.'.h.#.e e w x : : z ",
") [+{ 3.e.e e e >.[.).).).}+j.f.q.}+j.f.j.q.d.f.j.q.d.j.f.j.j.j.f.j.d.q.j.}+s.|+e e e e ].1+{ : : i ",
"1 2+{ { 3.e.e e e 7.3+#+h.c.1.c.'.c.1.c.1.7.}+7.1.h.#.1.c.'.1.'.c.1.#.h.1.e c.e e e d 8.L i.{ { y z ",
"1 { { { x L 8.e e e e e e e e e 3+e e e e e e e e e e e e 3+e 3+e e e e e e e e e e b.3.4.{ { { y z ",
"1 { { { { { 1+i.e e e e e e e e e e e e e e e e e e e e e e e e e e e e e e e e d i.L : { { { { y z ",
"1 { { { { { : / e.w 2.e e e e e e e e e e e e e e c.c.e e e e e e e e #.e e e d i.3.: { { { { { y z ",
"1 { { { { { { : ( 4+i.i.i.i.i.i.i.i.i.i.i.i.i.i.i.i.i.i.i.i.i.i.i.i.i.4+i.i.i.5+L { { { { { { { y z ",
"6+{ 7+{ { { { { $.g.w w w w w w w w w w w w w w w w w w w w w w w w w w w w w b.: { { { { { y 7+' 8+",
"9+0+a+b+c+c+d+e+c+c+c+c+c+c+c+c+c+c+c+c+c+c+c+c+c+c+c+c+c+c+c+c+c+c+c+c+c+c+c+c+c+c+f+f+0+g+h+i+j+k+",
"l+m+n+o+p+q+r+s+p+p+p+p+p+p+p+p+p+p+p+p+p+p+p+p+p+p+p+p+p+p+p+p+p+p+p+p+p+p+p+p+p+t+u+u+v+w+x+y+z+A+",
"B+C+C+C+D+E+C+D+D+D+D+D+D+D+D+D+D+D+D+D+D+D+D+D+D+D+D+D+D+D+D+D+D+D+D+D+D+D+D+D+D+C+F+G+C+H+D+F+C+I+"};
