/* XPM */
static char *_994c070aa8c4f1a9904d7f46439c358lGwr5jZtuYMMz3A8[] = {
/* columns rows colors chars-per-pixel */
"50 50 232 2 ",
"   c None",
".  c #030000",
"X  c #0C0203",
"o  c #1C0B0E",
"O  c #170604",
"+  c #1A1315",
"@  c #220B0F",
"#  c #280607",
"$  c #340305",
"%  c #36080A",
"&  c #2A0C10",
"*  c #260C10",
"=  c #330D11",
"-  c #3A0F11",
";  c #251B1E",
":  c #2A1B1E",
">  c #251517",
",  c #3A171A",
"<  c #31120E",
"1  c #282727",
"2  c #3A3737",
"3  c #322426",
"4  c #362416",
"5  c #490508",
"6  c #5E050A",
"7  c #510A0A",
"8  c #431213",
"9  c #4C1112",
"0  c #49181B",
"q  c #5C1211",
"w  c #551617",
"e  c #531110",
"r  c #66090B",
"t  c #7B0B0F",
"y  c #75080D",
"u  c #6D0F11",
"i  c #730E12",
"p  c #7D0B11",
"a  c #631213",
"s  c #6C1115",
"d  c #691619",
"f  c #6F1210",
"g  c #552608",
"h  c #693113",
"j  c #493327",
"k  c #453435",
"l  c #743029",
"z  c #631C21",
"x  c #774D2B",
"c  c #6D552A",
"v  c #4C4B4B",
"b  c #484544",
"n  c #554849",
"m  c #5D5C5B",
"M  c #565455",
"N  c #525051",
"B  c #665957",
"V  c #754D49",
"C  c #776359",
"Z  c #656464",
"A  c #686666",
"S  c #6D6B6C",
"D  c #716D6D",
"F  c #747373",
"G  c #7C7C7C",
"H  c #797777",
"J  c #635F60",
"K  c #85060E",
"L  c #84090E",
"P  c #8B080F",
"I  c #91090F",
"U  c #830B10",
"Y  c #880B10",
"T  c #950B10",
"R  c #9C0D10",
"E  c #871215",
"W  c #901108",
"Q  c #A40F11",
"!  c #AC1112",
"~  c #A51416",
"^  c #B41313",
"/  c #BC1413",
"(  c #AE190F",
")  c #973111",
"_  c #AD3A10",
"`  c #942024",
"'  c #DD1E0F",
"]  c #C31613",
"[  c #CC1812",
"{  c #C91712",
"}  c #D41A11",
"|  c #DB1C10",
" . c #E21D0F",
".. c #DD3A0E",
"X. c #D53116",
"o. c #E5240E",
"O. c #E42A0E",
"+. c #E6350D",
"@. c #E63C0C",
"#. c #E03118",
"$. c #C2322B",
"%. c #8D4732",
"&. c #B35532",
"*. c #A45F25",
"=. c #D14D0A",
"-. c #E8430B",
";. c #E94C09",
":. c #E7440B",
">. c #EA5C06",
",. c #E9520A",
"<. c #EA5608",
"1. c #E75D1B",
"2. c #C77515",
"3. c #EB6305",
"4. c #EC6B05",
"5. c #E36606",
"6. c #EE7406",
"7. c #EF7B06",
"8. c #ED720A",
"9. c #E97918",
"0. c #E16911",
"q. c #CB7029",
"w. c #EE7921",
"e. c #8C4647",
"r. c #857D7A",
"t. c #8D706D",
"y. c #B7675D",
"u. c #C5785A",
"i. c #EF8207",
"p. c #F08407",
"a. c #F18A07",
"s. c #F18E08",
"d. c #F08309",
"f. c #F39508",
"g. c #F49B09",
"h. c #F09616",
"j. c #F5A40A",
"k. c #F6AA0C",
"l. c #F6AA10",
"z. c #F7B214",
"x. c #F8B61B",
"c. c #F18F28",
"v. c #F8BB24",
"b. c #F8BB2A",
"n. c #F1AF31",
"m. c #D79E36",
"M. c #F9C02F",
"N. c #FAC234",
"B. c #FAC53C",
"V. c #938A71",
"C. c #B8916A",
"Z. c #BF9D42",
"A. c #D69651",
"S. c #F2AF4D",
"D. c #DC9962",
"F. c #D5BC79",
"G. c #C9B270",
"H. c #EBA05F",
"J. c #FACD4D",
"K. c #F8C744",
"L. c #FACC51",
"P. c #FBD45C",
"I. c #FBD154",
"U. c #FCDB69",
"Y. c #FBD666",
"T. c #E6CC78",
"R. c #F9D675",
"E. c #F7C666",
"W. c #FDE278",
"Q. c #D3C07D",
"!. c #7F8080",
"~. c #848484",
"^. c #8C8C8C",
"/. c #8B8888",
"(. c #998C8D",
"). c #8F9090",
"_. c #949494",
"`. c #9B9C9C",
"'. c #9A9596",
"]. c #9B9189",
"[. c #A69C9B",
"{. c #B0948D",
"}. c #B0A69D",
"|. c #A4A4A4",
" X c #AAABAB",
".X c #A7A8A8",
"XX c #B3B3B3",
"oX c #BCBDBD",
"OX c #BAB8B8",
"+X c #B0B0B0",
"@X c #C9B38A",
"#X c #CABAB3",
"$X c #D7C792",
"%X c #F7D983",
"&X c #ECD289",
"*X c #FDE886",
"=X c #F8E895",
"-X c #FCF29B",
";X c #FCF096",
":X c #EDE395",
">X c #FCF5A3",
",X c #FCF6AA",
"<X c #FCF8AD",
"1X c #FDF9B4",
"2X c #FDF9BA",
"3X c #F3EBB8",
"4X c #D2CEA4",
"5X c #BFC0C0",
"6X c #C4C4C4",
"7X c #CBCBCB",
"8X c #C9C8C8",
"9X c #D2CCCB",
"0X c #CFD0D0",
"qX c #D3D3D4",
"wX c #DBDADA",
"eX c #D9D7D6",
"rX c #D1D0D0",
"tX c #FDFAC4",
"yX c #FDFAC9",
"uX c #FDFBD3",
"iX c #FDFBDA",
"pX c #DFDFE0",
"aX c #DFE0E0",
"sX c #E4E4E4",
"dX c #EEECEA",
"fX c #EAE8E6",
"gX c #F0EEEC",
"hX c #FEFDEB",
"jX c #F8F6E7",
"kX c #F4F4F4",
"lX c #FBFAFA",
"zX c #FAFAF6",
/* pixels */
"                                        lXzXzXkXkXkXkXzXlX                                          ",
"                                  zXkXgXdXdXfXsXsXdXkXkXlXlXzXkXkX                                  ",
"                            zXkXgXdXdXdXdXfXsXsXdXkXzXlXlXzXdXpXeXwXeXgX                            ",
"                        lXkXgXdXdXdXdXdXsXsXsXdXkXkXlXlXzXdXsXqX6XOX XoXwX                          ",
"                      kXgXgXgXgXdXdXsXqXXX_.G F F H ~.^.|.oX8X8XoX X|. X6XsXkX                      ",
"                  lXgXgXdXgXgXfXrX{.t.%.A.4X3XiXiXiXuX3X4XG.*.C ~.`. XoXeXwXwXdX                    ",
"                zXgXdXdXdXfX7X{.%.u.H.%X,X2XtXyXyXyX1X,X>X;X%XA.&.V r.7XeXeXqXqXwX                  ",
"              zXgXdXdXdXwX[.V &.A.E.=XtXuXjXhXhXzXzXhXhXuX2X<X>X%XD.&.t. X7X7X8X8XeX                ",
"            zXgXdXdXdXeXr.l 2.9.w.R.,XtXuXiXjXhXhXhXhXjXiXyX2X,X=X-X&XC.V '.oX6XoXoX7X              ",
"          lXgXgXdXfX8XV l _ ..<.S.=X>X2XtXuXiXiXjXjXiXiXuXtX1X>X*XE.%X=XG.l V.XXXX XXX6X            ",
"          kXdXdXdX7XB d T ] +.c.Y.*X-X<X2XtXyXuXuXuXuXyXtX2X,X-X*XL.c.E.=XF.x D |.|.`.`.wX          ",
"        gXgXdXdXeXB d Y ! } ,.n.U.W.*X-X,X1X2XtXtXtXtX2X1X>X-X*XW.P.h.9.H.=XF.l D _._.^.`.sX        ",
"      sXdXdXdXwXr.w i R ] O.8.B.I.U.W.*X;X>X,X<X1X1X<X,X>X;X*XW.U.L.n.6.1.H.=XF.j D /.G H |.        ",
"      sXdXdXfX[.k a Y ! [ @.h.M.K.I.U.R.*X*X;X-X-X-X-X;X*XW.U.P.J.B.v.i.<.#.D.:XV.k F F S H oX      ",
"    eXdXdXdX9Xn 0 i T ^ } <.k.x.b.B.J.P.U.W.W.*X*X*X*XW.W.U.P.J.B.v.z.s.>.O.$.F.&XV v Z B m ).      ",
"    wXdXdXfX/.3 w p R / | 8.j.k.z.v.N.K.I.P.Y.U.U.U.U.Y.P.J.K.N.v.z.k.f.>.O.{ &.T.Z.j v m Z F XX    ",
"  oXsXdXdX9Xk , a L Q / | d.g.j.k.z.x.b.N.K.J.J.J.L.J.K.B.N.v.x.l.j.j.f.3.+.{ ~ q.n.x 2 Z S D _.    ",
"  7XdXdXsX`.; 0 s P Q ] O.p.s.f.j.j.k.z.x.v.b.M.N.N.N.b.v.x.z.k.j.g.f.a.3.O.{ ! ) 2.*.: Z H r.F     ",
"  7XdXsXsXm ; 0 i P Q ] ..6.7.a.f.g.j.j.k.k.z.z.z.z.z.k.k.k.j.j.f.f.p.7.3.O.{ ! P _ =., m F A 1 G   ",
"  wXsXsXqX3 : 0 i P Q / ..3.4.7.p.s.f.g.j.j.j.j.k.k.j.j.j.g.f.f.a.i.6.4.<.o.] ! P p ^ w b v 1 2 _.  ",
"_.sXsXdXoX; : 0 i P Q / O.;.>.4.6.7.p.s.f.f.f.f.g.g.f.f.f.s.a.p.7.6.3.<.-.| ] Q P i E d > 1 v `..X  ",
".XsXdXkX`.; : 0 i P R ^ | O.-.<.3.4.6.7.i.p.p.a.s.a.a.p.p.7.6.6.3.>.,.@.O.} / R P s a d ; m |.6XqX  ",
"XXdXkXkX~.; : 0 s L T ! } | o.+.:.<.>.3.4.6.6.6.7.7.6.6.4.5.=._ h < o o @ 5 r L P s 0 w ; ^.7XsXsX  ",
"oXkXzXlXS ; : 0 s U I Q ] } | | o.+.-.;.<.>.>.3.3.3.>.=._ g & o o o o o o X . X $ e 0 0 : XXdXzXkX  ",
"XXzXlXzXM ; ; 0 a p P R ^ ] { } | |  .O.+.@.-.:.:.=.) 9 @ o o o o o o o o X . . . X * , : 5XzXkXdXF ",
"XXlXzXkXN ; ; , q i L T ! ^ / ] { [ } | |  . .| ( a & o o o o o o o o o o X . . . . X > : 6XkXsXwXS ",
"XXkXdXsXJ o > , w u U I R Q ! ^ / ] ] { [ { ! u = o o o o o o o o o o o o X . . . . . , > 6XaXeX8XA ",
"XXdXsXwXS . X o 8 a i Y T R Q Q ! ^ ^ ! E q & o o o o o o o o o o o o o o X . . . . . 8 > oXqX8XoX  ",
"'.aXeX8XH X . . X # 5 r t L Y Y U i e & @ @ * & & & * @ @ o o o o o o o o . . . . . . q 3 oX6X6X X  ",
"Z qX6XoX^.o . . . . . . O o o o o @ & = - - 8 8 8 8 8 - - = & @ o o o o o . . . . . # r b 6X6XoX`.  ",
"  XXXX|.`.2 . . . . . . O o @ & = - 8 9 e q q q q q q q e 9 8 - = & @ o o . . . . . 7 r F 6XoXoX_.  ",
"  ^.|..X XA X . . . . . O * = 8 9 e q a u i i i t i i i u a q e 9 8 = @ o . . . . . W , `.oXoXoXF   ",
"  S .XXXoX[.> . . . . X O - 9 q a u t t L P P P P P P P L t t u a q 9 - # X . . . O ) V XXoXoX|.    ",
"     X0XeX6XM . . . X O $ e a u t L P I T R R R R R R R T I P L t i a e $ O X . . g h /.oXoXoX_.    ",
"    `.eXeXqX_.; . X # $ 5 r t L P T R Q Q ! ! ! ^ ! ! ! Q Q R T P L t r 5 $ # X O c B  XoXoXoXA     ",
"    Z 0XqXqXoXZ o # $ 5 6 y P T R Q ! ^ / / ] ] ] ] ] / / ^ ! Q R T P y 6 5 $ # 4 c _.oXoXoX`.      ",
"      .X7X8X6X|.n $ 5 6 y K T Q ! ^ / ] { } } } } } } } { ] / ^ ! Q T K y 6 5 $ j r.oXoXoXXXG       ",
"      m oX6XoXOX`.w 6 y K P R ^ / ] } } |  .o.o.o.o.o. .| } } ] / ^ Q P K y 6 9 B oXoXoXoX_.        ",
"        ^.XXXX+X+X(.d K P R ! ] [ |  .O.+.-.;.,.,.;.;.-.+.O. .| [ ] ! R P K i V XX5XoXoX XM         ",
"          _. X|.|. X(.` R ! ] } ' O.@.;.>.3.4.4.4.4.4.3.>.;.@.O.' } ] ! R E e.OX6XoXoXXXF           ",
"          v _.`._._.|.{.` ] | +.;.,.>.4.6.7.p.a.a.a.p.7.6.4.>.;.:.+.| ] ~ e.#X6XoXoXoX).            ",
"            N /.^.~.G ^.[.y.X.<.6.7.7.p.s.f.g.j.j.j.g.f.s.p.6.6.4.<.X.$.y.6X5XoXoXoX_.              ",
"              v F H S Z H [.{.q.h.l.l.g.j.l.z.x.x.x.z.l.j.g.g.g.a.0.y.{.6X5XoXoXoX`.                ",
"                2 m Z m B S (.}.C.m.K.L.S.b.N.N.N.N.M.v.v.B.K.b.m.@X6XoXoXoXoXXX_.                  ",
"                  1 v m A F G ^.].|.}.@X$XT.Y.I.I.I.P.R.T.F.@X@X7X6X5XoXoXoXXX/.                    ",
"                      v A H G m 1 D |.eXsXeX9X#X#X#X#X#X8X9X6XoXoXoXoXoXoX XZ                       ",
"                        b Z b 1 S `.qXdXzXzXdXwX0X6X6XoXoXoXoXoXoXoXoXXX/.                          ",
"                            + v  X6XdXkXzXdXsXqX8X6XoXoXoXoXoXoXoX X/.2                             ",
"                                M  X6XdXdXsXeX8X6XoXoXoXoXoX X).S                                   ",
"                                        N ~._.~.~.!.G !.S 1                                         "
};
