/* XPM */
static char * blue_01_xpm[] = {
"50 50 805 2",
"  	c #FFC589",
". 	c #FFC891",
"+ 	c #FFC994",
"@ 	c #FFC07B",
"# 	c #FFC78D",
"$ 	c #FDCEA0",
"% 	c #DACBC0",
"& 	c #A4A4A5",
"* 	c #838285",
"= 	c #7F7F82",
"- 	c #818084",
"; 	c #868589",
"> 	c #8C8C8F",
", 	c #919294",
"' 	c #97989A",
") 	c #9D9DA0",
"! 	c #A3A3A6",
"~ 	c #A4A4A7",
"{ 	c #A2A2A5",
"] 	c #9F9FA2",
"^ 	c #9B9B9E",
"/ 	c #99999D",
"( 	c #98989C",
"_ 	c #969699",
": 	c #919195",
"< 	c #8D8D91",
"[ 	c #88888C",
"} 	c #848487",
"| 	c #808084",
"1 	c #7C7C80",
"2 	c #78797C",
"3 	c #757579",
"4 	c #727276",
"5 	c #707074",
"6 	c #727275",
"7 	c #76767A",
"8 	c #818184",
"9 	c #8E8E91",
"0 	c #9D9EA0",
"a 	c #BDBDBF",
"b 	c #E2D8D0",
"c 	c #FDD9BA",
"d 	c #FFC384",
"e 	c #FFC27F",
"f 	c #FFC17D",
"g 	c #FFC17E",
"h 	c #FFC07A",
"i 	c #FFCA96",
"j 	c #E1CAB8",
"k 	c #808082",
"l 	c #7A7B7E",
"m 	c #78797D",
"n 	c #75767A",
"o 	c #727377",
"p 	c #707175",
"q 	c #737478",
"r 	c #76777B",
"s 	c #797A7E",
"t 	c #7C7D81",
"u 	c #7F8084",
"v 	c #828387",
"w 	c #85868A",
"x 	c #88898D",
"y 	c #8B8C90",
"z 	c #8E8F93",
"A 	c #919296",
"B 	c #949599",
"C 	c #97989C",
"D 	c #95969A",
"E 	c #929397",
"F 	c #8F9094",
"G 	c #8C8D91",
"H 	c #898A8E",
"I 	c #86878B",
"J 	c #838488",
"K 	c #808185",
"L 	c #7D7E82",
"M 	c #7A7B7F",
"N 	c #717276",
"O 	c #77787C",
"P 	c #7E7F83",
"Q 	c #999A9D",
"R 	c #D9CBC1",
"S 	c #FED3AD",
"T 	c #FFC17C",
"U 	c #FFC281",
"V 	c #ACACAC",
"W 	c #7C7D80",
"X 	c #7B7C80",
"Y 	c #727277",
"Z 	c #6E6E72",
"` 	c #6E6E71",
" .	c #747377",
"..	c #797A7D",
"+.	c #808183",
"@.	c #848588",
"#.	c #858689",
"$.	c #86878A",
"%.	c #87888B",
"&.	c #888A8D",
"*.	c #8A8B8E",
"=.	c #8C8D90",
"-.	c #8E8F92",
";.	c #909194",
">.	c #959599",
",.	c #919295",
"'.	c #8F9093",
").	c #8D8E91",
"!.	c #8B8C8F",
"~.	c #898A8C",
"{.	c #838587",
"].	c #7E7F82",
"^.	c #737377",
"/.	c #6F6F72",
"(.	c #717275",
"_.	c #818286",
":.	c #999A9E",
"<.	c #ACADAF",
"[.	c #FBCFA7",
"}.	c #FFC27E",
"|.	c #B5ADA9",
"1.	c #7E7F81",
"2.	c #6A6A6E",
"3.	c #3D3F51",
"4.	c #18234A",
"5.	c #2A3156",
"6.	c #3E4362",
"7.	c #545771",
"8.	c #696C81",
"9.	c #7C8092",
"0.	c #848799",
"a.	c #787B8E",
"b.	c #6C6E83",
"c.	c #5F6279",
"d.	c #525670",
"e.	c #454A67",
"f.	c #393E5F",
"g.	c #2C3358",
"h.	c #1F2852",
"i.	c #12204E",
"j.	c #1A2651",
"k.	c #293056",
"l.	c #373C5E",
"m.	c #545670",
"n.	c #61647B",
"o.	c #6F7286",
"p.	c #7D8092",
"q.	c #86899A",
"r.	c #7A7E90",
"s.	c #6C6F84",
"t.	c #5E6178",
"u.	c #50536E",
"v.	c #414664",
"w.	c #33395B",
"x.	c #293051",
"y.	c #3B3D4F",
"z.	c #6A6A6F",
"A.	c #9FA0A4",
"B.	c #A8A9AB",
"C.	c #FDCA98",
"D.	c #D3CDC9",
"E.	c #8E8E90",
"F.	c #929395",
"G.	c #8E8F91",
"H.	c #5C5E6D",
"I.	c #082669",
"J.	c #2B4289",
"K.	c #7885B3",
"L.	c #92A0C4",
"M.	c #99A8C9",
"N.	c #92A0C5",
"O.	c #7886B3",
"P.	c #2C4389",
"Q.	c #052568",
"R.	c #9F9FA1",
"S.	c #A5A6A8",
"T.	c #A9AAAD",
"U.	c #B6B7BA",
"V.	c #FFC78F",
"W.	c #FDD0A6",
"X.	c #929394",
"Y.	c #9FA0A2",
"Z.	c #9B9C9E",
"`.	c #A0A0A2",
" +	c #5E6074",
".+	c #012B7E",
"++	c #8393C3",
"@+	c #BDCEEF",
"#+	c #C2D5F6",
"$+	c #C3D6F8",
"%+	c #C3D6F9",
"&+	c #C2D6F7",
"*+	c #8495C4",
"=+	c #6A6D7E",
"-+	c #B7B8B9",
";+	c #B0B1B3",
">+	c #B2B3B5",
",+	c #E4D2C5",
"'+	c #D4CDC7",
")+	c #ABABAD",
"!+	c #A9A9AB",
"~+	c #A8A8AA",
"{+	c #8F9099",
"]+	c #012B7D",
"^+	c #96A8D4",
"/+	c #BED2F7",
"(+	c #BDD4FB",
"_+	c #A9ABB2",
":+	c #BABBBC",
"<+	c #BABBBD",
"[+	c #BDBEC0",
"}+	c #FECE9F",
"|+	c #B6B6B7",
"1+	c #B7B7B9",
"2+	c #B2B2B4",
"3+	c #BEBEC0",
"4+	c #21326B",
"5+	c #758ABF",
"6+	c #B9CFF6",
"7+	c #B9D0FA",
"8+	c #778AC0",
"9+	c #26366D",
"0+	c #CECED0",
"a+	c #BFC0C2",
"b+	c #C2C3C5",
"c+	c #F1E0D4",
"d+	c #ADADAF",
"e+	c #C1C1C3",
"f+	c #BCBCBE",
"g+	c #ADAFB4",
"h+	c #103383",
"i+	c #ABC1EB",
"j+	c #B3CDFA",
"k+	c #ACC1EA",
"l+	c #113484",
"m+	c #B4B5BB",
"n+	c #C0C1C3",
"o+	c #C9CACC",
"p+	c #DEDEDF",
"q+	c #C0C0C1",
"r+	c #CBCBCD",
"s+	c #C5C5C7",
"t+	c #A2A4AC",
"u+	c #5E70A7",
"v+	c #AEC8F3",
"w+	c #AFC9F9",
"x+	c #5F72A8",
"y+	c #A4A6AE",
"z+	c #CCCCCE",
"A+	c #D4D4D5",
"B+	c #C7C7C7",
"C+	c #D5D5D6",
"D+	c #CFCFD0",
"E+	c #9D9FAC",
"F+	c #7185B5",
"G+	c #AAC5F4",
"H+	c #A9C6F8",
"I+	c #7285B7",
"J+	c #9DA0AB",
"K+	c #BBBBBB",
"L+	c #CACACB",
"M+	c #D2D2D3",
"N+	c #C9C8C8",
"O+	c #DBDBDB",
"P+	c #D8D8D8",
"Q+	c #7085B6",
"R+	c #A5C1F4",
"S+	c #A4C3F9",
"T+	c #7186B7",
"U+	c #9EA1AB",
"V+	c #B6B6B6",
"W+	c #C6C6C6",
"X+	c #CCCBCB",
"Y+	c #C9C9C9",
"Z+	c #E1E1E1",
"`+	c #9D9FAB",
" @	c #6E82B6",
".@	c #A0BEF3",
"+@	c #A0C0F7",
"@@	c #6E83B7",
"#@	c #9EA0AB",
"$@	c #AFAFAF",
"%@	c #C0C0C0",
"&@	c #C3C3C3",
"*@	c #C9C8C9",
"=@	c #D9D9D9",
"-@	c #E4E4E5",
";@	c #6A7FB4",
">@	c #9BBAF2",
",@	c #9BBCF7",
"'@	c #9BBBF2",
")@	c #6A80B5",
"!@	c #A6A6A6",
"~@	c #B8B8B8",
"{@	c #BABABA",
"]@	c #C8C8C8",
"^@	c #D5D5D5",
"/@	c #E2E2E3",
"(@	c #667DB3",
"_@	c #96B7F2",
":@	c #96B9F8",
"<@	c #667EB5",
"[@	c #9C9C9C",
"}@	c #AEAEAE",
"|@	c #B0B0B0",
"1@	c #D2D2D2",
"2@	c #DFDFDF",
"3@	c #637AB3",
"4@	c #91B4F0",
"5@	c #90B6F5",
"6@	c #91B4F1",
"7@	c #647BB4",
"8@	c #969595",
"9@	c #A7A7A7",
"0@	c #A8A7A8",
"a@	c #D0D0D0",
"b@	c #DCDCDC",
"c@	c #5F78B2",
"d@	c #8CB0F0",
"e@	c #8CB2F7",
"f@	c #8CB1F0",
"g@	c #6079B3",
"h@	c #959293",
"i@	c #A4A3A4",
"j@	c #A4A4A4",
"k@	c #CCCCCC",
"l@	c #CFCFCF",
"m@	c #5B75B1",
"n@	c #88ADF0",
"o@	c #88AFF5",
"p@	c #87ADF0",
"q@	c #5C76B2",
"r@	c #979596",
"s@	c #A3A2A2",
"t@	c #A2A2A2",
"u@	c #DADBDB",
"v@	c #5873B0",
"w@	c #82A9EF",
"x@	c #82ACF6",
"y@	c #5974B1",
"z@	c #A2A0A1",
"A@	c #A4A2A3",
"B@	c #D4D4D4",
"C@	c #DADADA",
"D@	c #5570AF",
"E@	c #7EA6EF",
"F@	c #7EA9F6",
"G@	c #5571B0",
"H@	c #AFADAE",
"I@	c #A9A7A8",
"J@	c #D1D1D1",
"K@	c #516EAE",
"L@	c #79A3EE",
"M@	c #78A5F6",
"N@	c #526FAF",
"O@	c #B8B7B7",
"P@	c #B1B0B1",
"Q@	c #CDCCCC",
"R@	c #CECECE",
"S@	c #D7D7D7",
"T@	c #4E6CAD",
"U@	c #73A0ED",
"V@	c #74A2F4",
"W@	c #4E6CAE",
"X@	c #C2C0C1",
"Y@	c #BBB9BA",
"Z@	c #AAA8A9",
"`@	c #D6D6D6",
" #	c #4B69AD",
".#	c #6F9CED",
"+#	c #6E9FF4",
"@#	c #4A6AAD",
"##	c #CAC9C9",
"$#	c #C4C3C4",
"%#	c #B3B3B3",
"&#	c #4767AC",
"*#	c #6A99EC",
"=#	c #699CF5",
"-#	c #BDBCBD",
";#	c #C5C5C5",
">#	c #4464AB",
",#	c #6496EB",
"'#	c #6598F4",
")#	c #6496EC",
"!#	c #4464AC",
"~#	c #9DA1AB",
"{#	c #D9D9D8",
"]#	c #C6C5C5",
"^#	c #8D8C8C",
"/#	c #9C9EAA",
"(#	c #4061A9",
"_#	c #5F91E9",
":#	c #5F93F1",
"<#	c #4062A9",
"[#	c #DDDDDD",
"}#	c #BFBFBF",
"|#	c #9A9999",
"1#	c #646464",
"2#	c #5A5A5A",
"3#	c #656565",
"4#	c #999CA8",
"5#	c #2E51A0",
"6#	c #5185E3",
"7#	c #598FEE",
"8#	c #588EEE",
"9#	c #5387E4",
"0#	c #2F53A1",
"a#	c #9D9FAA",
"b#	c #757574",
"c#	c #777676",
"d#	c #5C5C5C",
"e#	c #535353",
"f#	c #595959",
"g#	c #9699A6",
"h#	c #013494",
"i#	c #014ED7",
"j#	c #1B5CE5",
"k#	c #346DE6",
"l#	c #437AE8",
"m#	c #4E84E9",
"n#	c #5288E9",
"o#	c #5288EA",
"p#	c #4F85E9",
"q#	c #457BE8",
"r#	c #3770E6",
"s#	c #205FE6",
"t#	c #014ED8",
"u#	c #013495",
"v#	c #9DA0AA",
"w#	c #6A6A6A",
"x#	c #626262",
"y#	c #797979",
"z#	c #555555",
"A#	c #4E4D4E",
"B#	c #4F4F50",
"C#	c #9396A4",
"D#	c #013392",
"E#	c #004CD4",
"F#	c #0051E0",
"G#	c #0052E0",
"H#	c #1659E1",
"I#	c #2B65E3",
"J#	c #376FE3",
"K#	c #3F76E5",
"L#	c #457CE6",
"M#	c #4B82E7",
"N#	c #4B83E7",
"O#	c #4C83E7",
"P#	c #467DE5",
"Q#	c #4077E5",
"R#	c #3870E4",
"S#	c #2D67E2",
"T#	c #1B5BE1",
"U#	c #0151E1",
"V#	c #004DD4",
"W#	c #003493",
"X#	c #6B6A6A",
"Y#	c #616161",
"Z#	c #7D7D7D",
"`#	c #515050",
" $	c #4D4B4C",
".$	c #494949",
"+$	c #9093A1",
"@$	c #003390",
"#$	c #014BD0",
"$$	c #0050DC",
"%$	c #014FDC",
"&$	c #1156DD",
"*$	c #1F5CDD",
"=$	c #2662DD",
"-$	c #2B65DD",
";$	c #2D67DE",
">$	c #316BDF",
",$	c #366EDF",
"'$	c #376EDF",
")$	c #386EE0",
"!$	c #366EDE",
"~$	c #326BDF",
"{$	c #2E68DF",
"]$	c #2C66DD",
"^$	c #2763DD",
"/$	c #205CDD",
"($	c #1557DD",
"_$	c #004FDC",
":$	c #004BD0",
"<$	c #003290",
"[$	c #9D9FA9",
"}$	c #6D6D6C",
"|$	c #636363",
"1$	c #828282",
"2$	c #4F4E4F",
"3$	c #484748",
"4$	c #8B8F9F",
"5$	c #00328E",
"6$	c #0049CB",
"7$	c #004DD7",
"8$	c #0049CC",
"9$	c #717171",
"0$	c #666666",
"a$	c #888888",
"b$	c #504E4F",
"c$	c #494749",
"d$	c #878B9C",
"e$	c #00318B",
"f$	c #0048C7",
"g$	c #004CD3",
"h$	c #0047C8",
"i$	c #9C9FA8",
"j$	c #777777",
"k$	c #6C6B6B",
"l$	c #909090",
"m$	c #585758",
"n$	c #555354",
"o$	c #4C4B4C",
"p$	c #828697",
"q$	c #013088",
"r$	c #0146C3",
"s$	c #004ACC",
"t$	c #0046C3",
"u$	c #003089",
"v$	c #9B9EA9",
"w$	c #7E7F7E",
"x$	c #727272",
"y$	c #989898",
"z$	c #626061",
"A$	c #5D5B5C",
"B$	c #525052",
"C$	c #7C8194",
"D$	c #002F85",
"E$	c #0144BD",
"F$	c #0148C8",
"G$	c #0144BE",
"H$	c #002F86",
"I$	c #9A9DA8",
"J$	c #888887",
"K$	c #7B7B7B",
"L$	c #6D6D6D",
"M$	c #666465",
"N$	c #59585A",
"O$	c #797E91",
"P$	c #012E83",
"Q$	c #0042B9",
"R$	c #0045C3",
"S$	c #002E83",
"T$	c #939393",
"U$	c #868686",
"V$	c #9D9D9D",
"W$	c #727171",
"X$	c #646264",
"Y$	c #73798D",
"Z$	c #002D7F",
"`$	c #0040B4",
" %	c #0044BD",
".%	c #002D80",
"+%	c #999BA7",
"@%	c #A1A1A0",
"#%	c #9F9F9F",
"$%	c #8B8B8B",
"%%	c #808080",
"&%	c #706F70",
"*%	c #6D7389",
"=%	c #002C7D",
"-%	c #003EAE",
";%	c #0042B7",
">%	c #9799A5",
",%	c #A5A5A5",
"'%	c #929091",
")%	c #7F7E7F",
"!%	c #676E84",
"~%	c #002A79",
"{%	c #003CA8",
"]%	c #0140B1",
"^%	c #013CA9",
"/%	c #002B79",
"(%	c #9799A4",
"_%	c #C1C1C1",
":%	c #ADADAD",
"<%	c #B1B1B1",
"[%	c #A5A4A4",
"}%	c #918F91",
"|%	c #626981",
"1%	c #002976",
"2%	c #0139A3",
"3%	c #003CAB",
"4%	c #013AA3",
"5%	c #012976",
"6%	c #9598A3",
"7%	c #C7C6C7",
"8%	c #BAB9BA",
"9%	c #A5A3A4",
"0%	c #5C647C",
"a%	c #002873",
"b%	c #01389D",
"c%	c #003AA5",
"d%	c #00389D",
"e%	c #9597A2",
"f%	c #EAEAEA",
"g%	c #C8C7C7",
"h%	c #B2B1B1",
"i%	c #5B6379",
"j%	c #00256B",
"k%	c #003494",
"l%	c #01389F",
"m%	c #A3A4AC",
"n%	c #F3F3F3",
"o%	c #E5E5E5",
"p%	c #747987",
"q%	c #00205E",
"r%	c #002D83",
"s%	c #003598",
"t%	c #003699",
"u%	c #BABBC0",
"v%	c #E4E4E3",
"w%	c #E0E0E0",
"x%	c #BEBEBE",
"y%	c #E4E4E4",
"z%	c #B2B2B2",
"A%	c #8F9299",
"B%	c #182753",
"C%	c #00256C",
"D%	c #003088",
"E%	c #003491",
"F%	c #003490",
"G%	c #373F5F",
"H%	c #CFD0D1",
"I%	c #CDCDCD",
"J%	c #FAE0CA",
"K%	c #C4C4C4",
"L%	c #575D70",
"M%	c #001C55",
"N%	c #00256D",
"O%	c #002D82",
"P%	c #00318A",
"Q%	c #01266D",
"R%	c #011D55",
"S%	c #A8A9AE",
"T%	c #BDBDBD",
"U%	c #ABABAB",
"V%	c #9A9A9A",
"W%	c #3E455D",
"X%	c #001B52",
"Y%	c #002263",
"Z%	c #002771",
"`%	c #002A7A",
" &	c #002B7C",
".&	c #012B7C",
"+&	c #011C52",
"@&	c #767881",
"#&	c #999999",
"$&	c #959595",
"%&	c #A1A1A1",
"&&	c #A1A0A0",
"*&	c #FDE2CB",
"=&	c #FEDFC6",
"-&	c #969696",
";&	c #878787",
">&	c #767678",
",&	c #4C4F5E",
"'&	c #091D49",
")&	c #011B51",
"!&	c #001D58",
"~&	c #001E5A",
"{&	c #001F5A",
"]&	c #011B52",
"^&	c #152249",
"/&	c #5C5D65",
"(&	c #767676",
"_&	c #E0DFDF",
":&	c #FFC485",
"<&	c #F8ECE3",
"[&	c #838383",
"}&	c #757575",
"|&	c #676767",
"1&	c #575759",
"2&	c #383944",
"3&	c #24273B",
"4&	c #303245",
"5&	c #434454",
"6&	c #575965",
"7&	c #6C6E78",
"8&	c #83858D",
"9&	c #8B8D95",
"0&	c #80818A",
"a&	c #75767F",
"b&	c #6A6B76",
"c&	c #60616D",
"d&	c #585965",
"e&	c #51525F",
"f&	c #4A4B59",
"g&	c #3F4050",
"h&	c #363849",
"i&	c #37384A",
"j&	c #3E3F4F",
"k&	c #464856",
"l&	c #515360",
"m&	c #5D5F6A",
"n&	c #6A6B75",
"o&	c #777881",
"p&	c #84858E",
"q&	c #8D8F97",
"r&	c #70727C",
"s&	c #62636E",
"t&	c #535461",
"u&	c #444555",
"v&	c #37394A",
"w&	c #2E3041",
"x&	c #2E2E38",
"y&	c #454345",
"z&	c #545253",
"A&	c #5D5D5D",
"B&	c #696969",
"C&	c #FFD2A9",
"D&	c #FEC995",
"E&	c #F7D8BE",
"F&	c #AAAAAA",
"G&	c #707070",
"H&	c #575757",
"I&	c #4C4B4B",
"J&	c #403E3F",
"K&	c #343233",
"L&	c #282627",
"M&	c #1C1A1B",
"N&	c #171516",
"O&	c #232122",
"P&	c #302E2F",
"Q&	c #3D3C3C",
"R&	c #4B494A",
"S&	c #7F7F7F",
"T&	c #737373",
"U&	c #6B6B6B",
"V&	c #525252",
"W&	c #4B4A4A",
"X&	c #434242",
"Y&	c #3B393A",
"Z&	c #333132",
"`&	c #2B292A",
" *	c #1B191A",
".*	c #151314",
"+*	c #1A191A",
"@*	c #2C2A2B",
"#*	c #353334",
"$*	c #3D3C3D",
"%*	c #464445",
"&*	c #4F4E4E",
"**	c #545353",
"=*	c #BCBBBB",
"-*	c #FEC891",
";*	c #FFC280",
">*	c #FEC383",
",*	c #FEC181",
"'*	c #F3C9A1",
")*	c #C2C2C3",
"!*	c #848484",
"~*	c #545454",
"{*	c #494849",
"]*	c #3F3D3E",
"^*	c #292829",
"/*	c #1F1D1E",
"(*	c #191718",
"_*	c #242223",
":*	c #2F2E2F",
"<*	c #3B3A3A",
"[*	c #474646",
"}*	c #5E5E5E",
"|*	c #787878",
"1*	c #4D4D4D",
"2*	c #474546",
"3*	c #383738",
"4*	c #313030",
"5*	c #2A2929",
"6*	c #131112",
"7*	c #2A2829",
"8*	c #323031",
"9*	c #413F40",
"0*	c #BDBEBE",
"a*	c #F1CEAF",
"b*	c #F9C28A",
"c*	c #DECCBF",
"d*	c #A2A2A3",
"e*	c #797878",
"f*	c #5E5D5D",
"g*	c #454444",
"h*	c #353233",
"i*	c #312F30",
"j*	c #343333",
"k*	c #4D4C4C",
"l*	c #686868",
"m*	c #767576",
"n*	c #7D7C7D",
"o*	c #848384",
"p*	c #8D8C8D",
"q*	c #A0A0A1",
"r*	c #A7A6A7",
"s*	c #9E9E9E",
"t*	c #8C8C8C",
"u*	c #848383",
"v*	c #7C7B7C",
"w*	c #737272",
"x*	c #606060",
"y*	c #777778",
"z*	c #949496",
"A*	c #B4B5B8",
"B*	c #CECFD2",
"C*	c #F4C8A0",
"D*	c #FFC382",
"  . + @ # $ % & * = - ; > , ' ) ! ~ { ] ) ^ / ( _ : < [ } | 1 2 3 4 5 5 6 7 8 9 0 a b c d @ @ e f e ",
"e g h i j k l m n o p p q r s t u v w x y z A B C D E F G H I J K L M r q p N O P w G Q R S @ f T e ",
"T h U V W u X m n Y Z `  ...+.@.#.$.%.&.*.=.-.;.E >.E ,.'.).=.!.*.~.{.].2 ^./.(.s _.H E :.<.[.T @ f ",
"h }.|.w I v 1.2.3.4.5.6.7.8.9.0.a.b.c.d.e.f.g.h.i.j.k.l.e.m.n.o.p.q.r.s.t.u.v.w.x.y.z.z :.A.B.C.@ h ",
"@ D.E.F.G.E.H.I.J.K.L.M.M.M.M.M.M.M.M.M.M.M.M.M.M.M.M.M.M.M.M.M.M.M.M.M.M.M.M.N.O.P.Q.H.R.S.T.U.V.h ",
"W.X.Y.Z.`. +.+++@+#+$+%+%+%+%+%+%+%+%+%+%+%+%+%+%+%+%+%+%+%+%+%+%+%+%+%+%+%+%+$+&+@+*+.+=+-+;+>+,+g ",
"'+)+!+~+{+]+^+/+(+(+(+(+(+(+(+(+(+(+(+(+(+(+(+(+(+(+(+(+(+(+(+(+(+(+(+(+(+(+(+(+(+(+/+^+]+_+:+<+[+}+",
"|+1+2+3+4+5+6+7+7+7+7+7+7+7+7+7+7+7+7+7+7+7+7+7+7+7+7+7+7+7+7+7+7+7+7+7+7+7+7+7+7+7+7+6+8+9+0+a+b+c+",
"d+e+f+g+h+i+j+j+j+j+j+j+j+j+j+j+j+j+j+j+j+j+j+j+j+j+j+j+j+j+j+j+j+j+j+j+j+j+j+j+j+j+j+j+k+l+m+n+o+p+",
"q+r+s+t+u+v+w+w+w+w+w+w+w+w+w+w+w+w+w+w+w+w+w+w+w+w+w+w+w+w+w+w+w+w+w+w+w+w+w+w+w+w+w+w+v+x+y+3+z+A+",
"B+C+D+E+F+G+H+H+H+H+H+H+H+H+H+H+H+H+H+H+H+H+H+H+H+H+H+H+H+H+H+H+H+H+H+H+H+H+H+H+H+H+H+H+G+I+J+K+L+M+",
"N+O+P+E+Q+R+S+S+S+S+S+S+S+S+S+S+S+S+S+S+S+S+S+S+S+S+S+S+S+S+S+S+S+S+S+S+S+S+S+S+S+S+S+S+R+T+U+V+W+X+",
"Y+O+Z+`+ @.@+@+@+@+@+@+@+@+@+@+@+@+@+@+@+@+@+@+@+@+@+@+@+@+@+@+@+@+@+@+@+@+@+@+@+@+@+@+@.@@@#@$@%@&@",
"*@=@-@`+;@>@,@,@,@,@,@,@,@,@,@,@,@,@,@,@,@,@,@,@,@,@,@,@,@,@,@,@,@,@,@,@,@,@,@,@,@,@,@,@'@)@#@!@~@{@",
"]@^@/@`+(@_@:@:@:@:@:@:@:@:@:@:@:@:@:@:@:@:@:@:@:@:@:@:@:@:@:@:@:@:@:@:@:@:@:@:@:@:@:@:@_@<@J+[@}@|@",
"B+1@2@E+3@4@5@5@5@5@5@5@5@5@5@5@5@5@5@5@5@5@5@5@5@5@5@5@5@5@5@5@5@5@5@5@5@5@5@5@5@5@5@5@6@7@#@8@9@0@",
"Y+a@b@E+c@d@e@e@e@e@e@e@e@e@e@e@e@e@e@e@e@e@e@e@e@e@e@e@e@e@e@e@e@e@e@e@e@e@e@e@e@e@e@e@f@g@#@h@i@j@",
"k@l@O+E+m@n@o@o@o@o@o@o@o@o@o@o@o@o@o@o@o@o@o@o@o@o@o@o@o@o@o@o@o@o@o@o@o@o@o@o@o@o@o@o@p@q@#@r@s@t@",
"a@a@u@E+v@w@x@x@x@x@x@x@x@x@x@x@x@x@x@x@x@x@x@x@x@x@x@x@x@x@x@x@x@x@x@x@x@x@x@x@x@x@x@x@w@y@J+z@A@t@",
"B@a@C@E+D@E@F@F@F@F@F@F@F@F@F@F@F@F@F@F@F@F@F@F@F@F@F@F@F@F@F@F@F@F@F@F@F@F@F@F@F@F@F@F@E@G@J+H@I@A@",
"J@l@P+E+K@L@M@M@M@M@M@M@M@M@M@M@M@M@M@M@M@M@M@M@M@M@M@M@M@M@M@M@M@M@M@M@M@M@M@M@M@M@M@M@L@N@J+O@P@A@",
"Q@R@S@E+T@U@V@V@V@V@V@V@V@V@V@V@V@V@V@V@V@V@V@V@V@V@V@V@V@V@V@V@V@V@V@V@V@V@V@V@V@V@V@V@U@W@#@X@Y@Z@",
"*@R@`@E+ #.#+#+#+#+#+#+#+#+#+#+#+#+#+#+#+#+#+#+#+#+#+#+#+#+#+#+#+#+#+#+#+#+#+#+#+#+#+#+#.#@#U+##$#%#",
"W+a@S@E+&#*#=#=#=#=#=#=#=#=#=#=#=#=#=#=#=#=#=#=#=#=#=#=#=#=#=#=#=#=#=#=#=#=#=#=#=#=#=#=#*#&##@J@k@-#",
";#1@P+E+>#,#'#'#'#'#'#'#'#'#'#'#'#'#'#'#'#'#'#'#'#'#'#'#'#'#'#'#'#'#'#'#'#'#'#'#'#'#'#'#)#!#~#{#B@]#",
"^#%#A+/#(#_#:#:#:#:#:#:#:#:#:#:#:#:#:#:#:#:#:#:#:#:#:#:#:#:#:#:#:#:#:#:#:#:#:#:#:#:#:#:#_#<##@[#}#|#",
"1#2#3#4#5#6#7#8#8#8#8#8#8#8#8#8#8#8#8#8#8#8#8#8#8#8#8#8#8#8#8#8#8#8#8#8#8#8#8#8#8#8#8#8#9#0#a#b#3#c#",
"d#e#f#g#h#i#j#k#l#m#n#n#n#n#n#n#n#n#n#n#n#n#n#n#n#n#n#n#n#n#n#n#n#n#n#n#n#n#n#o#p#q#r#s#t#u#v#w#x#y#",
"z#A#B#C#D#E#F#F#G#F#H#I#J#K#L#M#N#O#O#O#O#O#O#O#O#O#O#O#O#O#O#O#O#O#O#P#Q#R#S#T#U#G#F#F#V#W#a#X#Y#Z#",
"`# $.$+$@$#$$$$$$$$$$$$$$$$$$$%$&$*$=$-$;$>$,$'$)$)$'$!$~${$]$^$/$($%$_$$$$$$$$$$$$$$$$$:$<$[$}$|$1$",
"2$ $3$4$5$6$7$7$7$7$7$7$7$7$7$7$7$7$7$7$7$7$7$7$7$7$7$7$7$7$7$7$7$7$7$7$7$7$7$7$7$7$7$7$8$5$[$9$0$a$",
"`#b$c$d$e$f$g$g$g$g$g$g$g$g$g$g$g$g$g$g$g$g$g$g$g$g$g$g$g$g$g$g$g$g$g$g$g$g$g$g$g$g$g$g$h$e$i$j$k$l$",
"m$n$o$p$q$r$s$s$s$s$s$s$s$s$s$s$s$s$s$s$s$s$s$s$s$s$s$s$s$s$s$s$s$s$s$s$s$s$s$s$s$s$s$s$t$u$v$w$x$y$",
"z$A$B$C$D$E$F$F$F$F$F$F$F$F$F$F$F$F$F$F$F$F$F$F$F$F$F$F$F$F$F$F$F$F$F$F$F$F$F$F$F$F$F$F$G$H$I$J$K$[@",
"L$M$N$O$P$Q$R$R$R$R$R$R$R$R$R$R$R$R$R$R$R$R$R$R$R$R$R$R$R$R$R$R$R$R$R$R$R$R$R$R$R$R$R$R$Q$S$4#T$U$V$",
"K$W$X$Y$Z$`$ % % % % % % % % % % % % % % % % % % % % % % % % % % % % % % % % % % % % % %`$.%+%@%T$#%",
"$%%%&%*%=%-%;%;%;%;%;%;%;%;%;%;%;%;%;%;%;%;%;%;%;%;%;%;%;%;%;%;%;%;%;%;%;%;%;%;%;%;%;%;%-%=%>%|@t@,%",
"V$'%)%!%~%{%]%]%]%]%]%]%]%]%]%]%]%]%]%]%]%]%]%]%]%]%]%]%]%]%]%]%]%]%]%]%]%]%]%]%]%]%]%]%^%/%(%_%%#:%",
"<%[%}%|%1%2%3%3%3%3%3%3%3%3%3%3%3%3%3%3%3%3%3%3%3%3%3%3%3%3%3%3%3%3%3%3%3%3%3%3%3%3%3%3%4%5%6%^@;#O@",
"7%8%9%0%a%b%c%c%c%c%c%c%c%c%c%c%c%c%c%c%c%c%c%c%c%c%c%c%c%c%c%c%c%c%c%c%c%c%c%c%c%c%c%c%d%a%e%f%C@;#",
"1@g%h%i%j%k%l%l%l%l%l%l%l%l%l%l%l%l%l%l%l%l%l%l%l%l%l%l%l%l%l%l%l%l%l%l%l%l%l%l%l%l%l%l%k%j%m%n%o%N+",
"`@B+%#p%q%r%s%t%t%t%t%t%t%t%t%t%t%t%t%t%t%t%t%t%t%t%t%t%t%t%t%t%t%t%t%t%t%t%t%t%t%t%t%s%r%q%u%v%w%x%",
"y%;#z%A%B%C%D%E%F%F%F%F%F%F%F%F%F%F%F%F%F%F%F%F%F%F%F%F%F%F%F%F%F%F%F%F%F%F%F%F%F%F%E%D%C%G%H%I%`@;#",
"J%K%$@V$L%M%N%O%P%e$e$e$e$e$e$e$e$e$e$e$e$e$e$e$e$e$e$e$e$e$e$e$e$e$e$e$e$e$e$e$e$P%O%Q%R%S%V V+T%=@",
". b@U%V%@.W%X%Y%Z%`% &.&.&.&.&.&.&.&.&.&.&.&.&.&.&.&.&.&.&.&.&.&.&.&.&.&.&.&.& &~%Z%Y%+&@&#&$&%&&&*&",
"T =&T%-&;&>&,&'&)&!&~&{&{&{&{&{&{&{&{&{&{&{&{&{&{&{&{&{&{&{&{&{&{&{&{&{&{&{&{&~&!&]&^&/&(&j$1$%%_&+ ",
"@ :&<&!@[&}&|&1&2&3&4&5&6&7&8&9&0&a&b&c&d&e&f&g&h&i&j&k&l&m&n&o&p&q&0&r&s&t&u&v&w&x&y&z&A&0$B&;#C&f ",
"h f D&E&F&G&1#H&I&J&K&L&M&N&O&P&Q&R&H&1#9$S&a$[&K$T&U&x#2#V&W&X&Y&Z&`&O& *.*+*O&@*#*$*%*&***=*-*@ ;*",
"h T >*,*'*)*!*~*{*]*K&^*/*.*(*_*:*<*[*V&}*B&}&|*9$w#|$d#~*1*2*J&3*4*5*O&M&.*6* *O&7*8*9*&%0*a*@ f T ",
"@ U ;*f @ b*c*a+d*;&e*U&f*`#g*<*h*i*j*J&k*2#l*m*n*o*p*-&q*F&V r*s*$&t*u*v*w*X#|$x*y*z*A*B*C*@ h h D*"};
