/* XPM */
static char * blue_01_xpm[] = {
"50 50 633 2",
"  	c #E1C1A6",
". 	c #F2C497",
"+ 	c #FEC58B",
"@ 	c #DBCDC5",
"# 	c #B3B2B2",
"$ 	c #9D9C9B",
"% 	c #9E9E9C",
"& 	c #ACACAD",
"* 	c #ADADAC",
"= 	c #A1A2A0",
"- 	c #969795",
"; 	c #979796",
"> 	c #A7A7A6",
", 	c #ACADAB",
"' 	c #ACACAB",
") 	c #969796",
"! 	c #969695",
"~ 	c #9C9D9B",
"{ 	c #A2A3A1",
"] 	c #979896",
"^ 	c #ABABAA",
"/ 	c #999998",
"( 	c #ADADAB",
"_ 	c #AAAAA8",
": 	c #B3B3B3",
"< 	c #D7CBC0",
"[ 	c #FCCA9A",
"} 	c #FEC07C",
"| 	c #FAC48C",
"1 	c #EFC195",
"2 	c #FDC282",
"3 	c #ECC5A2",
"4 	c #505058",
"5 	c #020362",
"6 	c #020389",
"7 	c #000193",
"8 	c #010192",
"9 	c #010193",
"0 	c #010194",
"a 	c #010093",
"b 	c #000093",
"c 	c #010189",
"d 	c #040463",
"e 	c #58575E",
"f 	c #ECBC8E",
"g 	c #FDC17F",
"h 	c #FEC484",
"i 	c #E0C4AD",
"j 	c #27274C",
"k 	c #0201AB",
"l 	c #0304E4",
"m 	c #2E31EF",
"n 	c #6C73EF",
"o 	c #828AED",
"p 	c #8B92EC",
"q 	c #8C93EC",
"r 	c #8D94ED",
"s 	c #8F94EA",
"t 	c #9196EC",
"u 	c #9196EB",
"v 	c #9298E9",
"w 	c #9298E8",
"x 	c #9399EA",
"y 	c #959BE9",
"z 	c #969DEA",
"A 	c #999FE7",
"B 	c #9AA1E8",
"C 	c #9BA1E9",
"D 	c #9BA1E7",
"E 	c #9CA2E8",
"F 	c #9CA2E7",
"G 	c #9CA3E6",
"H 	c #9DA4E8",
"I 	c #9FA5E8",
"J 	c #9FA5E7",
"K 	c #9FA4E8",
"L 	c #9FA4E7",
"M 	c #A1A6E7",
"N 	c #A1A6E6",
"O 	c #9EA3E7",
"P 	c #8E97EA",
"Q 	c #6F76ED",
"R 	c #2829E4",
"S 	c #0403A9",
"T 	c #212149",
"U 	c #E0B892",
"V 	c #E0C0A5",
"W 	c #484953",
"X 	c #0202A5",
"Y 	c #1214EF",
"Z 	c #9097EF",
"` 	c #C3CBE2",
" .	c #C6CDDD",
"..	c #C5CAE0",
"+.	c #C4CADF",
"@.	c #C4CAE0",
"#.	c #C2CADE",
"$.	c #C2CBDE",
"%.	c #C3CBDF",
"&.	c #C2CADF",
"*.	c #C3CBE0",
"=.	c #C3CBE1",
"-.	c #C3CADF",
";.	c #C3CBDE",
">.	c #C3CAE1",
",.	c #C4CBE1",
"'.	c #C4CAE1",
").	c #C7CDDE",
"!.	c #C0C8E3",
"~.	c #8388E6",
"{.	c #0708A3",
"].	c #AA8668",
"^.	c #9A9A9A",
"/.	c #020263",
"(.	c #0302E0",
"_.	c #8289EB",
":.	c #BAC1E3",
"<.	c #BAC0E1",
"[.	c #B9C0E0",
"}.	c #BAC0E0",
"|.	c #B9C0E1",
"1.	c #BAC1E4",
"2.	c #6D74D3",
"3.	c #030366",
"4.	c #7D7D7C",
"5.	c #1618EA",
"6.	c #A7AEEA",
"7.	c #AEB4E3",
"8.	c #AFB5E4",
"9.	c #AFB5E3",
"0.	c #989DE3",
"a.	c #03047E",
"b.	c #727272",
"c.	c #00018F",
"d.	c #4548E7",
"e.	c #A5ACEB",
"f.	c #A4AAE4",
"g.	c #A3AAE4",
"h.	c #99A0E6",
"i.	c #0C0D86",
"j.	c #757675",
"k.	c #000191",
"l.	c #585DE3",
"m.	c #999EEA",
"n.	c #989EE5",
"o.	c #9096E7",
"p.	c #727173",
"q.	c #010091",
"r.	c #595DE9",
"s.	c #8E94EA",
"t.	c #8E94E7",
"u.	c #8E94E8",
"v.	c #8E93E9",
"w.	c #8E94E6",
"x.	c #8E93E8",
"y.	c #8489E8",
"z.	c #070685",
"A.	c #717070",
"B.	c #010190",
"C.	c #5357EA",
"D.	c #8489EB",
"E.	c #8489EA",
"F.	c #848AE9",
"G.	c #8489E9",
"H.	c #858AEA",
"I.	c #8186ED",
"J.	c #5156EC",
"K.	c #01028D",
"L.	c #68686A",
"M.	c #474BE6",
"N.	c #797EEB",
"O.	c #797DEB",
"P.	c #7A7DEB",
"Q.	c #787EEA",
"R.	c #787EEB",
"S.	c #797DEA",
"T.	c #7A7EEB",
"U.	c #7A7EEC",
"V.	c #6F75ED",
"W.	c #656AF1",
"X.	c #5C61F3",
"Y.	c #5458F6",
"Z.	c #4D50F8",
"`.	c #484CF8",
" +	c #4649F8",
".+	c #4446F8",
"++	c #4346F8",
"@+	c #4548F8",
"#+	c #464AF7",
"$+	c #4B4DF8",
"%+	c #4649F9",
"&+	c #1616FA",
"*+	c #0001F7",
"=+	c #616262",
"-+	c #3B3CE7",
";+	c #7173F0",
">+	c #6E72ED",
",+	c #6E72EC",
"'+	c #6D72EB",
")+	c #6D73EE",
"!+	c #6469F2",
"~+	c #4649F6",
"{+	c #1B1BF9",
"]+	c #0303FD",
"^+	c #0102FD",
"/+	c #0101FD",
"(+	c #0001FD",
"_+	c #0101FE",
":+	c #0001FE",
"<+	c #616162",
"[+	c #2D2FE9",
"}+	c #6569F2",
"|+	c #6467EF",
"1+	c #6467F0",
"2+	c #6367EE",
"3+	c #6468F0",
"4+	c #474BF5",
"5+	c #0707FC",
"6+	c #0000FE",
"7+	c #2121EC",
"8+	c #5B5DF4",
"9+	c #5A5DF2",
"0+	c #5A5DF1",
"a+	c #5A5CF2",
"b+	c #595DF1",
"c+	c #3D41F8",
"d+	c #0102FB",
"e+	c #6C6B6B",
"f+	c #1314EE",
"g+	c #5054F4",
"h+	c #4E51F2",
"i+	c #4F51F5",
"j+	c #4F51F2",
"k+	c #4F51F4",
"l+	c #4F51F3",
"m+	c #4F50F4",
"n+	c #393DF8",
"o+	c #0202FB",
"p+	c #0100FE",
"q+	c #6E6D6E",
"r+	c #01018F",
"s+	c #0404F3",
"t+	c #2529FB",
"u+	c #3133F7",
"v+	c #393DF6",
"w+	c #4145F5",
"x+	c #4447F4",
"y+	c #4446F4",
"z+	c #4247F4",
"A+	c #4547F4",
"B+	c #3C3EF7",
"C+	c #2223FC",
"D+	c #0102FC",
"E+	c #6F6E6E",
"F+	c #0001F6",
"G+	c #0505FC",
"H+	c #1A1DFB",
"I+	c #2B2DFA",
"J+	c #3438F7",
"K+	c #393CF7",
"L+	c #3A3DF5",
"M+	c #3B3CF6",
"N+	c #3A3AF5",
"O+	c #3A3BF6",
"P+	c #3A3AF7",
"Q+	c #3A3AF6",
"R+	c #393AF6",
"S+	c #3A3CF5",
"T+	c #3A3CF4",
"U+	c #383BF7",
"V+	c #3233F8",
"W+	c #2528FA",
"X+	c #1010FC",
"Y+	c #0707FD",
"Z+	c #1415FD",
"`+	c #1B1DFB",
" @	c #1F22FB",
".@	c #2124FC",
"+@	c #2226F9",
"@@	c #2527FA",
"#@	c #2728F9",
"$@	c #2627FA",
"%@	c #2023FB",
"&@	c #1719FC",
"*@	c #0606FD",
"=@	c #606163",
"-@	c #010191",
";@	c #606162",
">@	c #616263",
",@	c #636466",
"'@	c #6F6D6E",
")@	c #0001F5",
"!@	c #686767",
"~@	c #616163",
"{@	c #020191",
"]@	c #6B6B6D",
"^@	c #6D6D6E",
"/@	c #626264",
"(@	c #646464",
"_@	c #6E6E6E",
":@	c #0000FD",
"<@	c #0304FD",
"[@	c #0B0CFD",
"}@	c #1213FC",
"|@	c #1717FC",
"1@	c #0D10FB",
"2@	c #686869",
"3@	c #0202FD",
"4@	c #1516FC",
"5@	c #2E2FFB",
"6@	c #3537F8",
"7@	c #3235F8",
"8@	c #3335F8",
"9@	c #3739F6",
"0@	c #3A3DF6",
"a@	c #3B3EF7",
"b@	c #3739F8",
"c@	c #2C2FFA",
"d@	c #1416FB",
"e@	c #0909FB",
"f@	c #2225FB",
"g@	c #282AF9",
"h@	c #272AF9",
"i@	c #2729F9",
"j@	c #2627F8",
"k@	c #2527F9",
"l@	c #1113FC",
"m@	c #0002FE",
"n@	c #0102F6",
"o@	c #0002FD",
"p@	c #1B1CFA",
"q@	c #4246F6",
"r@	c #5053F4",
"s@	c #4E51F3",
"t@	c #4D50F4",
"u@	c #4C4FF3",
"v@	c #4B4EF4",
"w@	c #4B4EF3",
"x@	c #494CF2",
"y@	c #494CF3",
"z@	c #484BF4",
"A@	c #4749F5",
"B@	c #3A3DF8",
"C@	c #1B1EFB",
"D@	c #1112FC",
"E@	c #3033F7",
"F@	c #3434F7",
"G@	c #3234F8",
"H@	c #3032F8",
"I@	c #2F31F8",
"J@	c #2E31F8",
"K@	c #2C2FF9",
"L@	c #2426F8",
"M@	c #2021FA",
"N@	c #0505F5",
"O@	c #01008F",
"P@	c #0101F6",
"Q@	c #3032F9",
"R@	c #575CF2",
"S@	c #595CF0",
"T@	c #595BF0",
"U@	c #575AF2",
"V@	c #5659F1",
"W@	c #5559F2",
"X@	c #5458F1",
"Y@	c #5457F2",
"Z@	c #5356F1",
"`@	c #5254F2",
" #	c #5153F1",
".#	c #5053F2",
"+#	c #4F52F2",
"@#	c #4F52F3",
"##	c #4D50F3",
"$#	c #3F44F6",
"%#	c #2528F9",
"&#	c #0909FD",
"*#	c #0202FE",
"=#	c #0B0CF9",
"-#	c #383CF9",
";#	c #3D40F5",
">#	c #3D3EF7",
",#	c #393CF6",
"'#	c #383AF5",
")#	c #383AF6",
"!#	c #3638F6",
"~#	c #3638F7",
"{#	c #2022EF",
"]#	c #626164",
"^#	c #000090",
"/#	c #0101F2",
"(#	c #2E31F6",
"_#	c #6368F3",
":#	c #6167EF",
"<#	c #6265EE",
"[#	c #6165F0",
"}#	c #6063F0",
"|#	c #6063F1",
"1#	c #5F62F0",
"2#	c #5E61F1",
"3#	c #5D60F1",
"4#	c #5C5EF1",
"5#	c #5B5DF0",
"6#	c #595CF1",
"7#	c #595BF2",
"8#	c #585AF1",
"9#	c #565AF1",
"0#	c #565AF2",
"a#	c #5357F3",
"b#	c #4B4DF5",
"c#	c #4245F7",
"d#	c #3336F8",
"e#	c #2E31FA",
"f#	c #2C2EF9",
"g#	c #2C2EFA",
"h#	c #3034FA",
"i#	c #3538F9",
"j#	c #3E40F7",
"k#	c #4347F5",
"l#	c #474AF4",
"m#	c #4649F2",
"n#	c #4548F3",
"o#	c #4346F4",
"p#	c #4245F4",
"q#	c #4244F4",
"r#	c #4143F4",
"s#	c #4041F4",
"t#	c #3F40F4",
"u#	c #3F40F6",
"v#	c #2021EC",
"w#	c #0506F2",
"x#	c #6569F3",
"y#	c #6D71ED",
"z#	c #6C70ED",
"A#	c #6B6FED",
"B#	c #6A6FEE",
"C#	c #696DEE",
"D#	c #686CEE",
"E#	c #686BEE",
"F#	c #676BEE",
"G#	c #666AEE",
"H#	c #6569EE",
"I#	c #6468EE",
"J#	c #6366F0",
"K#	c #6265F0",
"L#	c #6164EF",
"M#	c #5F61F0",
"N#	c #5E60F0",
"O#	c #5D5FF0",
"P#	c #5C5EF0",
"Q#	c #585CF1",
"R#	c #575BF1",
"S#	c #5357F1",
"T#	c #5155F3",
"U#	c #5053F3",
"V#	c #4B4FF2",
"W#	c #4A4DF2",
"X#	c #4A4CF3",
"Y#	c #494BF3",
"Z#	c #484BF3",
"`#	c #484AF6",
" $	c #1618EF",
".$	c #727273",
"+$	c #010187",
"@$	c #0606EF",
"#$	c #6E72F2",
"$$	c #777BEB",
"%$	c #767AEB",
"&$	c #7679EC",
"*$	c #7578EC",
"=$	c #7377EC",
"-$	c #7276EC",
";$	c #7175EC",
">$	c #6F74ED",
",$	c #6E73ED",
"'$	c #6C70EE",
")$	c #6B6FEE",
"!$	c #6A6EEE",
"~$	c #696DED",
"{$	c #686DEE",
"]$	c #676CEE",
"^$	c #666BEE",
"/$	c #6569EF",
"($	c #6468EF",
"_$	c #6367EF",
":$	c #6266EF",
"<$	c #6265EF",
"[$	c #6165EF",
"}$	c #6164F0",
"|$	c #6063EF",
"1$	c #5F61F1",
"2$	c #5E60F1",
"3$	c #5C5FF1",
"4$	c #5A5EF1",
"5$	c #5A5CF1",
"6$	c #585BF1",
"7$	c #5558F2",
"8$	c #5356F2",
"9$	c #5255F2",
"0$	c #5154F1",
"a$	c #5153F6",
"b$	c #0909F0",
"c$	c #000086",
"d$	c #808080",
"e$	c #020265",
"f$	c #0101E1",
"g$	c #5659F2",
"h$	c #8286EB",
"i$	c #8084EA",
"j$	c #7E83EA",
"k$	c #7D82E9",
"l$	c #7C82EB",
"m$	c #7B81EA",
"n$	c #7A80EB",
"o$	c #7A7FEB",
"p$	c #797EEA",
"q$	c #787DEB",
"r$	c #787CEC",
"s$	c #777BED",
"t$	c #757AEB",
"u$	c #7479EB",
"v$	c #7478EC",
"w$	c #7478EE",
"x$	c #7277ED",
"y$	c #7176ED",
"z$	c #7174ED",
"A$	c #7073EE",
"B$	c #6D72ED",
"C$	c #6C71ED",
"D$	c #6A70EE",
"E$	c #696FEE",
"F$	c #696EEE",
"G$	c #676BEF",
"H$	c #676AEE",
"I$	c #666AF0",
"J$	c #6669EF",
"K$	c #6367F0",
"L$	c #6366F1",
"M$	c #6265F1",
"N$	c #6064F1",
"O$	c #5F63F0",
"P$	c #5E62EF",
"Q$	c #5C60F0",
"R$	c #5E5FF2",
"S$	c #5C5FF2",
"T$	c #484BF7",
"U$	c #0202E0",
"V$	c #010263",
"W$	c #D1AC87",
"X$	c #2C2C3D",
"Y$	c #0201A7",
"Z$	c #0809F0",
"`$	c #585DF4",
" %	c #787EEE",
".%	c #8083EC",
"+%	c #8185EC",
"@%	c #7F84EC",
"#%	c #7E83EC",
"$%	c #7D81EB",
"%%	c #7C80EB",
"&%	c #797FEA",
"*%	c #787DEC",
"=%	c #777CEC",
"-%	c #757BED",
";%	c #747AED",
">%	c #7479ED",
",%	c #7277EC",
"'%	c #7176EC",
")%	c #7074ED",
"!%	c #6F73EE",
"~%	c #6E73F0",
"{%	c #6D72EF",
"]%	c #6C70EF",
"^%	c #6B70EF",
"/%	c #6A6EEF",
"(%	c #696DEF",
"_%	c #686BEF",
":%	c #676AEF",
"<%	c #6669F0",
"[%	c #6568F0",
"}%	c #6166F1",
"|%	c #6065F1",
"1%	c #5F63F1",
"2%	c #5E63F1",
"3%	c #5D62F2",
"4%	c #5C60F3",
"5%	c #5A5FF4",
"6%	c #595DF4",
"7%	c #5658F3",
"8%	c #0B0CF1",
"9%	c #0201A8",
"0%	c #262639",
"a%	c #FABD7D",
"b%	c #997D63",
"c%	c #090942",
"d%	c #0101A9",
"e%	c #0001E4",
"f%	c #0101F7",
"g%	c #0506F9",
"h%	c #0708F9",
"i%	c #0707F8",
"j%	c #0706F8",
"k%	c #0606F8",
"l%	c #0505F8",
"m%	c #0504F8",
"n%	c #0404F8",
"o%	c #0303F8",
"p%	c #0302F9",
"q%	c #0202F8",
"r%	c #0202F9",
"s%	c #0101F8",
"t%	c #0101F9",
"u%	c #0100F8",
"v%	c #0100F9",
"w%	c #0000F8",
"x%	c #0000F9",
"y%	c #0000F6",
"z%	c #0001E5",
"A%	c #0101A8",
"B%	c #0D0D45",
"C%	c #AB8B6E",
"D%	c #FDBE7C",
"E%	c #F3B87B",
"F%	c #AB8660",
"G%	c #181932",
"H%	c #000162",
"I%	c #010096",
"J%	c #010094",
"K%	c #000192",
"L%	c #020189",
"M%	c #010163",
"N%	c #171630",
"O%	c #A58463",
"P%	c #F9BD7B",
"  . + @ # $ % & * * = - - ; > * , ' ; ) ! ~ ' , * { ) - ] > , , ^ / - - ~ , * ( = - ; ; _ : < [ } | ",
"1 2 3 4 5 6 7 8 9 9 0 9 9 9 a 0 b b 9 9 a 9 b b 9 b 9 9 7 7 b b b 9 9 9 9 0 7 7 9 9 9 0 0 c d e f g ",
"h i j k l m n o p q r r s s t u v w x x y y z z A A B B C D E F G G H H I J K L M N M O P Q R S T U ",
"V W X Y Z `  ...+.@.+.+.#.$.%.%.&.&.*.*.*.=.=.=.%.%.%.%.%.%.%.%.%.%.-.-.*.*.%.;.%.>.;.,.'.).!.~.{.].",
"^./.(._.:.<.[.<.}.<.<.<.<.<.<.<.<.<.|.|.<.<.<.<.<.<.<.<.<.<.<.<.<.<.<.<.<.<.<.<.<.<.|.<.}.[.}.1.2.3.",
"4.c 5.6.7.7.8.8.8.8.8.8.8.8.8.8.8.8.8.8.8.8.8.8.8.8.8.8.8.8.8.8.8.8.8.8.8.8.8.8.8.8.8.8.9.9.9.9.0.a.",
"b.c.d.e.f.g.f.f.f.f.f.f.f.f.f.f.f.f.f.f.f.f.f.f.f.f.f.f.f.f.f.f.f.f.f.f.f.f.f.f.f.f.f.f.f.f.f.f.h.i.",
"j.k.l.m.n.n.n.n.n.n.n.n.n.n.n.n.n.n.n.n.n.n.n.n.n.n.n.n.n.n.n.n.n.n.n.n.n.n.n.n.n.n.n.n.n.n.n.n.o.i.",
"p.q.r.s.t.t.t.t.t.t.t.t.t.t.t.t.t.t.t.t.t.t.t.t.t.t.t.t.t.t.t.t.t.t.t.t.t.t.t.t.u.u.u.u.t.v.w.x.y.z.",
"A.B.C.D.E.E.E.E.E.E.E.E.E.E.E.E.E.E.E.E.E.E.E.E.E.E.E.E.E.E.E.E.E.E.E.E.E.E.E.E.F.F.F.F.E.G.H.I.J.K.",
"L.8 M.N.O.P.P.P.P.P.P.P.P.P.P.P.P.P.P.P.P.P.P.P.P.P.P.O.Q.R.S.O.T.U.V.W.X.Y.Z.`. +.+++@+#+$+%+&+*+B.",
"=+9 -+;+>+>+>+>+>+>+>+>+>+>+>+>+>+>+>+>+>+>+>+>+>+>+>+>+,+'+)+!+~+{+]+^+/+(+_+(+:+:+_+_+/+_+/+^+*+B.",
"<+k.[+}+|+1+1+1+1+1+1+1+1+1+1+1+1+1+1+1+1+1+1+1+1+1+1+1+2+3+4+5+6+6+6+6+6+6+6+6+6+6+6+6+6+6+6+6+*+B.",
"<+7 7+8+9+9+9+9+9+9+9+9+9+9+9+9+9+9+9+9+9+9+9+9+9+0+9+a+b+c+d+/+6+6+6+6+6+6+6+6+6+6+6+6+6+6+6+6+*+B.",
"e+B.f+g+h+i+j+k+k+l+l+l+l+l+l+l+l+l+l+l+l+l+l+l+m+l+l+k+n+o+(+p+6+6+6+6+6+6+6+6+6+6+6+6+6+6+6+6+*+B.",
"q+r+s+t+u+v+w+x+y+y+y+y+y+y+y+y+y+y+y+y+y+y+y+y+z+A+B+C+D+_+6+6+6+6+6+6+6+6+6+6+6+6+6+6+6+6+6+6+*+B.",
"E+B.F+_+6+p+G+H+I+J+K+L+M+N+O+P+N+Q+R+O+S+T+U+V+W+X+/+6+6+6+6+6+6+6+6+6+6+6+6+6+6+6+6+6+6+6+6+6+*+B.",
"E+B.F+_+p+6+/+(+:+_+Y+Z+`+ @.@+@@@#@#@$@%@&@*@/+_+/+6+6+6+6+6+6+6+6+6+6+6+6+6+6+6+6+6+6+6+6+6+6+*+B.",
"=@-@F+_+6+6+6+6+6+6+6+6+6+6+6+6+6+6+6+6+6+6+6+6+6+6+6+6+6+6+6+6+6+6+6+6+6+6+6+6+6+6+6+6+6+6+6+6+*+B.",
";@-@F+_+6+6+6+6+6+6+6+6+6+6+6+6+6+6+6+6+6+6+6+6+6+6+6+6+6+6+6+6+6+6+6+6+6+6+6+6+6+6+6+6+6+6+6+6+*+B.",
">@-@F+_+6+6+6+6+6+6+6+6+6+6+6+6+6+6+6+6+6+6+6+6+6+6+6+6+6+6+6+6+6+6+6+6+6+6+6+6+6+6+6+6+6+6+6+6+*+B.",
",@q.F+_+6+6+6+6+6+6+6+6+6+6+6+6+6+6+6+6+6+6+6+6+6+6+6+6+6+6+6+6+6+6+6+6+6+6+6+6+6+6+6+6+6+6+6+6+*+B.",
"E+B.F+_+6+6+6+6+6+6+6+6+6+6+6+6+6+6+6+6+6+6+6+6+6+6+6+6+6+6+6+6+6+6+6+6+6+6+6+6+6+6+6+6+6+6+6+6+*+B.",
"E+B.F+_+6+6+6+6+6+6+6+6+6+6+6+6+6+6+6+6+6+6+6+6+6+6+6+6+6+6+6+6+6+6+6+6+6+6+6+6+6+6+6+6+6+6+6+6+*+B.",
"'@B.)@_+6+6+6+6+6+6+6+6+6+6+6+6+6+6+6+6+6+6+6+6+6+6+6+6+6+6+6+6+6+6+6+6+6+6+6+6+6+6+6+6+6+6+6+6+*+B.",
"!@B.)@_+6+6+6+6+6+6+6+6+6+6+6+6+6+6+6+6+6+6+6+6+6+6+6+6+6+6+6+6+6+6+6+6+6+6+6+6+6+6+6+6+6+6+6+6+*+B.",
";@-@F+_+6+6+6+6+6+6+6+6+6+6+6+6+6+6+6+6+6+6+6+6+6+6+6+6+6+6+6+6+6+6+6+6+6+6+6+6+6+6+6+6+6+6+6+6+*+B.",
";@-@F+_+6+6+6+6+6+6+6+6+6+6+6+6+6+6+6+6+6+6+6+6+6+6+6+6+6+6+6+6+6+6+6+6+6+6+6+6+6+6+6+6+6+6+6+6+*+B.",
"~@{@F+_+6+6+6+6+6+6+6+6+6+6+6+6+6+6+6+6+6+6+6+6+6+6+6+6+6+6+6+6+6+6+6+6+6+6+6+6+6+6+6+6+6+6+6+6+*+B.",
"]@-@F+_+6+6+6+6+6+6+6+6+6+6+6+6+6+6+6+6+6+6+6+6+6+6+6+6+6+6+6+6+6+6+6+6+6+6+6+6+6+6+6+6+6+6+6+6+*+B.",
"E+B.F+_+6+6+6+6+6+6+6+6+6+6+6+6+6+6+6+6+6+6+6+6+6+6+6+6+6+6+6+6+6+6+6+6+6+6+6+6+6+6+6+6+6+6+6+6+*+B.",
"E+B.F+_+6+6+6+6+6+6+6+6+6+6+6+6+6+6+6+6+6+6+6+6+6+6+6+6+6+6+6+6+6+6+6+6+6+6+6+6+6+6+6+6+6+6+6+6+*+B.",
"^@-@F+_+6+6+6+6+6+6+6+6+6+6+6+6+6+6+6+6+6+6+6+6+6+6+6+6+6+6+6+6+6+6+6+6+6+6+6+6+6+6+6+6+6+6+6+6+*+B.",
"/@-@F+_+6+6+6+6+6+6+6+6+6+6+6+6+6+6+6+6+6+6+6+6+6+6+6+6+6+6+6+6+6+6+6+6+6+6+6+6+6+6+6+6+6+6+6+6+*+B.",
";@-@F+_+6+6+6+6+6+6+6+6+6+6+6+6+6+6+6+6+6+6+6+6+6+6+6+6+6+6+6+6+6+6+6+6+6+6+6+6+6+6+6+6+6+6+6+6+*+B.",
";@-@F+_+6+6+6+6+6+6+6+6+6+6+6+6+6+6+6+6+6+6+6+6+6+6+6+6+6+6+6+6+6+6+6+6+6+6+6+6+6+6+6+6+6+6+6+6+*+B.",
"(@{@F+_+6+6+6+6+6+6+6+6+6+6+6+6+6+6+6+6+6+6+6+6+6+6+6+6+6+6+6+6+6+6+6+6+6+6+6+6+6+6+6+6+6+6+6+6+*+B.",
"_@{@F+_+6+6+6+6+6+6+6+6+6+6+6+6+6+6+6+6+6+6+6+6+6+6+6+6+6+6+6+6+6+6+6+6+6+6+6+6+6+6+6+6+6+6+6+6+*+B.",
"E+B.F+_+6+6+6+6+6+6+6+6+6+6+6+6+6+6+6+6+6+6+6+6+6+6+6+6+6+6+6+6+6+6+6+6+6+6+6+6+/+_+_+6+6+(+:@:@*+B.",
"E+B.F+_+6+6+6+6+6+6+6+6+6+6+:+6+6+6+6+6+6+6+6+6+6+6+6+6+6+6+6+6+6+6+6+6+6+6+6+6+<@[@}@|@1@(+:@6+*+B.",
"2@{@F+_+_+/+3@4@5@6@7@8@9@0@a@b@c@d@^+_+6+6+6+6+6+6+6+6+6+6+6+6+6+6+6+6+:+(+e@f@g@h@i@j@k@l@/+m@n@r+",
"~@-@F+_+o@p@q@r@s@t@u@v@w@x@y@z@A@A@B@C@6+6+6+6+6+6+6+6+6+6+6+6+6+6+6+6+_+D@E@F@G@u+H@I@J@K@L@M@N@B.",
"=+O@P@/+Q@R@S@T@U@V@W@X@Y@Z@`@ #.#+#@###$#%#&#/+/+*#(+/+_+_+/+_+_+_+_+6+=#-#;#>#L+S+,#'#)#9@!#~#{#9 ",
"]#^#/#(#_#|+:#<#[#}#|#1#2#3#4#5#0+6#7#8#9#0#a#b#c#B@d#e#f#g#I+e#h#i#,#j#k#l#m#n#x+o#p#q#r#s#t#u#v#q.",
"]@-@w#x#>+y#z#A#B#C#D#E#F#G#H#I#1+J#K#L#}#1#M#N#O#P#P#5#Q#R#9#V@X@S#Z@`@T#U#+#h+h+##V#W#X#Y#Z#`# $-@",
".$+$@$#$$$%$&$*$=$-$-$;$>$,$>+y#'$)$!$~${$]$^$G#/$($_$:$<$[$}$|$1$2$3#3$4$5$6#6$9#V@7$Y@8$9$0$a$b$c$",
"d$e$f$g$h$i$j$k$l$m$n$o$p$q$r$s$t$u$v$w$x$y$z$A$,$B$C$'$D$E$F${$G$H$I$J$3+K$L$M$N$O$P$P$Q$R$S$T$U$V$",
"W$X$Y$Z$`$ %.%+%@%#%$%%%&%N.*%=%-%;%>%x$,%'%)%!%~%{%]%^%/%(%_%:%<%[%1+J#}%|%1%2%3%4%5%6%7%s@n+8%9%0%",
"a%b%c%d%e%f%g%h%i%j%k%k%l%m%n%n%o%o%o%p%q%q%r%r%q%q%s%t%s%s%s%t%u%u%u%v%u%w%w%x%w%w%w%x%u%y%z%A%B%C%",
"D%E%F%G%H%+$9 I%J%J%0 9 J%J%J%9 J%J%J%9 J%J%a 9 0 0 0 9 J%J%J%9 J%J%J%9 J%J%J%9 J%J%J%9 K%L%M%N%O%P%"};
