/* XPM */
static char * gray_xpm[] = {
"50 50 803 2",
"  	c #FFC384",
". 	c #FFC280",
"+ 	c #FFC17C",
"@ 	c #FFC07B",
"# 	c #FEC487",
"$ 	c #FECB97",
"% 	c #FDE8D7",
"& 	c #FDFDFD",
"* 	c #FAFAFA",
"= 	c #F4F4F5",
"- 	c #ECECEE",
"; 	c #E2E2E4",
"> 	c #D6D5D9",
", 	c #CACACE",
"' 	c #BDBEC3",
") 	c #B3B4B8",
"! 	c #ACADB2",
"~ 	c #AAABAF",
"{ 	c #ABACB1",
"] 	c #ADADB2",
"^ 	c #AEAFB4",
"/ 	c #B1B2B7",
"( 	c #B3B3B9",
"_ 	c #B5B6BB",
": 	c #B7B8BD",
"< 	c #B9BBBF",
"[ 	c #BBBCC1",
"} 	c #BDBDC3",
"| 	c #BEBEC3",
"1 	c #BCBDC2",
"2 	c #B9BABF",
"3 	c #B6B6BC",
"4 	c #B2B2B8",
"5 	c #A9A9AE",
"6 	c #A4A4A9",
"7 	c #A0A0A5",
"8 	c #9B9CA1",
"9 	c #96979C",
"0 	c #939398",
"a 	c #8F8F94",
"b 	c #8D8D92",
"c 	c #96969B",
"d 	c #BCBBBD",
"e 	c #F7D1AF",
"f 	c #FEC589",
"g 	c #FFC17E",
"h 	c #FFC486",
"i 	c #FFC07A",
"j 	c #FDCA95",
"k 	c #FCF3EC",
"l 	c #FCFCFC",
"m 	c #F9F9F9",
"n 	c #F2F2F2",
"o 	c #E8E8EA",
"p 	c #DCDCDF",
"q 	c #D0CFD4",
"r 	c #C3C4C8",
"s 	c #B7B8BC",
"t 	c #AAABB0",
"u 	c #ADAEB3",
"v 	c #B0B1B6",
"w 	c #B3B4B9",
"x 	c #BABBC0",
"y 	c #A6A7AB",
"z 	c #A1A2A7",
"A 	c #9C9DA2",
"B 	c #98999E",
"C 	c #939499",
"D 	c #8F9095",
"E 	c #8B8C91",
"F 	c #87888D",
"G 	c #848489",
"H 	c #818086",
"I 	c #848388",
"J 	c #CDCCCE",
"K 	c #FBC48A",
"L 	c #FEC17C",
"M 	c #FFC27E",
"N 	c #FADDC5",
"O 	c #FAF8F6",
"P 	c #FBFBFB",
"Q 	c #F6F6F6",
"R 	c #EEEEF0",
"S 	c #D6D5DA",
"T 	c #C9CACE",
"U 	c #BBBCC0",
"V 	c #AFB0B5",
"W 	c #B6B7BC",
"X 	c #B8B9BE",
"Y 	c #B2B3B8",
"Z 	c #A8A9AE",
"` 	c #A3A4A9",
" .	c #9E9FA4",
"..	c #999A9F",
"+.	c #95969B",
"@.	c #909196",
"#.	c #8C8D92",
"$.	c #88898E",
"%.	c #84858A",
"&.	c #818287",
"*.	c #7D7D83",
"=.	c #7B7A82",
"-.	c #79787F",
";.	c #C5C4C7",
">.	c #FBC48C",
",.	c #FEC37E",
"'.	c #FEC17B",
").	c #FCC898",
"!.	c #E9E9E9",
"~.	c #E2E2E2",
"{.	c #DFDFE0",
"].	c #DADADC",
"^.	c #D2D2D3",
"/.	c #C7C6C9",
"(.	c #BABBBE",
"_.	c #AEAFB1",
":.	c #A3A3A7",
"<.	c #9B9CA0",
"[.	c #9A9A9F",
"}.	c #9C9CA1",
"|.	c #9D9DA2",
"1.	c #A2A2A7",
"2.	c #A5A5AA",
"3.	c #A7A7AC",
"4.	c #A9AAAD",
"5.	c #AAABAE",
"6.	c #ACACB0",
"7.	c #ABABAF",
"8.	c #A9A9AD",
"9.	c #A1A1A6",
"0.	c #97979C",
"a.	c #919296",
"b.	c #89898E",
"c.	c #808185",
"d.	c #7C7D81",
"e.	c #797A7D",
"f.	c #797A7F",
"g.	c #7E7F84",
"h.	c #7A7B83",
"i.	c #777880",
"j.	c #76777D",
"k.	c #78777E",
"l.	c #D7D7D9",
"m.	c #FACB9D",
"n.	c #FBC691",
"o.	c #F3F3F5",
"p.	c #F8F8FA",
"q.	c #E6E6E6",
"r.	c #878687",
"s.	c #464546",
"t.	c #444345",
"u.	c #4B4A4C",
"v.	c #4A494B",
"w.	c #49484B",
"x.	c #48474A",
"y.	c #474749",
"z.	c #454648",
"A.	c #464648",
"B.	c #464749",
"C.	c #464748",
"D.	c #454547",
"E.	c #444547",
"F.	c #444546",
"G.	c #444446",
"H.	c #3A3A3C",
"I.	c #313134",
"J.	c #46474A",
"K.	c #727278",
"L.	c #76767E",
"M.	c #74747C",
"N.	c #73737B",
"O.	c #99999D",
"P.	c #F3D6BE",
"Q.	c #F7CEA9",
"R.	c #F4F4F6",
"S.	c #F5F5F7",
"T.	c #F7F7F9",
"U.	c #F0F0F0",
"V.	c #6D6C6D",
"W.	c #515152",
"X.	c #A7A8A9",
"Y.	c #D0D1D3",
"Z.	c #DDDDDF",
"`.	c #DDDEE0",
" +	c #DEDEE0",
".+	c #DDDEDF",
"++	c #DDDEDE",
"@+	c #DEDEDF",
"#+	c #DDDDDE",
"$+	c #DDDEDD",
"%+	c #DDDDDD",
"&+	c #DEDEDE",
"*+	c #DCDDDE",
"=+	c #CFCFD1",
"-+	c #A3A3A5",
";+	c #3A3B3D",
">+	c #717278",
",+	c #72727A",
"'+	c #75757B",
")+	c #D6D6D9",
"!+	c #ECDFD7",
"~+	c #F2F2F4",
"{+	c #BFBFBF",
"]+	c #474648",
"^+	c #B7B7B9",
"/+	c #E5E5E6",
"(+	c #F1F1F1",
"_+	c #E3E3E5",
":+	c #B1B1B3",
"<+	c #393839",
"[+	c #5D5D62",
"}+	c #717178",
"|+	c #707079",
"1+	c #C2C2C4",
"2+	c #E5E5E7",
"3+	c #F0F0F2",
"4+	c #F1F1F3",
"5+	c #9F9FA0",
"6+	c #7B7B7D",
"7+	c #EFEFEF",
"8+	c #DBDBDB",
"9+	c #6E6E6F",
"0+	c #504F55",
"a+	c #717179",
"b+	c #707078",
"c+	c #727279",
"d+	c #B6B6B9",
"e+	c #9D9C9D",
"f+	c #939395",
"g+	c #E6E6E7",
"h+	c #EDEDEF",
"i+	c #E4E4E6",
"j+	c #88898A",
"k+	c #504F54",
"l+	c #71717A",
"m+	c #737279",
"n+	c #B3B2B5",
"o+	c #DFDFE1",
"p+	c #959597",
"q+	c #E6E6E8",
"r+	c #EBEBEC",
"s+	c #EAEBEC",
"t+	c #88898B",
"u+	c #515054",
"v+	c #73737A",
"w+	c #74737A",
"x+	c #B1B0B4",
"y+	c #DBDBDD",
"z+	c #E9E8ED",
"A+	c #EBEBEE",
"B+	c #9C9B9D",
"C+	c #E8E8E9",
"D+	c #E8E8E8",
"E+	c #E2E2E3",
"F+	c #87888A",
"G+	c #525155",
"H+	c #75747A",
"I+	c #76757B",
"J+	c #ADADB0",
"K+	c #D8D7DB",
"L+	c #E5E4E9",
"M+	c #E8E7EB",
"N+	c #EBEAEE",
"O+	c #9B9A9C",
"P+	c #929294",
"Q+	c #E1E1E2",
"R+	c #DFE0E2",
"S+	c #868789",
"T+	c #545357",
"U+	c #77767C",
"V+	c #ABABAE",
"W+	c #D4D3D7",
"X+	c #E2E1E6",
"Y+	c #E4E3E8",
"Z+	c #E7E6EC",
"`+	c #9A999C",
" @	c #919192",
".@	c #E3E3E2",
"+@	c #E3E3E3",
"@@	c #858587",
"#@	c #555458",
"$@	c #78777D",
"%@	c #79787E",
"&@	c #AAA9AD",
"*@	c #D0CFD3",
"=@	c #DEDDE2",
"-@	c #E0DFE4",
";@	c #E3E2E7",
">@	c #98979A",
",@	c #8F8F91",
"'@	c #DBDBDC",
")@	c #E0E0E1",
"!@	c #DADADB",
"~@	c #848486",
"{@	c #56565A",
"]@	c #7A797F",
"^@	c #7C7B81",
"/@	c #A8A8AB",
"(@	c #CCCBCF",
"_@	c #DBDADF",
":@	c #DDDCE1",
"<@	c #DFDEE4",
"[@	c #979799",
"}@	c #8E8E8F",
"|@	c #D8D8DA",
"1@	c #D7D7D7",
"2@	c #838385",
"3@	c #59585C",
"4@	c #7D7C82",
"5@	c #7F7E84",
"6@	c #807F85",
"7@	c #A6A5A8",
"8@	c #C8C8CB",
"9@	c #D7D6DB",
"0@	c #D8D7DD",
"a@	c #8D8D8E",
"b@	c #D5D5D8",
"c@	c #DADADD",
"d@	c #D5D5D6",
"e@	c #828285",
"f@	c #5D5C60",
"g@	c #838288",
"h@	c #848389",
"i@	c #A6A5A9",
"j@	c #C4C4C8",
"k@	c #D2D3D6",
"l@	c #D3D4D8",
"m@	c #D6D6DA",
"n@	c #929295",
"o@	c #8C8C8D",
"p@	c #D2D2D4",
"q@	c #D7D6D9",
"r@	c #D1D1D3",
"s@	c #818183",
"t@	c #616165",
"u@	c #87868C",
"v@	c #89888E",
"w@	c #A5A4A8",
"x@	c #BFC0C4",
"y@	c #CDCED3",
"z@	c #CECFD3",
"A@	c #D1D1D6",
"B@	c #909094",
"C@	c #8A8A8C",
"D@	c #D3D3D4",
"E@	c #D3D3D3",
"F@	c #CECED0",
"G@	c #808082",
"H@	c #666569",
"I@	c #8B8A90",
"J@	c #8C8B91",
"K@	c #8F8E93",
"L@	c #A3A3A6",
"M@	c #BBBBC0",
"N@	c #C9CACF",
"O@	c #CACBD0",
"P@	c #CCCDD2",
"Q@	c #8E8E92",
"R@	c #89898A",
"S@	c #CBCBCD",
"T@	c #D0D0D1",
"U@	c #CFCFD0",
"V@	c #CACBCC",
"W@	c #7E7F80",
"X@	c #6B6B6F",
"Y@	c #919096",
"Z@	c #929197",
"`@	c #949399",
" #	c #C4C5CA",
".#	c #C5C6CB",
"+#	c #C7C8CD",
"@#	c #8B8C8F",
"##	c #878789",
"$#	c #C8C8CA",
"%#	c #CCCCCD",
"&#	c #CCCCCC",
"*#	c #C8C8C9",
"=#	c #7E7E7F",
"-#	c #727176",
";#	c #9A999F",
">#	c #9C9BA0",
",#	c #A4A4A7",
"'#	c #B3B3B8",
")#	c #C0C1C6",
"!#	c #C1C2C7",
"~#	c #C3C4C9",
"{#	c #898A8D",
"]#	c #868688",
"^#	c #C5C5C7",
"/#	c #C4C4C6",
"(#	c #7D7C7F",
"_#	c #7A797D",
":#	c #A3A2A7",
"<#	c #A4A3A8",
"[#	c #A5A5A9",
"}#	c #AEAEB3",
"|#	c #BFBFC5",
"1#	c #88888B",
"2#	c #C1C1C1",
"3#	c #C4C4C4",
"4#	c #C4C4C5",
"5#	c #C0C0C1",
"6#	c #7C7C7E",
"7#	c #828184",
"8#	c #ADACB1",
"9#	c #ACABB0",
"0#	c #A7A6AB",
"a#	c #A9AAAE",
"b#	c #B9B9BF",
"c#	c #848487",
"d#	c #BDBDBE",
"e#	c #C0C0C0",
"f#	c #C0C0C2",
"g#	c #BDBDBD",
"h#	c #89898B",
"i#	c #B7B6BB",
"j#	c #B5B4B9",
"k#	c #A9A8AD",
"l#	c #A4A5A9",
"m#	c #808084",
"n#	c #828284",
"o#	c #B0B0B2",
"p#	c #B4B4B6",
"q#	c #BABABB",
"r#	c #BBBBBC",
"s#	c #BCBCBD",
"t#	c #BCBCBC",
"u#	c #B4B4B5",
"v#	c #B0B0B1",
"w#	c #7B7B7C",
"x#	c #C3C2C6",
"y#	c #C0C0C3",
"z#	c #BFBFC2",
"A#	c #9F9FA3",
"B#	c #A9AAAF",
"C#	c #7D7D81",
"D#	c #818182",
"E#	c #AAAAAC",
"F#	c #AAABAD",
"G#	c #ABACAC",
"H#	c #ACADAD",
"I#	c #AEAFAF",
"J#	c #B0B1B1",
"K#	c #B2B2B3",
"L#	c #B4B4B4",
"M#	c #B5B5B6",
"N#	c #B6B6B6",
"O#	c #B6B6B7",
"P#	c #B7B7B7",
"Q#	c #B7B7B8",
"R#	c #B8B8B8",
"S#	c #B2B3B3",
"T#	c #AAABAB",
"U#	c #797A7C",
"V#	c #9E9E9F",
"W#	c #D0D0D2",
"X#	c #CCCCCE",
"Y#	c #B0B0B3",
"Z#	c #9B999E",
"`#	c #A2A3A8",
" $	c #A5A6AB",
".$	c #7A797E",
"+$	c #7F7F81",
"@$	c #A8A8AA",
"#$	c #A8A9AB",
"$$	c #A9A9AB",
"%$	c #ABABAD",
"&$	c #79797B",
"*$	c #A8A8A8",
"=$	c #DCDCDD",
"-$	c #B6B5B8",
";$	c #949499",
">$	c #757479",
",$	c #7E7E80",
"'$	c #A6A6A8",
")$	c #A7A6A9",
"!$	c #A7A7A9",
"~$	c #A7A7A8",
"{$	c #78787A",
"]$	c #B2B1B2",
"^$	c #E7E7E7",
"/$	c #E5E5E5",
"($	c #E3E3E4",
"_$	c #BAB9BC",
":$	c #8E8F94",
"<$	c #94959A",
"[$	c #706F74",
"}$	c #7C7C7F",
"|$	c #A4A4A5",
"1$	c #A5A5A5",
"2$	c #A4A4A6",
"3$	c #777779",
"4$	c #BAB9BA",
"5$	c #BEBEC1",
"6$	c #8D8E93",
"7$	c #A2A2A4",
"8$	c #A2A2A5",
"9$	c #767678",
"0$	c #EAEAEA",
"a$	c #ECECEB",
"b$	c #EEEEED",
"c$	c #BDBCBE",
"d$	c #86878C",
"e$	c #85868B",
"f$	c #86868B",
"g$	c #66656A",
"h$	c #A0A0A2",
"i$	c #747476",
"j$	c #AFAFB0",
"k$	c #E4E4E5",
"l$	c #B6B6B8",
"m$	c #7E7D82",
"n$	c #808186",
"o$	c #7E7E84",
"p$	c #616065",
"q$	c #9E9EA0",
"r$	c #737375",
"s$	c #A9A9A9",
"t$	c #D6D6D8",
"u$	c #AFAEB1",
"v$	c #9C9C9E",
"w$	c #727274",
"x$	c #A1A1A3",
"y$	c #CDCCCF",
"z$	c #A8A7AA",
"A$	c #76757A",
"B$	c #737379",
"C$	c #58575C",
"D$	c #757577",
"E$	c #9A9A9C",
"F$	c #717173",
"G$	c #9A999E",
"H$	c #C2C1C6",
"I$	c #C4C3C7",
"J$	c #C7C7CB",
"K$	c #A2A1A6",
"L$	c #706F75",
"M$	c #717076",
"N$	c #6E6E74",
"O$	c #6C6C72",
"P$	c #545358",
"Q$	c #747376",
"R$	c #989899",
"S$	c #98989A",
"T$	c #6F6F71",
"U$	c #959598",
"V$	c #BBBABF",
"W$	c #BEBCC1",
"X$	c #BFBEC3",
"Y$	c #6C6B71",
"Z$	c #6B6B70",
"`$	c #69696F",
" %	c #68676D",
".%	c #515055",
"+%	c #737373",
"@%	c #969695",
"#%	c #969696",
"$%	c #969697",
"%%	c #919195",
"&%	c #B4B3B8",
"*%	c #BAB9BE",
"=%	c #96959A",
"-%	c #68666C",
";%	c #67666C",
">%	c #65646A",
",%	c #646369",
"'%	c #4F4E53",
")%	c #717172",
"!%	c #939393",
"~%	c #949494",
"{%	c #6D6D6E",
"]%	c #8C8C8F",
"^%	c #ADAEB2",
"/%	c #B0B0B4",
"(%	c #919095",
"_%	c #626167",
":%	c #605F65",
"<%	c #4E4D52",
"[%	c #707071",
"}%	c #919191",
"|%	c #929292",
"1%	c #6B6B6D",
"2%	c #87878C",
"3%	c #A7A8AD",
"4%	c #AEADB2",
"5%	c #8D8C91",
"6%	c #5F5E64",
"7%	c #4D4C51",
"8%	c #6E6E70",
"9%	c #8F8F8F",
"0%	c #909090",
"a%	c #6A6A6B",
"b%	c #858589",
"c%	c #88888D",
"d%	c #5D5C62",
"e%	c #5E5D63",
"f%	c #5D5C63",
"g%	c #8D8D8D",
"h%	c #69696A",
"i%	c #838287",
"j%	c #A0A1A6",
"k%	c #838388",
"l%	c #5B5A60",
"m%	c #6C6B6D",
"n%	c #8B8B8B",
"o%	c #686869",
"p%	c #818185",
"q%	c #9A9BA0",
"r%	c #9D9EA3",
"s%	c #808085",
"t%	c #59575E",
"u%	c #5C5B61",
"v%	c #69696B",
"w%	c #888888",
"x%	c #898989",
"y%	c #666667",
"z%	c #807F84",
"A%	c #97989D",
"B%	c #7D7D82",
"C%	c #56555A",
"D%	c #535258",
"E%	c #5C5B5D",
"F%	c #878787",
"G%	c #5A595B",
"H%	c #78797D",
"I%	c #5B5A5F",
"J%	c #48474B",
"K%	c #797979",
"L%	c #858585",
"M%	c #767676",
"N%	c #84848A",
"O%	c #919297",
"P%	c #77777C",
"Q%	c #747378",
"R%	c #67676C",
"S%	c #57565B",
"T%	c #4C4C4D",
"U%	c #6F6F70",
"V%	c #7F7F7F",
"W%	c #828281",
"X%	c #828282",
"Y%	c #818181",
"Z%	c #6D6D6D",
"`%	c #4F4E51",
" &	c #6F6F74",
".&	c #8B8B90",
"+&	c #8E9095",
"@&	c #929398",
"#&	c #838286",
"$&	c #BFADA2",
"%&	c #69686E",
"&&	c #6E6D73",
"*&	c #646368",
"=&	c #58585B",
"-&	c #565658",
";&	c #5B5B5C",
">&	c #5E5E61",
",&	c #626263",
"'&	c #6E6D6F",
")&	c #7A7A7B",
"!&	c #7D7D7E",
"~&	c #838384",
"{&	c #848485",
"]&	c #828283",
"^&	c #808080",
"/&	c #7C7C7D",
"(&	c #787879",
"_&	c #747475",
":&	c #6B6B6E",
"<&	c #68676A",
"[&	c #646366",
"}&	c #606063",
"|&	c #5E5D60",
"1&	c #5B5B5E",
"2&	c #59595C",
"3&	c #58585A",
"4&	c #57575A",
"5&	c #58575A",
"6&	c #565559",
"7&	c #5D5C61",
"8&	c #7F7E83",
"9&	c #AEAEB1",
"0&	c #E6CDBB",
"a&	c #605F64",
"b&	c #6D6C72",
"c&	c #727177",
"d&	c #7D7C81",
"e&	c #818085",
"f&	c #87868B",
"g&	c #8F8F93",
"h&	c #99989D",
"i&	c #A1A1A4",
"j&	c #ACACAE",
"k&	c #CACACC",
"l&	c #E5E5E4",
"m&	c #ECECEC",
"n&	c #EDEDED",
"o&	c #E7E7E8",
"p&	c #E0E0E2",
"q&	c #CDCDCF",
"r&	c #C3C2C7",
"s&	c #B9B8BD",
"t&	c #AFAFB3",
"u&	c #A5A6AA",
"v&	c #9B9DA1",
"w&	c #828288",
"x&	c #808087",
"y&	c #7F8087",
"z&	c #818188",
"A&	c #84848B",
"B&	c #88878E",
"C&	c #898A8F",
"D&	c #8A8B90",
"E&	c #6F6F73",
"F&	c #F7C596",
"G&	c #FEC17D",
"H&	c #DFBDA2",
"I&	c #7C7B80",
"J&	c #8B8A8F",
"K&	c #939297",
"L&	c #9B9A9F",
"M&	c #B8B8BA",
"N&	c #F5F5F5",
"O&	c #F0F0F1",
"P&	c #CCCBD0",
"Q&	c #AEAFB3",
"R&	c #86868D",
"S&	c #85858D",
"T&	c #86868E",
"U&	c #87888E",
"V&	c #88898F",
"W&	c #65666A",
"X&	c #C1BEBF",
"Y&	c #FEC17F",
"Z&	c #FDC281",
"`&	c #B3B0AF",
" *	c #5A5A5E",
".*	c #79787D",
"+*	c #828186",
"@*	c #89888D",
"#*	c #ABAAAE",
"$*	c #BEBEC0",
"%*	c #F7F7F7",
"&*	c #EFEFF1",
"**	c #B9BABE",
"=*	c #B1B2B6",
"-*	c #85868C",
";*	c #84848C",
">*	c #87878E",
",*	c #828388",
"'*	c #626368",
")*	c #B5B4B7",
"!*	c #FBC488",
"~*	c #FDC280",
"{*	c #C1C1C4",
"]*	c #77767A",
"^*	c #A5A4A9",
"/*	c #C0BFC1",
"(*	c #EEEEEE",
"_*	c #F3F3F3",
":*	c #F4F4F4",
"<*	c #F2F2F3",
"[*	c #EEEEEF",
"}*	c #EAEAEC",
"|*	c #E4E3E5",
"1*	c #D3D3D5",
"2*	c #CACACD",
"3*	c #B9B9BE",
"4*	c #8E8E94",
"5*	c #83838A",
"6*	c #7A7A81",
"7*	c #63646A",
"8*	c #7A7B7E",
"9*	c #CAC3BE",
"0*	c #FDC285",
"a*	c #FBC388",
"b*	c #C7BDB9",
"c*	c #9D9D9E",
"d*	c #818284",
"e*	c #828286",
"f*	c #858588",
"g*	c #868689",
"h*	c #87868A",
"i*	c #88878B",
"j*	c #87888B",
"k*	c #88898C",
"l*	c #89898C",
"m*	c #8A898C",
"n*	c #87888C",
"o*	c #86868A",
"p*	c #868589",
"q*	c #838487",
"r*	c #828387",
"s*	c #828386",
"t*	c #818286",
"u*	c #808184",
"v*	c #7F8084",
"w*	c #7F8083",
"x*	c #808183",
"y*	c #9B9C9F",
"z*	c #BCBDBF",
"A*	c #F3C69B",
"B*	c #FDC27E",
"  . + @ # $ % & * = - ; > , ' ) ! ~ { ] ^ / ( _ : < [ } | 1 [ 2 3 4 ] 5 6 7 8 9 0 a b c d e f + g h ",
"+ i i j k l & & l m n o p q r s ^ t t { u v w _ : x 1 ' ' 1 x : w v t y z A B C D E F G H I J K L M ",
"i @ N O P P l l & P Q R ; S T U / { t { u V w W X [ 1 ' ' 1 x W Y ^ Z `  ...+.@.#.$.%.&.*.=.-.;.>.,.",
"'.).m m * P m !.~.~.{.].^./.(._.:.<.[.}.|.7 1.2.3.4.5.6.6.7.8.2.9.}.0.a.b b.G c.d.e.f.g.h.i.j.k.l.m.",
"n.o.p.m * q.r.s.t.u.u.v.v.w.x.y.y.z.z.z.z.A.B.B.B.B.B.C.C.C.B.B.z.z.D.E.F.G.G.G.G.H.I.J.K.L.M.N.O.P.",
"Q.R.S.T.U.V.W.X.Y.Z.`.`.`. +.+.+++++Z..+@+@+#+++++++$+++%+++#+++++&+.+.+.+&+#+&+*+=+-+C.;+>+N.,+'+)+",
"!+~+o.S.{+]+^+/+(+(+(+(+(+(+(+(+(+(+(+(+n n (+(+(+(+(+(+(+(+(+(+(+(+(+(+(+n n (+(+n _+:+<+[+,+}+|+1+",
"2+3+4+R.5+6+#+U.7+7+7+7+7+7+7+7+7+7+7+7+7+7+7+7+7+7+7+7+7+7+7+7+7+7+7+7+7+7+7+7+7+7+7+8+9+0+a+b+c+d+",
"; R 3+~+e+f+g+h+h+h+h+h+h+h+h+h+h+h+h+h+h+h+h+h+h+h+h+h+h+h+h+h+h+h+h+h+h+h+h+h+h+h+h+i+j+k+l+,+m+n+",
"o+- h+3+e+p+q+r+s+s+s+s+s+s+s+s+s+s+s+s+s+s+s+s+s+s+s+s+s+s+s+s+s+s+s+s+s+s+s+s+s+s+r+/+t+u+v+w+w+x+",
"y+z+A+R B+f+_+C+C+C+C+C+C+C+C+C+C+C+C+C+C+C+C+C+C+C+C+C+C+C+C+C+C+C+C+C+C+C+C+C+C+C+D+E+F+G+H+H+I+J+",
"K+L+M+N+O+P+Q+/+g+g+g+g+g+g+g+g+g+g+g+g+g+g+g+g+g+g+g+g+g+g+g+g+g+g+g+g+g+g+g+g+g+g+g+R+S+T+I+U+U+V+",
"W+X+Y+Z+`+ @&+.@+@+@+@+@+@+@+@+@+@+@+@+@+@+@+@+@+@+@+@+@+@+@+@+@+@+@+@+@+@+@+@+@+@+@+@%+@@#@$@$@%@&@",
"*@=@-@;@>@,@'@)@)@)@)@)@)@)@)@)@)@)@)@)@)@)@)@)@)@)@)@)@)@)@)@)@)@)@)@)@)@)@)@)@)@)@)@!@~@{@-.]@^@/@",
"(@_@:@<@[@}@|@%+%+%+%+%+%+%+%+%+%+%+%+%+%+%+%+%+%+%+%+%+%+%+%+%+%+%+%+%+%+%+%+%+%+%+#+1@2@3@4@5@6@7@",
"8@9@0@_@p+a@b@].!@!@!@!@!@!@!@!@!@!@!@!@!@!@!@!@!@!@!@!@!@!@!@!@!@!@!@!@!@!@!@!@!@!@c@d@e@f@H g@h@i@",
"j@k@l@m@n@o@p@q@q@q@q@q@q@q@q@q@q@q@q@q@q@q@q@q@q@q@q@q@q@q@q@q@q@q@q@q@q@q@q@q@q@q@l.r@s@t@u@u@v@w@",
"x@y@z@A@B@C@=+D@E@E@E@E@E@E@E@E@E@E@E@E@E@E@E@E@E@E@E@E@E@E@E@E@E@E@E@E@E@E@E@E@E@E@D@F@G@H@I@J@K@L@",
"M@N@O@P@Q@R@S@T@T@T@T@T@T@T@T@T@T@T@T@T@T@T@T@T@T@T@T@T@T@T@T@T@T@T@T@T@T@T@T@T@T@T@U@V@W@X@Y@Z@`@L@",
"s  #.#+#@###$#%#&#&#&#&#&#&#&#&#&#&#&#&#&#&#&#&#&#&#&#&#&#&#&#&#&#&#&#&#&#&#&#&#&#&#&#*#=#-#;#;#>#,#",
"'#)#!#~#{#]#^#$#*#*#*#*#*#*#*#*#*#*#*#*#*#*#*#*#*#*#*#*#*#*#*#*#*#*#*#*#*#*#*#*#*#*#$#/#(#_#:#<#<#[#",
"}#[ 1 |#1#@@2#3#3#3#4#4#4#4#4#4#4#4#4#4#4#4#4#4#4#4#4#4#4#4#4#4#4#4#4#4#4#4#4#3#3#3#4#5#6#7#8#8#9#0#",
"a#_ W b#c#~@d#5#5#5#e#e#e#e#5#f#f#f#f#f#f#f#f#f#f#f#f#f#f#f#f#f#f#f#f#f#f#e#e#5#5#5#e#g#6+h#i#j#j#k#",
"l#V v Y m#n#o#p#^+q#r#s#s#s#s#s#s#t#s#s#t#s#s#t#t#t#t#g#s#s#s#s#t#t#t#t#t#s#s#r#q#^+u#v#w#f+x#y#z#6.",
"A#Z B#{ C#D#E#F#E#E#G#H#I#J#K#L#M#N#O#P#Q#R#R#R#R#Q#Q#R#P#Q#P#P#N#M#L#S#J#I#H#G#T#E#F#F#U#V#W#X#S@Y#",
"Z#`#`# $.$+$@$#$$$$$$$$$$$$$$$$$$$$$$$$$$$E#E#%$%$E#E#E#E#$$$$$$$$@$$$$$$$$$#$$$#$#$$$#$&$*$=$|@|@-$",
";$8 8  .>$,$'$)$)$)$)$)$)$)$)$)$)$!$)$!$)$)$)$)$)$)$)$)$)$)$)$)$)$)$)$)$)$)$)$)$)$)$~$'${$]$^$/$($_$",
":$<$<$9 [$}$|$1$|$|$|$|$|$|$|$|$|$|$|$|$|$|$|$|$|$|$|$|$|$|$|$|$|$|$|$|$|$|$|$|$|$|$|$2$3$4$(+U.7+5$",
"b.6$6$:$X@6+7$8$8$8$8$8$8$8$8$8$8$8$8$8$8$8$8$8$8$8$8$8$8$8$8$8$8$8$8$8$8$8$8$8$8$8$7$7$9$N#0$a$b$c$",
"I d$e$f$g$&$h$h$h$h$h$h$h$h$h$h$h$h$h$h$h$h$h$h$h$h$h$h$h$h$h$h$h$h$h$h$h$h$h$h$h$h$h$h$i$j$)@($k$l$",
"m$n$g.o$p${$q$q$q$q$q$q$q$q$q$q$q$q$q$q$q$q$q$q$q$q$q$q$q$q$q$q$q$q$q$q$q$q$q$q$q$q$q$q$r$s$t$|@y+u$",
".$^@]@%@f@3$v$v$v$v$v$v$v$v$v$v$v$v$v$v$v$v$v$v$v$v$v$v$v$v$v$v$v$v$v$v$v$v$v$v$v$v$v$v$w$x$y$F@r@z$",
"A$I+B$K.C$D$E$E$E$E$E$E$E$E$E$E$E$E$E$E$E$E$E$E$E$E$E$E$E$E$E$E$E$E$E$E$E$E$E$E$E$E$E$E$F$G$H$I$J$K$",
"L$M$N$O$P$Q$R$S$S$S$S$S$S$S$S$S$S$S$S$S$S$S$S$S$S$S$S$S$S$S$S$S$S$S$S$S$S$S$S$S$S$S$S$R$T$U$V$W$X$>#",
"Y$Z$`$ %.%+%@%#%#%#%#%#%#%#%#%#%#%#%#%#%#%#%#%#%#%#%#%#%#%#%#%#%#%#%#%#%#%#%#%#%#%#%$%#%9+%%&%i#*%=%",
"-%;%>%,%'%)%!%!%!%!%!%!%!%!%!%!%!%!%!%!%!%!%!%!%!%!%!%!%!%!%!%!%!%!%!%!%!%!%!%!%!%!%!%~%{%]%^%/%&%(%",
",%,%_%:%<%[%}%|%|%|%|%|%|%|%|%|%|%|%|%|%|%|%|%|%|%|%|%|%|%|%|%|%|%|%|%|%|%|%|%|%|%|%|%|%1%2%3%~ 4%5%",
":%:%6%6%7%8%9%0%0%0%0%0%0%0%0%0%0%0%0%0%0%0%0%0%0%0%0%0%0%0%0%0%0%0%0%0%0%0%0%0%0%0%0%0%a%b%z  $3%c%",
"d%e%e%f%7%{%g%g%g%g%g%g%g%g%g%g%g%g%g%g%g%g%g%g%g%g%g%g%g%g%g%g%g%g%g%g%g%g%g%g%g%g%g%g%h%i% .j%` k%",
"l%e%d%d%<%m%n%n%n%n%n%n%n%n%n%n%n%n%n%n%n%n%n%n%n%n%n%n%n%n%n%n%n%n%n%n%n%n%n%n%n%n%n%n%o%p%q%r% .s%",
"t%d%u%d%k+v%w%x%x%x%x%x%x%x%x%x%x%x%x%x%x%x%x%x%x%x%x%x%x%x%x%x%x%x%x%x%x%x%x%x%x%x%x%x%y%z%A%q%A B%",
"C%d%e%:%D%E%F%F%F%F%F%F%F%F%F%F%F%F%F%F%F%F%F%F%F%F%F%F%F%F%F%F%F%F%F%F%F%F%F%F%F%F%F%F%G%z%<$9 ..H%",
"I%e%:%_%I%J%K%L%L%L%L%L%L%L%L%L%L%L%L%L%L%L%L%L%L%L%L%L%L%L%L%L%L%L%L%L%L%L%L%L%L%L%L%M%#@N%O%C 9 P%",
"Q%:%_%>%R%S%T%U%V%W%X%X%X%X%X%X%X%X%X%X%X%X%X%X%X%X%W%X%X%X%X%X%X%X%X%X%X%X%X%Y%X%V%Z%`% &.&+&O%@&#&",
"$&l%>%%&&&&&*&=&-&;&>&,&y%v%'&w$M%)&!&Y%D#~&{&2@]&^&/&(&_&T$:&<&[&}&|&1&2&=&3&4&5&6&7&Q%d$E E a 8&9&",
"0&a&%&b&c&U+d&e&f&g&h&i&j&l$f#k&d@%+l&m&U.(+n U.n&o&p&l.q&r&s&t&u&v&C 6$c%N%w&x&y&z&A&B&C&C&D&D&E&F&",
"G&H&C$M$I+I&i%J&K&L&<#4%M&1+X#t$)@D+U.Q * l l * N&O&o o+b@P&H$s Q& $A +.@.D&$.R&S&S&T&U&F C&V&W&X&Y&",
"@ Z&`& *.*+*@*(%h&K$#*p#$*$#r@]._+0$(+%** & l * Q &*o o+t$P&r&**=*Z j%B @&6$C&F -*;*S&T&>*,*'*)*!*'.",
"+ i ~*{*]*g$i%Z@>#^*J+l$/*$#^.].Q+D+(*(+_*:*<*(+[*}*|*y+1*2*H$3*v a#9.[.@&4*C&d$%.5*z&6*7*8*9*0*i @ ",
"# + i L a*b*c*F+d*e*i%#&c#f*g*h*i*j*k*l*m*m*@*@*@*k*n*f&o*p*f*q*r*s*t*c.u*v*v*v*w*x*S+y*z*A*B*G&@ . "};
