/* XPM */
static char * gray_01_xpm[] = {
"50 50 194 2",
"  	c #FFC07A",
". 	c #FABE7D",
"+ 	c #ECCBAF",
"@ 	c #E2DBD6",
"# 	c #E6E5E4",
"$ 	c #E8E8E8",
"% 	c #E7E7E7",
"& 	c #E6E6E6",
"* 	c #E4E4E4",
"= 	c #E3E3E3",
"- 	c #E2E2E2",
"; 	c #E1E1E1",
"> 	c #E0E0E0",
", 	c #DFDFDF",
"' 	c #DEDEDE",
") 	c #DCDCDC",
"! 	c #DBDBDB",
"~ 	c #DADADA",
"{ 	c #D9D9D9",
"] 	c #D8D8D8",
"^ 	c #D7D7D7",
"/ 	c #D5D5D5",
"( 	c #D4D4D4",
"_ 	c #D3D3D3",
": 	c #D2D2D2",
"< 	c #D1D1D1",
"[ 	c #D0D0D0",
"} 	c #CFCFCF",
"| 	c #CDCDCD",
"1 	c #CCCCCC",
"2 	c #CBCBCB",
"3 	c #CACACA",
"4 	c #C9C9C9",
"5 	c #C8C8C8",
"6 	c #C6C6C6",
"7 	c #C5C5C5",
"8 	c #C4C4C4",
"9 	c #C3C3C3",
"0 	c #C2C2C2",
"a 	c #C1C1C1",
"b 	c #BFBFBF",
"c 	c #B9B9B9",
"d 	c #ACAAA8",
"e 	c #B5A394",
"f 	c #EEB77E",
"g 	c #F2BD87",
"h 	c #DFD7D2",
"i 	c #EAEAEA",
"j 	c #F4F4F4",
"k 	c #F8F8F8",
"l 	c #F7F7F7",
"m 	c #F6F6F6",
"n 	c #F5F5F5",
"o 	c #F3F3F3",
"p 	c #F2F2F2",
"q 	c #F1F1F1",
"r 	c #F0F0F0",
"s 	c #EFEFEF",
"t 	c #EEEEEE",
"u 	c #EDEDED",
"v 	c #ECECEC",
"w 	c #EBEBEB",
"x 	c #E9E9E9",
"y 	c #E5E5E5",
"z 	c #AAA6A3",
"A 	c #D5AB83",
"B 	c #F7BE80",
"C 	c #DED9D5",
"D 	c #A6A5A5",
"E 	c #E2B281",
"F 	c #DDCBBC",
"G 	c #B7A697",
"H 	c #FEBF7A",
"I 	c #EDB984",
"J 	c #E2E1E1",
"K 	c #DDDDDD",
"L 	c #D6D6D6",
"M 	c #B0B0AF",
"N 	c #D8AD83",
"O 	c #E5C4A8",
"P 	c #9E948D",
"Q 	c #C5C2C0",
"R 	c #CECECE",
"S 	c #939393",
"T 	c #969696",
"U 	c #C7C7C7",
"V 	c #959595",
"W 	c #BDBDBD",
"X 	c #C0C0C0",
"Y 	c #BABABA",
"Z 	c #929292",
"` 	c #BEBEBE",
" .	c #BCBCBC",
"..	c #BBBBBB",
"+.	c #B8B8B8",
"@.	c #B7B7B7",
"#.	c #B5B5B5",
"$.	c #B4B4B4",
"%.	c #B3B3B3",
"&.	c #B2B2B2",
"*.	c #B0B0B0",
"=.	c #AFAFAF",
"-.	c #ADADAD",
";.	c #ACACAC",
">.	c #AAAAAA",
",.	c #A9A9A9",
"'.	c #A8A8A8",
").	c #A6A6A6",
"!.	c #A5A5A5",
"~.	c #A4A4A4",
"{.	c #A2A2A2",
"].	c #AEAEAE",
"^.	c #909090",
"/.	c #B6B6B6",
"(.	c #B1B1B1",
"_.	c #ABABAB",
":.	c #A7A7A7",
"<.	c #A3A3A3",
"[.	c #A0A0A0",
"}.	c #9F9F9F",
"|.	c #9E9E9E",
"1.	c #8F8F8F",
"2.	c #A1A1A1",
"3.	c #9D9D9D",
"4.	c #9B9B9B",
"5.	c #8D8D8D",
"6.	c #9C9C9C",
"7.	c #8B8B8B",
"8.	c #8A8A8A",
"9.	c #888888",
"0.	c #878787",
"a.	c #858585",
"b.	c #848484",
"c.	c #838383",
"d.	c #818181",
"e.	c #7F7F7F",
"f.	c #7E7E7E",
"g.	c #7C7C7C",
"h.	c #7B7B7B",
"i.	c #7A7A7A",
"j.	c #787878",
"k.	c #777777",
"l.	c #757575",
"m.	c #747474",
"n.	c #727272",
"o.	c #717171",
"p.	c #6F6F6F",
"q.	c #6E6E6E",
"r.	c #6D6D6D",
"s.	c #6B6B6B",
"t.	c #6A6A6A",
"u.	c #696969",
"v.	c #676767",
"w.	c #9A9A9A",
"x.	c #656565",
"y.	c #999999",
"z.	c #646464",
"A.	c #989898",
"B.	c #626262",
"C.	c #A19891",
"D.	c #5D5D5D",
"E.	c #D1AB87",
"F.	c #585858",
"G.	c #F4B979",
"H.	c #A7A4A1",
"I.	c #8F745B",
"J.	c #CCA989",
"K.	c #635E5A",
"L.	c #EEB474",
"M.	c #F9BC79",
"N.	c #B5A191",
"O.	c #636160",
"P.	c #CE9E6B",
"Q.	c #F9BC7A",
"R.	c #BCA28C",
"S.	c #645F5B",
"T.	c #D1A06C",
"U.	c #E0B07F",
"V.	c #B29D8B",
"W.	c #979595",
"X.	c #979797",
"Y.	c #949494",
"Z.	c #919191",
"`.	c #8E8E8E",
" +	c #8C8C8C",
".+	c #898989",
"++	c #868686",
"@+	c #828282",
"#+	c #808080",
"$+	c #767676",
"%+	c #737373",
"&+	c #707070",
"*+	c #65605C",
"=+	c #AF8A66",
"      . + @ # $ % & * = - ; > , ' ) ! ~ { ] ^ / ( _ : < [ } | 1 2 3 4 5 6 7 8 9 0 a b c d e f       ",
"    g h i j k l l m m n n j j j o p p q q r r s s t t u u v v w w i x x $ % % & & y * * ' 6 z A     ",
"  B C t l l l l l l l m m m m n j j j o o o p p q q r r r s s t t u u v v w w i i x % = > , : D E   ",
"  F w m m m l l m n n j j j o o p p q q r r s s t t u u v v w w i x x $ $ % % & & y y & = ) ~ 3 G H ",
"I J j n n n j o p q q r r s t t u v v w i i x $ % % & y y * = - - ; > , ' ' K ) ! ~ ~ ! ' ' ^ L M N ",
"O $ j j o p p q r s s t u u v w w i x x $ % & y y * = - - ; > , ' ' K ) ) ! ~ { ] ^ L L / L L : a P ",
"Q w p p q r r s t u u v w i i x $ % % & y * * = - ; ; > , ' K ) ! ! ~ { ] ^ L / ( _ : : < [ [ R 5 S ",
"6 i q r s t t u v w w i x $ % % & y * * = - ; > , ' ' K ) ! ~ { ] ^ L L / ( _ : < [ } R | 1 2 3 7 T ",
"7 $ t t u v w w i x $ % & & y y * = - ; > , , K K ) ! ~ { ] ^ L / ( _ : < [ } R R 1 2 3 4 5 U 6 a V ",
"8 % u v w i i x $ % & y y * = - ; > , ' K ) ) ! ~ ] ] L L / ( _ : < [ } R | 1 2 3 4 U 6 7 8 9 0 W S ",
"0 y w w i x $ & y * * = - ; > , ' K ) ! ~ { ] ^ L / ( _ : < [ } R | 1 2 3 5 5 U 6 7 9 0 a a X b Y Z ",
"a * i x = ) ^ ( : < } R | 2 3 4 U 6 7 9 0 a b `  ...c +.@.#.$.%.&.*.=.-.;.>.,.'.).!.~.{.{.!.].c +.^.",
"b - & ) ^ / ( : < [ R | 1 3 4 5 6 7 9 0 a X ` W ..Y c @./.$.%.&.(.=.].;._.>.'.:.).!.<.{.[.}.|.|.,.1.",
"` ' ~ ] L / _ : < } R | 1 3 4 5 6 7 8 0 a X ` W  .Y c +./.#.$.%.(.*.].-.;._.,.'.:.!.~.<.2.[.}.3.4.5.",
"W ^ ] ^ L / _ : < [ R | 1 3 4 5 6 7 8 9 a X b W  ...c +.@./.$.%.&.*.=.].-._.>.,.:.).!.~.<.2.[.|.6.7.",
"..^ ] ^ L ( _ : < [ R | 2 3 4 5 U 7 8 9 a X b ` W ..Y c +./.#.$.%.(.*.=.].;._.>.'.:.).!.~.{.2.[.3.8.",
"Y L ] ^ / ( _ : < } R | 1 3 4 5 U 6 7 9 0 a b ` W  ...Y +.@./.$.%.&.(.*.=.-.;._.>.'.:.).!.~.{.2.|.9.",
"c / ] ^ / ( _ : < [ R | 1 2 4 5 U 6 7 8 0 a X b ` W ..Y c +./.#.$.%.&.(.*.].-.;._.>.'.:.).!.~.{.}.0.",
"@.( ] ^ / ( _ : < [ } | 1 2 3 4 5 6 7 8 9 0 a X ` W  ...Y c +./.#.$.%.&.(.=.].-.;._.>.,.:.).!.~.2.a.",
"/.( ] ^ L / _ : < [ } R | 2 3 4 5 U 6 7 8 9 a X b ` W  .Y Y +.@./.#.$.%.&.(.=.].-.;._.>.,.'.:.).{.b.",
"#._ ] ^ L / _ : < [ } R | 1 2 3 4 U 6 7 8 9 0 a X b ` W  .Y Y +.+./.#.$.%.&.(.*.=.].-._.>.,.'.:.<.c.",
"%._ ] ^ L / ( _ : [ [ } R | 2 3 4 5 U 6 7 8 9 0 a X b ` W  ...Y c @./.#.$.%.&.(.*.=.].-.;._.>.,.!.d.",
"&.: ] ^ L / ( _ : < [ } R | 1 2 3 4 5 U 6 7 8 9 0 a X b ` W  ...Y c +.@./.#.$.%.&.*.=.].].;._.>.:.e.",
"(.: { ] L L / ( : : < [ } R | 1 2 3 4 5 U 6 7 8 9 0 a X b ` W  ...Y c +.@./.#.$.%.&.(.*.=.].-.;.'.f.",
"*.: { ] ^ L / ( _ : < [ } R | | 1 2 3 4 5 U 6 7 8 9 0 a X b ` W  .....Y c +.@./.#.$.%.&.(.*.=.].>.g.",
"].< { ] ^ L L / ( _ : < [ } R | | 1 2 3 4 5 U 6 7 8 9 0 0 X X b ` W  ...Y c +.@././.#.$.%.&.(.*._.h.",
"-.< ~ { ] ^ L / / _ _ : < [ } R R | 1 2 3 4 5 U U 6 7 8 9 0 a X b ` ` W  ...Y c +.@.@./.#.$.%.&.-.i.",
";.< ~ { { ] ^ L / ( ( _ : < [ } R R | 1 2 3 4 4 5 U 6 7 8 9 9 0 a X b ` W W  ...Y c +.+.@./.#.$.=.j.",
">.< ! ~ { { ] ^ L / ( _ _ : < [ [ } R | 1 2 2 3 4 5 U U 6 7 8 9 9 0 a X b b ` W  ...Y Y c +.@./.(.k.",
",.[ ) ! ~ { ] ] ^ L / / ( _ : : < [ } R R | 1 2 2 3 4 5 U U 6 7 8 8 9 0 a X X b ` W W  ...Y Y c %.l.",
"'.[ ) ) ! ~ { { ] ^ L L / ( ( _ : < < [ } R R | 1 2 2 3 4 5 5 U 6 7 7 8 9 0 0 a X b b ` W  . ...#.m.",
").[ K K ) ! ~ ~ { ] ] ^ L L / ( _ _ : < [ [ } R R | 1 1 2 3 4 4 5 U U 6 7 7 8 9 0 a a X b b ` W @.n.",
"!.[ ' K K ) ) ! ~ { { ] ^ ^ L / / ( _ _ : < < [ } } R | | 1 2 2 3 4 5 5 U U 6 7 8 8 9 9 0 a X X c o.",
"~.[ , , ' K K ) ! ! ~ { { ] ^ ^ L L / ( _ _ : : < [ [ } } R | | 1 2 3 3 3 4 5 U U 6 6 7 8 8 9 0  .p.",
"<.[ > > , ' ' K K ) ! ! ~ { { ] ] ^ ^ L / / ( _ _ : : < [ [ } R R | | 1 1 2 3 3 4 5 5 U U 6 6 7 ` q.",
"2.< ; ; > > , , ' K K ) ) ! ~ ~ { { ] ] ^ L L / / ( ( _ : : < < [ [ } } R | | 1 1 2 3 3 4 4 5 5 a r.",
"[.< - - ; ; > > , , ' ' K K ) ) ! ! ~ { { ] ] ^ ^ L L / ( ( _ _ : : < < [ [ } R R R | 1 1 2 2 3 9 s.",
"}.< * = = - - ; ; > > , , ' ' K K ) ) ! ! ~ ~ { { ] ] ^ ^ L L / / ( _ _ : : < < [ [ } } R R | | 6 t.",
"3.: y y * * = = - - - ; ; > > , ' ' ' K K ) ) ! ! ~ ~ { { ] ] ^ ^ ^ L L / / ( ( _ _ : : < < [ [ 5 u.",
"6.: % & & y y * * = = = - - ; ; > > > , , ' ' K K ) ) ) ! ! ~ ~ { { ] ] ] ^ ^ L L / / ( ( ( _ _ 2 v.",
"w._ $ % % % & & & y y * * * = = - - - ; ; > > , , , ' ' K K K ) ) ) ! ~ ~ ~ { { { ] ] ^ ^ L L L R x.",
"y._ i x x x $ $ % % % & & & y y * * * = = = - - ; ; ; > > > , , , ' ' K K K ) ) ) ! ! ~ ~ ~ { { < z.",
"A.( w w i i i i x x x $ $ $ % % % & & & y y y * * * = = = - - ; ; ; > > > , , , ' ' ' K K K ) ) ( B.",
"C.} u v v v v w w w i i i x x x x $ $ $ % % % % & & & y y y * * * = = = = - - - ; ; ; > > > > , < D.",
"E.W s t t t t u u u u v v v w w w w i i i x x x x $ $ $ $ % % % & & & & y y y y * * * * = = = = ..F.",
"G.H.y r r r r s s s s t t t t t u u u u v v v v w w w w i i i i x x x x $ $ $ $ % % % % % & & * a.I.",
"  J.+.r p p q q q q q r r r r r s s s s s t t t t t t u u u u u v v v v v w w w w w i i i i x @.K.L.",
"  M.N.` r j j o o o o o o o p p p p p q q q q q r r r r r r s s s s s s t t t t t t t t u v b O.P.  ",
"    Q.R.,./ t n n n n n j j j j j j j o o o o o o o p p p p p p p p q q q q q q q q r v : V S.T.    ",
"      H U.V.W.6.6.4.y.A.X.V Y.S Z.^.1.`. +7..+9.0.++b.c.@+#+e.f.g.h.i.j.k.$+l.%+n.o.&+x.*+=+L.      "};
