/* XPM */
static char * vide_xpm[] = {
"50 50 16 1",
" 	c #EDEDED",
".	c #EEEEEE",
"+	c #F0F0F0",
"@	c #F1F1F1",
"#	c #F2F2F2",
"$	c #F3F3F3",
"%	c #F4F4F4",
"&	c #EFEFEF",
"*	c #F5F5F5",
"=	c #F6F6F6",
"-	c #F7F7F7",
";	c #F8F8F8",
">	c #ECECEC",
",	c #EBEBEB",
"'	c #EAEAEA",
")	c #E9E9E9",
"  ..+++++++++++++++@#$#$###%%%%%%%%%%%%%%%%%%%%%%%",
" ...+++++++++++++@###$%%%%%%%%%%%%%%%%%%%%%%%%%%%%",
" ..&+++++++++++@##$%%%%%%%%%%%%**********==***%%%%",
" .&&+++++++++@@#$$%%%%%%******%------=--------=***",
".&&+++++++++@##$%%%%%%%========;;;;;;;;;;;;;;;-===",
"&&+++++++++@#$$%%%%%=**====----;;;;;;;;;;;;;;;;---",
"&&++++++++@$%%%%%%%%===----;;;;;;;;;;;;;;;;;;;;;;;",
"&++++++++@#$%%%%**=====;;;;;;;;;;;;;;;;;;;;;;;;;;;",
"+++++++++#$%%%%%====-=-;;;;;;;;;;;;;;;;;;;;;;;;;;;",
"+++++++#$%%%%%%*==-;;;;;;;;;;;;;;;;;;;;;;;;;;;;;;;",
"++++++##%%%%%%===-;;;;;;;;;;;;;;;;;;;;;;;;;;;;;;;;",
"+++++@$$%%%%%*=--;;;;;;;;;;;;;;;;;;;;;;;;;;;;;;;;;",
"++++##%%%%%%===-;;;;;;;;;;;;;;;;;;;;;;;;;;;;;;;;;;",
"++++@#%%%%*===-;;;;;;;;;;;;;;;;;;;;;;;;;;;;;;;;;;;",
"++++$#%%%%*==-;;;;;;;;;;;;;;;;;;;;;;;;;;;;;;;;;;;;",
"++++#$%%%*==-;;;;;;;;;;;;;;;;;;;;;;;;;;;;;;;;;;;;;",
"+++@#%%%%===-;;;;;;;;;;;;;;;;;;;;;;;;;;;;;;;;;;;;;",
"++@#%%%%%===-;;;;;;;;;;;;;;;;;;;;;;;;;;;;;;;;;;;;;",
"++@$%%%%%===-;;;;;;;;;;;;;;;;;;;;;;;;;;;;;;;;;;;;;",
"+@#$%%%%%===-;;;;;;;;;;;;;;;;;;;;;;;;;;;;;;;;;;;;;",
"+@#$%%%%%==--;;;;;;;;;;;;;;;;;;;;;;;;;;;;;;;;;;;;;",
"+@#$%%%%%*-=-;;;;;;;;;;;;;;;;;;;;;;;;;;;;;;;;;;;;;",
"+@#$%%%%%*=--;;;;;;;;;;;;;;;;;;;;;;;;;;;;;;;;;;;;;",
"+@#%%%%%**==-;;;;;;;;;;;;;;;;;;;;;;;;;;;;;;;;;;;;;",
"+@#%%%%%*===-;;;;;;;;;;;;;;;;;;;;;;;;;;;;;;;;;;;;;",
"+@#%%%%%*-==-;;;;;;;;;;;;;;;;;;;;;;;;;;;;;;;;;;;;;",
"+@#%%%%%**==-;;;;;;;;;;;;;;;;;;;;;;;;;;;;;;;;;;;;;",
"+@$%%%%%==*--;;;;;;;;;;;;;;;;;;;;;;;;;;;;;;;;;;;;;",
"+@#%%%%%*===-;;;;;;;;;;;;;;;;;;;;;;;;;;;;;;;;;;;;;",
"+@#%%%%%*==--;;;;;;;;;;;;;;;;;;;;;;;;;;;;;;;;;;;;;",
"+@#%%%%%*===-;;;;;;;;;;;;;;;;;;;;;;;;;;;;;;;;;;;;;",
"++##%%%%%==-;;;;;;;;;;;;;;;;;;;;;;;;;;;;;;;;;;;;;;",
"++@$%%%%%*=-;;;;;;;;;;;;;;;;;;;;;;;;;;;;;;;;;;;;;;",
"+++@$%%%%%%=;;;;;;;;;;;;;;;;;;;;;;;;;;;;;;;;;;;;;;",
"++++#$%%%%**--;;;;;;;;;;;;;;;;;;;;;;;;;;;;;;;;;;;;",
"++++##%%%%*====;;;;;;;;;;;;;;;;;;;;;;;;;;;;;;;;;;;",
"+++++@$%%%%%*===-=-;;;;;;;;;;;;;;;;;;;;;;;;;;;;;;;",
".+++++##$%%%%%-====-;;;;;;;;;;;;;;;;;;;;;;;;;;;;;;",
".&+++++@#$%%%%*====-;;;;;-;;;;;;;;;;;;;;;;;;;;;;;;",
"..&+++++##%%%%%%%**========;;;;;;;;;;;;;;;;;;;;;;;",
"....&++++@$$%%%%%%%*=======--=--==-;;;;;;;;;;;;;;;",
"  .&.&++++##%%%%%%%*=======-=-==========--=-==-;;;",
"  ..&.+++++@$$%%%%%%%******======-==*====-=====---",
"   ....&++++@#$%%%%%%%%%%%%%*====*=**=**=*===*-===",
"     ...&+++++###$%%%%%%%%%%%%%****%%%%%%%%%%%%%%%",
"        ..+++++@###$%%%%%%%%%%%%%%%%%%%%%%%%%%%%%%",
">        ..&++++++@@$#$##$%%%%%%%%%%%%%%%%%%%%%%%%",
",>>         .&++++++@@@@#####$$%%%%%%%%%%%%$$$$$$%",
"',>         ...&++++++++++++@@@#$$##$$##$$$@#@@@#@",
"),,>>         ....&+++++++++++++++++++++@@@+++++++"};
