/* XPM */
static char * 2_xpm[] = {
"50 50 324 2",
"  	c #6B2B35",
". 	c #A22A3E",
"+ 	c #A42A3E",
"@ 	c #A42B3E",
"# 	c #A82B3F",
"$ 	c #AC2B40",
"% 	c #AB2B40",
"& 	c #AB2B3F",
"* 	c #AA2B3F",
"= 	c #A52A3E",
"- 	c #A52B3F",
"; 	c #A0283C",
"> 	c #812837",
", 	c #802A39",
"' 	c #BF2D43",
") 	c #B52B41",
"! 	c #BB2C42",
"~ 	c #C32E44",
"{ 	c #C42E44",
"] 	c #CB2B44",
"^ 	c #CB2C44",
"/ 	c #CC2B44",
"( 	c #C72D44",
"_ 	c #BD2C42",
": 	c #BA2C42",
"< 	c #BC2C42",
"[ 	c #832A39",
"} 	c #C82C43",
"| 	c #C22F44",
"1 	c #C73D49",
"2 	c #D24751",
"3 	c #D34852",
"4 	c #D0434F",
"5 	c #C73146",
"6 	c #D23649",
"7 	c #D3404E",
"8 	c #D32E46",
"9 	c #CF2B44",
"0 	c #CD2B44",
"a 	c #CE2B44",
"b 	c #C52E44",
"c 	c #C02D43",
"d 	c #8E2B3B",
"e 	c #C33045",
"f 	c #C84B4E",
"g 	c #CB6E5D",
"h 	c #DC7D71",
"i 	c #DF8376",
"j 	c #DD7B70",
"k 	c #D34E55",
"l 	c #D03046",
"m 	c #D45157",
"n 	c #DF8075",
"o 	c #DB756D",
"p 	c #D3424F",
"q 	c #D32D45",
"r 	c #D22C45",
"s 	c #D02C45",
"t 	c #D02B44",
"u 	c #D12C45",
"v 	c #C92D44",
"w 	c #BE2C43",
"x 	c #952A3C",
"y 	c #C53346",
"z 	c #D3625B",
"A 	c #DB8C73",
"B 	c #E39480",
"C 	c #E49682",
"D 	c #E3937F",
"E 	c #DA7569",
"F 	c #D33E4B",
"G 	c #D45357",
"H 	c #E0917B",
"I 	c #E08576",
"J 	c #D44E56",
"K 	c #D32D46",
"L 	c #D92B44",
"M 	c #D42C45",
"N 	c #D72B45",
"O 	c #D52B45",
"P 	c #D82B45",
"Q 	c #D62B45",
"R 	c #D32C45",
"S 	c #902A3B",
"T 	c #CA3146",
"U 	c #D35F5A",
"V 	c #DD8C76",
"W 	c #E49480",
"X 	c #DF8172",
"Y 	c #D54550",
"Z 	c #D43649",
"` 	c #D55A5A",
" .	c #D5575A",
"..	c #D93B4B",
"+.	c #DB2A44",
"@.	c #DC2A44",
"#.	c #C62E44",
"$.	c #982A3C",
"%.	c #CC3046",
"&.	c #D5585B",
"*.	c #DF8476",
"=.	c #E49581",
"-.	c #E4937E",
";.	c #DE7C6F",
">.	c #DB424F",
",.	c #E32A45",
"'.	c #DD2B45",
").	c #DE2A44",
"!.	c #DD2A44",
"~.	c #D52C45",
"{.	c #C82D44",
"].	c #C32C43",
"^.	c #D24450",
"/.	c #D86262",
"(.	c #DF7E70",
"_.	c #E08474",
":.	c #DC7469",
"<.	c #D84A53",
"[.	c #DB2B45",
"}.	c #E02944",
"|.	c #E52744",
"1.	c #E52844",
"2.	c #E32844",
"3.	c #CC2C44",
"4.	c #CD2C44",
"5.	c #D13548",
"6.	c #D54A53",
"7.	c #D54C54",
"8.	c #D43549",
"9.	c #DC2844",
"0.	c #E12844",
"a.	c #A52B3E",
"b.	c #D02B45",
"c.	c #DA2A44",
"d.	c #DD2944",
"e.	c #E42744",
"f.	c #EC2746",
"g.	c #ED2746",
"h.	c #ED2846",
"i.	c #E92745",
"j.	c #C72C44",
"k.	c #DA2B44",
"l.	c #DE2944",
"m.	c #EE2746",
"n.	c #EE2846",
"o.	c #E82745",
"p.	c #CB2D45",
"q.	c #A72B3E",
"r.	c #CC2D45",
"s.	c #E72845",
"t.	c #EA2745",
"u.	c #CA2D44",
"v.	c #E92845",
"w.	c #D02A43",
"x.	c #D02942",
"y.	c #EB2745",
"z.	c #C82C44",
"A.	c #D92843",
"B.	c #B12339",
"C.	c #B5233A",
"D.	c #DD2743",
"E.	c #CF2C44",
"F.	c #C2253C",
"G.	c #A61C32",
"H.	c #A91E33",
"I.	c #C2253D",
"J.	c #E52945",
"K.	c #D82943",
"L.	c #B02137",
"M.	c #A51C31",
"N.	c #B0243A",
"O.	c #D72742",
"P.	c #C9273F",
"Q.	c #A41C31",
"R.	c #A71D32",
"S.	c #C0263E",
"T.	c #E42845",
"U.	c #B2273D",
"V.	c #A51D32",
"W.	c #B02238",
"X.	c #D42741",
"Y.	c #C52B42",
"Z.	c #A71E34",
"`.	c #B9273D",
" +	c #E62845",
".+	c #DD2A45",
"++	c #B22238",
"@+	c #CC2941",
"#+	c #EB2846",
"$+	c #D02C44",
"%+	c #E42945",
"&+	c #C22A41",
"*+	c #A81E33",
"=+	c #DB2943",
"-+	c #E82845",
";+	c #DB2843",
">+	c #B32137",
",+	c #C9263F",
"'+	c #EC2845",
")+	c #AC2C3F",
"!+	c #C0243B",
"~+	c #A61D32",
"{+	c #B22137",
"]+	c #D82641",
"^+	c #AB2C3F",
"/+	c #A81D32",
"(+	c #C4263E",
"_+	c #E62945",
":+	c #D82B44",
"<+	c #E22744",
"[+	c #C3263E",
"}+	c #A72035",
"|+	c #B12037",
"1+	c #D32741",
"2+	c #EF2746",
"3+	c #D42843",
"4+	c #B02339",
"5+	c #B7253C",
"6+	c #DF2844",
"7+	c #E72945",
"8+	c #C3273F",
"9+	c #A71F34",
"0+	c #A92036",
"a+	c #CB2942",
"b+	c #EC2846",
"c+	c #EB2845",
"d+	c #D52641",
"e+	c #AD1E34",
"f+	c #A51C32",
"g+	c #AE2339",
"h+	c #D62742",
"i+	c #AD1F35",
"j+	c #AA1E33",
"k+	c #A91F34",
"l+	c #A81D33",
"m+	c #AA1F34",
"n+	c #C9253E",
"o+	c #A82B3E",
"p+	c #EC2745",
"q+	c #CC263F",
"r+	c #CA233D",
"s+	c #CA263F",
"t+	c #D42641",
"u+	c #CD263F",
"v+	c #CE2942",
"w+	c #CD253F",
"x+	c #CA253F",
"y+	c #CB253F",
"z+	c #CB263F",
"A+	c #D42A44",
"B+	c #CC243E",
"C+	c #DA2742",
"D+	c #EA2845",
"E+	c #DF2944",
"F+	c #E12944",
"G+	c #E72744",
"H+	c #C52C43",
"I+	c #E22944",
"J+	c #C62D44",
"K+	c #E42844",
"L+	c #992B3C",
"M+	c #932A3B",
"N+	c #CA2C44",
"O+	c #892B3A",
"P+	c #812A39",
"Q+	c #C72C43",
"R+	c #C12D43",
"S+	c #C32D43",
"T+	c #852B3A",
"U+	c #C12E43",
"V+	c #BE2C42",
"W+	c #BD2D43",
"X+	c #92293B",
"Y+	c #CC2942",
"Z+	c #CD2A43",
"`+	c #CA2A42",
" @	c #B6293F",
".@	c #7F2533",
"+@	c #A3293C",
"@@	c #A9263B",
"#@	c #A7273B",
"$@	c #A5283D",
"%@	c #AA253B",
"&@	c #A6283C",
"*@	c #A7273C",
"=@	c #A5293D",
"-@	c #AC243A",
";@	c #A6283D",
">@	c #A9263C",
",@	c #A5283C",
"'@	c #AB253B",
")@	c #AB253A",
"!@	c #A7283C",
"~@	c #AB243A",
"{@	c #A8273B",
"]@	c #A6273C",
"^@	c #982336",
"/@	c #6D1926",
"(@	c #801B2B",
"_@	c #821828",
":@	c #7D1929",
"<@	c #801C2B",
"[@	c #85192A",
"}@	c #821B2B",
"|@	c #7F1827",
"1@	c #811B2B",
"2@	c #84192A",
"3@	c #861829",
"4@	c #831A2A",
"5@	c #841A2A",
"6@	c #851829",
"7@	c #7C1726",
"8@	c #86182A",
"9@	c #821A2A",
"0@	c #7F1727",
"a@	c #831829",
"b@	c #841929",
"c@	c #7C1727",
"d@	c #7F1B2A",
"e@	c #7E1727",
"f@	c #601A25",
"g@	c #761624",
"h@	c #771624",
"i@	c #6E1624",
"  . + + + + @ # $ % & % % % % & & % & & & % % % & & & & % % % % & & % % % % % & * & = - - - + + ; > ",
", ' ) ) ! ~ { { { ] ^ ^ / ] ] ] ] ] ] ] ] ] ] ] ] ] ] ] ] ] ] ] ] ] ] ] ] ] ] ] ] ( ~ ~ ~ ~ _ : : < ",
"[ } | 1 2 3 4 5 ] 6 3 7 8 9 0 0 a 0 0 0 0 0 0 0 0 0 0 0 a 0 0 0 0 0 0 0 0 0 0 0 0 0 ( b b b ~ ! ! c ",
"d e f g h i j k l m n o p q 9 9 r s t 9 9 t 9 9 9 9 9 u u 9 9 9 9 9 9 9 9 t 9 9 t a 0 v ( b c ' _ w ",
"x y z A B C D E F G H I J K L L L M M N N M L L L L L L O P L L L L L L Q R L L Q r 0 0 / ( b b ~ c ",
"S T U V C C W X Y Z `  ...+.@.@.@.+.+.@.@.+.@.@.@.@.@.@.+.@.@.@.@.@.@.@.+.+.@.@.@.Q r u 0 / #.b b c ",
"$.%.&.*.W =.-.;.>.@.,.'.).).).).).).).).).).).).).).).).).).).).).).).).).).).).!.@.~.R s 0 ( b {.].",
"+ v ^./.(._.:.<.[.}.|.|.1.1.1.1.1.1.1.1.1.1.1.1.1.1.1.1.1.1.1.1.1.1.1.1.1.1.1.1.2.!.@.Q u a 0 {.{.].",
"= 3.4.5.6.7.8.9.0.|.|.|.|.|.|.|.|.|.|.|.|.|.|.|.|.|.|.|.|.|.|.|.|.|.|.|.|.|.|.|.|.2.!.+.Q u 0 0 ^ ( ",
"a.0 0 b.R c.d.e.|.f.g.g.h.h.h.g.h.g.h.g.h.h.h.g.g.h.g.h.h.h.g.h.g.g.h.h.h.g.h.g.i.|.2.@.@.Q r 0 9 j.",
"a.s 9 R k.@.l.|.|.h.m.n.n.n.n.n.n.m.n.n.n.n.n.n.m.n.n.n.n.n.n.n.n.n.n.n.n.n.n.m.n.o.|.!.@.@.M r t p.",
"q.0 9 R c.@.l.|.|.h.n.n.n.n.m.m.n.n.n.n.n.m.m.n.n.n.n.n.m.m.n.n.n.n.n.n.m.n.n.n.n.o.|.2.@.@.M r t p.",
"# u 9 R c.@.l.|.|.h.n.n.n.n.n.m.n.n.n.n.n.n.m.n.n.n.n.n.n.n.n.n.n.n.n.n.n.n.n.n.n.o.|.2.@.@.M r t r.",
"a.0 9 R c.@.l.|.|.g.n.n.m.n.n.m.m.n.n.n.n.n.m.n.n.n.n.m.n.m.n.m.n.n.m.n.m.n.m.n.n.o.|.2.@.@.M r t j.",
"a.s 9 R c.@.l.|.|.h.n.n.n.n.n.n.n.n.n.n.n.n.n.n.s.t.n.n.n.n.n.n.n.n.n.n.n.n.n.n.n.o.|.2.@.@.M r t u.",
"q.0 0 s c.@.l.|.|.h.n.n.n.n.n.n.n.n.n.n.n.n.n.v.w.x.y.n.n.n.n.n.n.n.n.n.n.n.n.n.n.o.|.2.@.@.M r t z.",
"# a 0 s c.@.l.|.|.h.n.n.n.n.n.n.n.n.n.n.n.n.h.A.B.C.D.n.n.n.n.n.n.n.n.n.n.n.n.n.n.o.|.2.@.@.M 9 t {.",
"a.E.a r c.@.l.|.|.h.m.n.n.n.n.n.n.m.n.n.n.n.i.F.G.H.I.J.n.n.n.n.n.n.n.n.n.n.n.m.n.o.|.2.@.@.M u t u.",
"a./ 9 R c.@.l.|.|.h.n.n.n.n.m.m.n.n.n.n.n.g.K.L.M.M.N.O.m.m.n.n.n.n.n.n.m.n.n.n.n.o.|.2.@.@.M r t p.",
"a.u 9 R c.@.l.|.|.h.n.n.n.m.n.n.n.n.n.n.n.y.P.Q.M.M.R.S.T.n.m.n.n.n.n.m.n.m.n.n.n.o.|.2.@.@.M r t p.",
"a.a 9 R c.@.l.|.|.g.n.n.n.n.n.m.n.n.n.n.m.L U.M.M.M.V.W.X.f.n.n.n.n.n.n.m.n.n.n.n.o.|.2.@.@.M r t v ",
"a.E.9 R c.@.l.|.|.h.n.n.n.n.n.n.n.n.n.n.t.Y.Z.M.M.M.M.G.`. +n.n.n.n.n.n.n.n.n.n.n.o.|.2.@.@.M r t u.",
"a.0 9 R c.@.l.|.|.h.n.n.n.n.n.n.n.n.n.n..+++M.M.M.M.M.M.V.@+#+n.n.n.n.n.n.n.n.n.n.o.|.2.@.@.M r t j.",
"* $+9 R c.@.l.|.|.h.n.n.n.n.n.n.n.n.n.%+&+*+M.M.M.M.M.M.M.++=+n.n.n.n.n.n.n.n.n.n.-+|.2.@.@.M u t u.",
"# a 9 R c.@.l.|.|.h.m.n.n.n.n.n.n.m.h.;+>+M.M.M.M.M.M.M.M.R.,+'+n.n.n.n.n.n.n.m.n.o.|.2.@.@.M 9 t {.",
")+a 9 R c.@.l.|.|.h.n.n.n.n.m.n.n.n.i.!+~+M.M.M.M.M.M.M.M.M.{+]+'+n.n.n.m.n.n.n.n.o.|.2.@.@.M r t p.",
"^+s 9 R c.@.l.|.|.h.n.n.n.m.n.n.n.h.K.L.M.M.M.M.M.M.M.M.M.M./+(+_+n.n.m.n.m.n.n.n.o.|.2.@.@.M r t p.",
"a.$+a r :+@.l.|.|.h.n.n.n.n.n.m.n.<+[+}+M.M.M.M.M.M.M.M.M.M.M.|+1+#+n.n.m.n.n.n.n.o.|.2.@.@.M r t u.",
"a.a 0 s Q @.l.|.|.g.n.n.n.n.n.n.2+3+4+M.M.M.M.M.M.M.M.M.M.M.M.V.5+6+h.n.n.n.n.n.n.o.|.2.@.@.M r t {.",
"a.0 a r c.@.l.|.|.h.n.n.n.n.n.n.7+8+9+M.M.M.M.M.M.M.M.M.M.M.M.M.0+a+b+n.n.n.n.n.n.o.|.2.@.@.M r t {.",
"^+s 9 R c.@.l.|.|.h.n.n.n.n.n.c+d+e+M.M.M.M.M.M.M.M.M.M.M.M.M.M.f+g+h+m.n.n.n.n.n.-+|.2.@.@.M r t u.",
"a.0 9 R c.@.l.|.|.h.m.n.n.n.n.c+1+i+/+*+j+H.k+*+*+*+*+*+l+m+*+l+/+*+n+-+n.m.n.m.n.o.|.2.@.@.M r t j.",
"o+E.9 R c.@.l.|.|.h.n.n.n.n.n.p+d.q+r+s+t+u+v+w+x+y+z+y+x+A+z+B+B+y+C+D+n.n.n.n.n.o.|.2.@.@.M r t r.",
"o+E.9 R c.@.l.|.|.h.n.n.n.m.n.n.f.c+c+c+g.b+p+m.c+c+c+y.c+n.p+b+h.c+n.m.n.m.n.n.n.o.|.2.@.@.M r t p.",
"a.u 9 R c.@.l.|.|.h.n.n.n.n.n.m.n.n.n.n.n.n.m.n.n.n.n.n.n.m.n.n.n.n.n.n.n.n.n.n.n.o.|.2.@.@.M r t p.",
"a.0 9 R c.@.l.|.|.g.n.n.m.n.n.n.m.n.n.n.n.n.m.n.n.n.n.m.n.m.n.m.n.n.m.n.n.n.m.n.n.o.|.2.@.@.M u t j.",
"a.E.9 R c.@.l.|.|.h.n.n.n.n.n.n.n.n.n.n.n.n.n.n.n.n.n.n.n.n.n.n.n.n.n.n.n.n.n.n.n.o.|.0.@.@.M 9 t v ",
"a.9 9 R c.@.E+|.|.g.n.n.n.n.n.n.n.n.n.n.n.n.n.n.n.n.n.n.n.n.n.n.n.n.n.n.n.n.n.n.n.o.|.@.@.L R 9 t v ",
"a.0 0 u M +.@.F+|.G+m.n.n.n.n.n.n.m.n.m.n.n.n.m.n.n.m.n.n.n.m.n.n.m.n.n.n.m.n.m.y.|.l.@.L M 9 0 a H+",
"@ ] / 0 u R Q @.I+|.|.|.|.|.|.|.|.|.|.|.|.|.|.|.|.|.|.|.|.|.|.|.|.|.|.|.|.|.|.|.|.E+@.@.P r a ^ v {.",
"@ J+( / 0 R ~.+.@.I+|.1.|.|.|.|.1.|.1.|.|.|.|.1.1.1.|.|.|.|.|.1.1.|.|.|.|.|.1.K+E+@.k.:+r a ^ b ( ].",
"L+( b ( / t u ~.+.@.}.}.}.}.}.}.}.}.}.}.}.}.}.}.}.}.}.}.}.}.}.}.}.}.}.}.}.}.}.E+@.L R r 9 0 #.b b w ",
"M+~ b b J+/ 0 u ~.+.@.@.@.@.@.@.@.@.@.@.@.@.@.@.@.@.@.@.@.@.@.@.@.@.@.@.@.@.@.@.L R R a N+( b b b ! ",
"O+~ b b b #./ 0 u M M M M M M M M M M M M M M M M M M M M M M M M M M M M M M M R r a ^ b b b { { c ",
"P+Q+c R+b b ( ^ / u u u u u u u u u u u u u u u u u u u u u u u u u u u u u u u 9 0 ^ b b b S+! < R+",
"T+U+< V+{ b b b {.0 0 0 0 0 0 0 0 t s s a 0 0 0 0 0 0 0 9 s 0 9 0 0 0 0 0 9 0 0 0 N+b b b b _ ! W+R+",
"X+~ S+S+{ b b b b ( Y+0 0 0 0 0 0 a 9 9 a 0 0 0 0 0 0 0 a 9 0 a 0 0 0 0 0 a 0 Z+`+#.b b b b ~ R+<  @",
".@+@@@#@$@%@&@*@@@=@-@-@-@;@-@>@@@-@-@@@@@-@,@-@*@'@;@-@*@%@)@!@-@-@~@;@-@;@'@;@-@&@%@,@{@@@=@@@]@^@",
"/@(@_@:@<@[@}@|@_@1@2@<@2@1@3@4@2@1@1@4@5@6@7@8@9@[@1@8@0@a@[@}@4@(@[@}@3@}@[@<@4@}@b@c@4@2@1@d@e@0@",
"f@g@g@g@g@g@g@g@g@g@g@g@g@g@g@g@g@g@g@g@g@g@g@g@g@g@g@g@g@g@g@g@g@g@g@g@g@g@g@g@g@g@g@g@g@g@g@g@h@i@"};
