/* XPM */
static char *_282da6bef5341ef9df7e12d9b88f47eFCNxzkOfEL7O5OG0[] = {
/* columns rows colors chars-per-pixel */
"50 50 213 2 ",
"   c None",
".  c #000000",
"X  c #01020B",
"o  c #0E0E0E",
"O  c #000212",
"+  c #00031B",
"@  c #161516",
"#  c #04121D",
"$  c #000323",
"%  c #00052B",
"&  c #00082D",
"*  c #000A33",
"=  c #000D3C",
"-  c #000732",
";  c #021133",
":  c #01163B",
">  c #011B3B",
",  c #091131",
"<  c #01112E",
"1  c #232222",
"2  c #2D2D2D",
"3  c #272628",
"4  c #29333C",
"5  c #343434",
"6  c #3B3A3B",
"7  c #2C2C32",
"8  c #000F40",
"9  c #001143",
"0  c #00154A",
"q  c #00194E",
"w  c #081F40",
"e  c #001C53",
"r  c #02264D",
"t  c #012156",
"y  c #00245B",
"u  c #032C5F",
"i  c #153358",
"p  c #262F40",
"a  c #002760",
"s  c #002A64",
"d  c #002E6A",
"f  c #00316D",
"g  c #003473",
"h  c #003778",
"j  c #003A7D",
"k  c #033C74",
"l  c #33415A",
"z  c #3C404B",
"x  c #044877",
"c  c #164F79",
"v  c #334A76",
"b  c #354B61",
"n  c #434242",
"m  c #4D4D4D",
"M  c #494849",
"N  c #555454",
"B  c #5D5B5B",
"V  c #585857",
"C  c #4D4F54",
"Z  c #605E5E",
"A  c #50586F",
"S  c #656464",
"D  c #6C6B6B",
"F  c #676667",
"G  c #716F6F",
"H  c #737373",
"J  c #7B7B7B",
"K  c #787777",
"L  c #807F7F",
"P  c #003D83",
"I  c #00438C",
"U  c #024385",
"Y  c #055189",
"T  c #004692",
"R  c #004996",
"E  c #004C9B",
"W  c #00519F",
"Q  c #105E99",
"!  c #21588C",
"~  c #3A6F91",
"^  c #004FA0",
"/  c #0053A4",
"(  c #005BAC",
")  c #005AA5",
"_  c #0068AC",
"`  c #0063B3",
"'  c #006CBA",
"]  c #0068B7",
"[  c #0071BE",
"{  c #3C73AA",
"}  c #4D78AF",
"|  c #617FAC",
" . c #0075C1",
".. c #007AC6",
"X. c #007EC9",
"o. c #7B858C",
"O. c #5D84AC",
"+. c #5D89B2",
"@. c #7699B7",
"#. c #6D94B0",
"$. c #7DA0B9",
"%. c #0082CD",
"&. c #0088C6",
"*. c #0086D1",
"=. c #008BD5",
"-. c #008ED9",
";. c #0093DD",
":. c #0290D2",
">. c #1B82C8",
",. c #0096E0",
"<. c #009BE4",
"1. c #009FE8",
"2. c #00A3E9",
"3. c #00ABEB",
"4. c #0CAFEA",
"5. c #02B1ED",
"6. c #0CB5ED",
"7. c #15B7EE",
"8. c #28B9EE",
"9. c #34BCEF",
"0. c #3BBEEF",
"q. c #3DB4EA",
"w. c #3EBEF0",
"e. c #2CAAEB",
"r. c #4598D3",
"t. c #4B91CA",
"y. c #6898CA",
"u. c #73ACCB",
"i. c #69ABD5",
"p. c #40BFF0",
"a. c #50B6ED",
"s. c #74BCE3",
"d. c #47C1F0",
"f. c #5BC4F1",
"g. c #54C3F1",
"h. c #5BC1EF",
"j. c #68C8F3",
"k. c #7BCDF4",
"l. c #73C9F2",
"z. c #838383",
"x. c #8C8C8C",
"c. c #949595",
"v. c #9B9B9B",
"b. c #989695",
"n. c #848B9C",
"m. c #A09F9F",
"M. c #979AA2",
"N. c #8899B0",
"B. c #9FA0A0",
"V. c #A3A3A4",
"C. c #A7A8A8",
"Z. c #ABACAC",
"A. c #A8ADB6",
"S. c #AFB0B1",
"D. c #ABB2BC",
"F. c #B3B4B4",
"G. c #B7B8B8",
"H. c #BDBDBE",
"J. c #B6B7BA",
"K. c #B2B0AE",
"L. c #92B5CF",
"P. c #AABCC9",
"I. c #BEBFC1",
"U. c #89BAE1",
"Y. c #BFC0C0",
"T. c #B4C3D2",
"R. c #8CD3F5",
"E. c #87D1F5",
"W. c #93D5F6",
"Q. c #9BD7F6",
"!. c #9FD9F6",
"~. c #92CEF1",
"^. c #A9D3ED",
"/. c #B4D2E3",
"(. c #A4DAF7",
"). c #ADDEF8",
"_. c #A6D9F5",
"`. c #B0DFF8",
"'. c #ABCCE1",
"]. c #BCE3F9",
"[. c #B8E1F8",
"{. c #C3C4C4",
"}. c #C7C8C9",
"|. c #CBCCCC",
" X c #C7C7C8",
".X c #D1CFCE",
"XX c #CFCFD0",
"oX c #CBD0D3",
"OX c #D3D3D3",
"+X c #DADBDB",
"@X c #D9D8D7",
"#X c #C0DFF3",
"$X c #DEE1E2",
"%X c #C2E6F9",
"&X c #CCEAFA",
"*X c #C8E7F9",
"=X c #D3EDFB",
"-X c #D7EAF9",
";X c #DDF0FC",
":X c #E3E3E4",
">X c #EBE9E7",
",X c #E7E8E8",
"<X c #EEECEA",
"1X c #E7E7E7",
"2X c #F0EDEB",
"3X c #F3F1EF",
"4X c #EFF0F0",
"5X c #E2F3FD",
"6X c #EBF6FD",
"7X c #F4F3F3",
"8X c #F4FAFD",
"9X c #FBFBFB",
"0X c #F8F8F7",
/* pixels */
"                                            9X0X0X0X0X9X                                            ",
"                                  9X0X0X3X2X<X:X:X,X<X7X0X9X9X0X9X                                  ",
"                              0X7X2X<X<X<X<X:X:X,X<X7X0X9X0X7X,X$X:X<X                              ",
"                          0X3X<X<X<X<X<X<X:X:X,X4X0X0X9X0X7X,X+XOX{.F.G.:X                          ",
"                      9X7X<X<X<X<X<X<X<XOXG.C.v.v.B.C.S.{.OX+XXX{.F.C.C.F.OX0X                      ",
"                    0X2X<X<X<X<X<X.Xv.C x +.T.$X,X,X:XoXL.~ b K b.C.C.F.}.+X+X<X                    ",
"                  7X<X<X<X<X<X{.D s } U.-X9X9X9X9X9X9X8X6X%Xl.t.Y z x.|.+X+XOXOX+X0X                ",
"                7X<X<X<X<X@XH r +.U.~.&X=X;X6X8X8X8X8X6X5X;X&X).~.y.g Z H.OX|.}.{.OX0X              ",
"              7X<X<X<X<XF.7 ~ y.t.r.(.[.&X=X5X6X6X6X6X5X;X&X%X).!.`.^.O.: c.{.{.H.G.{.0X            ",
"            7X<X<X<X>Xb.* ! { ( >.k.Q.).].&X=X;X5X5X;X;X=X%X[.(.E.a._.[.L.i F G.G.F.C.{.            ",
"          0X<X<X<X>Xz.* y P / ' q.l.E.!.`.].*X&X=X=X=X&X%X[._.W.k.a.;.U.].'.i N C.C.V.b.|.          ",
"        7X<X<X<X<Xc.% q g T ( :.8.g.l.R.!.).[.].%X%X].[.`._.W.k.f.0.<.%.y.]./.l N v.b.x.z.+X        ",
"        <X<X<X<XK.+ 9 a P E ' 3.6.9.g.l.E.W.(._.).).).(.Q.R.k.j.p.7.3.*.' } #X/.p Z x.z.J x.:X      ",
"      :X<X<X<XOX@ * e f I / %.3.3.6.9.g.j.k.E.R.W.W.W.E.k.l.f.0.7.5.3.;. .( | *XP.O D J H F Z.      ",
"      >X<X<X<XD + 9 y h R ( ,.2.3.3.6.8.w.g.j.j.l.l.l.j.f.d.8.7.5.3.2.<...( T @.&Xo.1 D F B D  X    ",
"    OX<X<X<XH.. % 0 a P E ' <.1.2.3.3.5.6.8.9.w.d.d.p.9.8.7.5.3.3.2.2.1...` E j P.^.4 n B B F V.    ",
"    +X<X<X>XV X * q d P E ..;.<.1.2.2.3.3.5.5.6.6.7.6.5.5.3.3.2.2.1.<.,.%.` E j v _.#.o B F G z.    ",
"  F.<X<X1XH.. + = e d P E X.-.;.<.1.2.2.2.3.3.3.3.3.3.3.3.2.2.2.1.<.;.-.%.( E P a #.s.# m H J L b.  ",
"  {.<X:X:Xx.. $ 8 e f P E X.%.=.;.,.<.1.1.2.2.2.2.2.2.2.2.2.1.<.<.;.-.*.X.( E P s i r.c 5 J J m H   ",
"  .X:X:X:X5 . % 9 e d P / [ ..%.*.-.;.,.<.<.1.1.1.1.1.1.<.<.,.;.-.=.%.X. .( R P s q Q Y . H n 1 H   ",
"  OX:X,XOX. . % 9 e d P W ] '  .X.%.*.-.;.;.;.,.,.<.,.;.;.;.-.=.%.X...[ ] / T j a q u U . 1 2 K Z.z.",
"J :X,X7XH.. . % 9 e d j E ( ` ' [ ..X.%.*.*.=.-.-.-.-.=.=.*.%.X...[ ' ` ( ^ I h a q = g < 2 z.G.+Xv.",
"b.<X7X0XC.. . % 8 e a h T E / ( ` ' [  ...X.X.%.%.%.%.X.X...[ ) U f y q y y u a y 0 * a : N Y.:X0XZ.",
"b.7X0X9Xb.. . $ = q y g I R E ^ / ( ` ] ' ' [ [  .[ ' ' ) k 9 9 9 9 9 9 9 * . . + = % r : F :X0X9XG.",
"m.0X9X9XJ . . + = 0 y d P I T R E ^ / / ( ( ` ` ` ` ) f 9 9 9 9 9 9 9 9 9 * . . . . O : : S 0X9X7XC.",
"V.9X0X7XJ . . + * 9 e a h P U I T R E E E / / / W g 9 9 9 9 9 9 9 9 9 9 9 * . . . . . ; : S 9X4X:Xv.",
"b.0X7X,Xz.. . X % 8 q y d g j P P I I T T R T g 0 9 9 9 9 9 9 9 9 9 9 9 9 * . . . . . ; ; J <X+XOXb.",
"b.4X:X+Xx.. . . $ = 0 e a d f g h j P P j d 9 8 9 9 9 9 9 9 9 9 9 9 9 9 9 * . . . . . : : J +XXX{.x.",
"B :X+X|.b.. . . . + * 9 e y a s s a y q 9 8 8 9 9 9 9 9 9 9 9 9 9 9 9 9 9 & . . . . . t ; c.|.{.{.K ",
"  |.}.G.b.@ . . . . . . & 9 9 9 9 9 9 9 9 0 0 0 0 0 0 0 9 9 9 9 9 9 9 9 9 % . . . . . f X V.{.Y.H.N ",
"  C.G.C.V.6 . . . . . . $ 9 9 9 9 9 0 0 0 q q q q q q q q 0 0 0 9 9 9 9 9 + . . . . . k 3 G.I.H.Z.  ",
"  z.C.C.Z.K . . . . . . O 9 9 0 0 q q q e e e e e e e e e e q q 0 0 9 9 9 X . . . . > x B H.H.H.b.  ",
"  V C.Z.{.G.@ . . . . X + 9 0 q q e e e e e e e e e e e e e e e q q 0 0 8 O X . . . x > b.H.H.H.J   ",
"    V.}.+XOXF . . . O + % 9 q e e e e t y y y y y y y y y y e e e e q q = $ + X . . x m G.H.H.G.5   ",
"    c.+X+XOXF.X . O $ % * 9 e e e y y a s d f f g g f d d s y y t e e e = - % + X r r b.H.H.H.c.    ",
"    n OXOXXX}.J O $ % = 8 0 e y y s d g h j P P U U P P j g f d a y e e 9 = * % + i F H.H.H.H.N     ",
"      b.XX}.{.H.M % = 9 0 e y a d g j U I R E E E E E E T I P j g s y e q 9 = * w 4 G.H.H.H.b.      ",
"      5 H.{.H.G.F., 9 0 e y a g j I T E / / ( ( ( ( ( ( / / E I P h d y e e 9 = % Z.H.H.H.G.M       ",
"        H H.G.S.Z.S.9 e y s g P T E / ( ` ] ] ' ' ' ' ] ` ( ( / E I j f a t e 9 v.{.H.H.H.z.        ",
"          x.Z.C.B.C.V.q s g P R / ( ` ' '  ........... . .' ] ( ( E T j f a e M.|.H.H.H.V.          ",
"          2 c.v.b.x.b.S.a P E ( ] ] [ ..X.%.*.=.=.=.*.*.%.X. .' ] ` / T j a V.|.H.H.H.F.n           ",
"            6 x.x.z.J z.G.A / ' X.%.X.*.-.;.;.,.<.<.,.;.-.=.%...X. .` / v H.}.H.H.H.G.N             ",
"              6 J J G F B Z.M._ -.<.<.;.<.1.2.2.2.2.2.2.<.,.;.<.;.*._ n.|.Y.H.H.H.G.S               ",
"                2 S S B B S x.G.N.&.4.q.e.3.3.3.5.5.3.3.2.e.8.3.&.@.{.}.H.H.H.H.F.V                 ",
"                  @ M B F D J z.z.V.A.$.u.s.h.9.0.0.9.f.s.u.@.D.|.|.H.H.H.H.H.V.n                   ",
"                      6 D J z.Z 1 M x.OX,X+X}.D.P.P.A.J.I.XXXXH.H.H.H.H.H.G.z.                      ",
"                        3 S N @ N b.}.:X0X9X0X:X@X|.{.Y.H.H.H.H.H.H.H.H.b.m                         ",
"                            . 6 b.|.,X0X9X7X:XOX}.{.I.H.H.H.H.H.H.G.c.N                             ",
"                                  x.Y.:X<X$XOX}.{.H.H.H.H.H.F.b.K 2                                 ",
"                                        6 K z.z.o.J J J D 6                                         "
};
